<?xml version="1.0" encoding="UTF-8" standalone="no"?>
<svg
   xmlns:dc="http://purl.org/dc/elements/1.1/"
   xmlns:cc="http://creativecommons.org/ns#"
   xmlns:rdf="http://www.w3.org/1999/02/22-rdf-syntax-ns#"
   xmlns:svg="http://www.w3.org/2000/svg"
   xmlns="http://www.w3.org/2000/svg"
   id="Layer_1"
   viewBox="0 0 100 70"
   version="1.1">
  <metadata
     id="metadata15">
    <rdf:RDF>
      <cc:Work
         rdf:about="">
        <dc:format>image/svg+xml</dc:format>
        <dc:type
           rdf:resource="http://purl.org/dc/dcmitype/StillImage" />
        <dc:title></dc:title>
      </cc:Work>
    </rdf:RDF>
  </metadata>
  <defs
     id="defs13" />
  <style
     id="style2">.st2{fill:#e6e7e8}</style>
  <path
     d="M13 73.5c-1.4 0-2.5-1.1-2.5-2.5V13c0-1.4 1.1-2.5 2.5-2.5h74c1.4 0 2.5 1.1 2.5 2.5v58c0 1.4-1.1 2.5-2.5 2.5H13z"
     fill="#fff"
     id="path4" />
  <path
     d="M87 11c1.1 0 2 .9 2 2v58c0 1.1-.9 2-2 2H13c-1.1 0-2-.9-2-2V13c0-1.1.9-2 2-2h74m0-1H13c-1.7 0-3 1.3-3 3v58c0 1.7 1.3 3 3 3h74c1.6 0 3-1.3 3-3V13c0-1.7-1.4-3-3-3z"
     fill="#565d66"
     id="path6" />
  <path
     d="M 45.990052,41.380473 H 22.633909 c -0.127403,0 -0.212328,-0.248652 -0.212328,-0.621656 V 14.649243 c 0,-0.372993 0.08494,-0.621655 0.212328,-0.621655 h 23.356143 c 0.127402,0 0.212329,0.24865 0.212329,0.621655 v 26.109574 c 0,0.372994 -0.08492,0.621656 -0.212329,0.621656 z"
     id="path875"
     style="fill:#e6e7e8;fill-opacity:1;stroke-width:0.72662359" />
  <path
     d="m 39.954481,47.549975 h -4.942852 c -0.07269,0 -0.121149,-0.07977 -0.121149,-0.199428 v -4.786293 c 0,-0.119657 0.04846,-0.199428 0.121149,-0.199428 h 4.942852 c 0.07269,0 0.121149,0.07977 0.121149,0.199428 v 4.786293 c 0,0.119657 -0.04846,0.199428 -0.121149,0.199428 z"
     id="path869"
     style="fill:#e6e7e8;fill-opacity:1;stroke-width:0.31087279" />
  <path
     style="fill:#e6e7e8;fill-opacity:1;stroke-width:0.31087279"
     id="path883"
     d="M 46.188932,47.549975 H 41.24608 c -0.07269,0 -0.121149,-0.07977 -0.121149,-0.199428 v -4.786293 c 0,-0.119657 0.04846,-0.199428 0.121149,-0.199428 h 4.942852 c 0.07269,0 0.121148,0.07977 0.121148,0.199428 v 4.786293 c 0,0.119657 -0.04846,0.199428 -0.121148,0.199428 z" />
  <path
     style="fill:#e6e7e8;fill-opacity:1;stroke-width:0.31087279"
     id="path885"
     d="m 33.72003,47.549975 h -4.942852 c -0.07269,0 -0.121149,-0.07977 -0.121149,-0.199428 v -4.786293 c 0,-0.119657 0.04846,-0.199428 0.121149,-0.199428 h 4.942852 c 0.07269,0 0.121149,0.07977 0.121149,0.199428 v 4.786293 c 0,0.119657 -0.04846,0.199428 -0.121149,0.199428 z" />
  <path
     style="fill:#e6e7e8;fill-opacity:1;stroke-width:0.83488393"
     id="path921"
     d="m 43.934682,48 h -21.12004 c -0.20911,0 -0.348516,-0.2 -0.348516,-0.5 0,-0.3 0.139406,-0.5 0.348516,-0.5 h 21.12004 c 0.20911,0 0.348516,0.2 0.348516,0.5 0,0.3 -0.139406,0.5 -0.348516,0.5 z" />
  <path
     d="M 27.485582,47.549975 H 22.54273 c -0.07269,0 -0.121149,-0.07977 -0.121149,-0.199428 v -4.786293 c 0,-0.119657 0.04846,-0.199428 0.121149,-0.199428 h 4.942852 c 0.07269,0 0.121149,0.07977 0.121149,0.199428 v 4.786293 c 0,0.119657 -0.04846,0.199428 -0.121149,0.199428 z"
     id="path888"
     style="fill:#e6e7e8;fill-opacity:1;stroke-width:0.31087279" />
  <path
     style="fill:#e6e7e8;fill-opacity:1;stroke-width:0.90320474"
     id="path952"
     d="M 76.005088,34 H 51.286994 c -0.244734,0 -0.40789,-0.2 -0.40789,-0.5 0,-0.3 0.163156,-0.5 0.40789,-0.5 h 24.718094 c 0.244734,0 0.40789,0.2 0.40789,0.5 0,0.3 -0.163156,0.5 -0.40789,0.5 z" />
  <path
     style="fill:#e6e7e8;fill-opacity:1;stroke-width:0.90320474"
     id="path954"
     d="M 76.005088,42 H 51.286994 c -0.244734,0 -0.40789,-0.2 -0.40789,-0.5 0,-0.3 0.163156,-0.5 0.40789,-0.5 h 24.718094 c 0.244734,0 0.40789,0.2 0.40789,0.5 0,0.3 -0.163156,0.5 -0.40789,0.5 z" />
  <path
     style="fill:#e6e7e8;fill-opacity:1;stroke-width:0.90320474"
     id="path956"
     d="M 76.005088,45 H 51.286994 c -0.244734,0 -0.40789,-0.2 -0.40789,-0.5 0,-0.3 0.163156,-0.5 0.40789,-0.5 h 24.718094 c 0.244734,0 0.40789,0.2 0.40789,0.5 0,0.3 -0.163156,0.5 -0.40789,0.5 z" />
  <path
     style="fill:#e6e7e8;fill-opacity:1;stroke-width:0.90320474"
     id="path958"
     d="M 76.005088,48 H 51.286994 c -0.244734,0 -0.40789,-0.2 -0.40789,-0.5 0,-0.3 0.163156,-0.5 0.40789,-0.5 h 24.718094 c 0.244734,0 0.40789,0.2 0.40789,0.5 0,0.3 -0.163156,0.5 -0.40789,0.5 z" />
  <path
     d="M 76.005088,34 H 51.286994 c -0.244734,0 -0.40789,-0.2 -0.40789,-0.5 0,-0.3 0.163156,-0.5 0.40789,-0.5 h 24.718094 c 0.244734,0 0.40789,0.2 0.40789,0.5 0,0.3 -0.163156,0.5 -0.40789,0.5 z"
     id="path960"
     style="fill:#e6e7e8;fill-opacity:1;stroke-width:0.90320474" />
  <path
     d="M 72.34766,39 H 51.22762 c -0.20911,0 -0.348516,-0.2 -0.348516,-0.5 0,-0.3 0.139406,-0.5 0.348516,-0.5 h 21.12004 c 0.20911,0 0.348516,0.2 0.348516,0.5 0,0.3 -0.139406,0.5 -0.348516,0.5 z"
     id="path962"
     style="fill:#e6e7e8;fill-opacity:1;stroke-width:0.83488393" />
  <path
     d="M 76.005088,42 H 51.286994 c -0.244734,0 -0.40789,-0.2 -0.40789,-0.5 0,-0.3 0.163156,-0.5 0.40789,-0.5 h 24.718094 c 0.244734,0 0.40789,0.2 0.40789,0.5 0,0.3 -0.163156,0.5 -0.40789,0.5 z"
     id="path964"
     style="fill:#e6e7e8;fill-opacity:1;stroke-width:0.90320474" />
  <path
     d="M 76.005088,45 H 51.286994 c -0.244734,0 -0.40789,-0.2 -0.40789,-0.5 0,-0.3 0.163156,-0.5 0.40789,-0.5 h 24.718094 c 0.244734,0 0.40789,0.2 0.40789,0.5 0,0.3 -0.163156,0.5 -0.40789,0.5 z"
     id="path966"
     style="fill:#e6e7e8;fill-opacity:1;stroke-width:0.90320474" />
  <path
     d="M 76.005088,48 H 51.286994 c -0.244734,0 -0.40789,-0.2 -0.40789,-0.5 0,-0.3 0.163156,-0.5 0.40789,-0.5 h 24.718094 c 0.244734,0 0.40789,0.2 0.40789,0.5 0,0.3 -0.163156,0.5 -0.40789,0.5 z"
     id="path968"
     style="fill:#e6e7e8;fill-opacity:1;stroke-width:0.90320474" />
  <path
     style="fill:#e6e7e8;fill-opacity:1;stroke-width:0.83488393"
     id="path970"
     d="M 72.34766,50.967555 H 51.22762 c -0.20911,0 -0.348516,-0.2 -0.348516,-0.5 0,-0.3 0.139406,-0.5 0.348516,-0.5 h 21.12004 c 0.20911,0 0.348516,0.2 0.348516,0.5 0,0.3 -0.139406,0.5 -0.348516,0.5 z" />
  <path
     d="M 72.34766,48 H 51.22762 c -0.20911,0 -0.348516,-0.2 -0.348516,-0.5 0,-0.3 0.139406,-0.5 0.348516,-0.5 h 21.12004 c 0.20911,0 0.348516,0.2 0.348516,0.5 0,0.3 -0.139406,0.5 -0.348516,0.5 z"
     id="path972"
     style="fill:#e6e7e8;fill-opacity:1;stroke-width:0.83488393" />
  <path
     d="M 75.95194,19 H 51.233846 c -0.244734,0 -0.40789,-0.2 -0.40789,-0.5 0,-0.3 0.163156,-0.5 0.40789,-0.5 H 75.95194 c 0.244734,0 0.40789,0.2 0.40789,0.5 0,0.3 -0.163156,0.5 -0.40789,0.5 z"
     id="path974"
     style="fill:#e6e7e8;fill-opacity:1;stroke-width:0.90320474" />
  <path
     d="M 75.95194,25 H 51.233846 c -0.244734,0 -0.40789,-0.2 -0.40789,-0.5 0,-0.3 0.163156,-0.5 0.40789,-0.5 H 75.95194 c 0.244734,0 0.40789,0.2 0.40789,0.5 0,0.3 -0.163156,0.5 -0.40789,0.5 z"
     id="path976"
     style="fill:#e6e7e8;fill-opacity:1;stroke-width:0.90320474" />
  <path
     d="M 75.95194,28 H 51.233846 c -0.244734,0 -0.40789,-0.2 -0.40789,-0.5 0,-0.3 0.163156,-0.5 0.40789,-0.5 H 75.95194 c 0.244734,0 0.40789,0.2 0.40789,0.5 0,0.3 -0.163156,0.5 -0.40789,0.5 z"
     id="path978"
     style="fill:#e6e7e8;fill-opacity:1;stroke-width:0.90320474" />
  <path
     style="fill:#e6e7e8;fill-opacity:1;stroke-width:0.90320474"
     id="path980"
     d="M 75.95194,19 H 51.233846 c -0.244734,0 -0.40789,-0.2 -0.40789,-0.5 0,-0.3 0.163156,-0.5 0.40789,-0.5 H 75.95194 c 0.244734,0 0.40789,0.2 0.40789,0.5 0,0.3 -0.163156,0.5 -0.40789,0.5 z" />
  <path
     style="fill:#e6e7e8;fill-opacity:1;stroke-width:0.90320474"
     id="path982"
     d="M 75.95194,25 H 51.233846 c -0.244734,0 -0.40789,-0.2 -0.40789,-0.5 0,-0.3 0.163156,-0.5 0.40789,-0.5 H 75.95194 c 0.244734,0 0.40789,0.2 0.40789,0.5 0,0.3 -0.163156,0.5 -0.40789,0.5 z" />
  <path
     style="fill:#e6e7e8;fill-opacity:1;stroke-width:0.90320474"
     id="path984"
     d="M 75.95194,30.967555 H 51.233846 c -0.244734,0 -0.40789,-0.2 -0.40789,-0.5 0,-0.3 0.163156,-0.5 0.40789,-0.5 H 75.95194 c 0.244734,0 0.40789,0.2 0.40789,0.5 0,0.3 -0.163156,0.5 -0.40789,0.5 z" />
  <path
     d="M 75.95194,30.967555 H 51.233846 c -0.244734,0 -0.40789,-0.2 -0.40789,-0.5 0,-0.3 0.163156,-0.5 0.40789,-0.5 H 75.95194 c 0.244734,0 0.40789,0.2 0.40789,0.5 0,0.3 -0.163156,0.5 -0.40789,0.5 z"
     id="path986"
     style="fill:#e6e7e8;fill-opacity:1;stroke-width:0.90320474" />
  <path
     style="fill:#e6e7e8;fill-opacity:1;stroke-width:0.82494754"
     id="path988"
     d="m 71.786536,16 h -20.62031 c -0.204162,0 -0.34027,-0.2 -0.34027,-0.5 0,-0.3 0.136108,-0.5 0.34027,-0.5 h 20.62031 c 0.204162,0 0.34027,0.2 0.34027,0.5 0,0.3 -0.136108,0.5 -0.34027,0.5 z" />
  <path
     style="fill:#e6e7e8;fill-opacity:1;stroke-width:0.82494754"
     id="path990"
     d="m 71.786536,22 h -20.62031 c -0.204162,0 -0.34027,-0.2 -0.34027,-0.5 0,-0.3 0.136108,-0.5 0.34027,-0.5 h 20.62031 c 0.204162,0 0.34027,0.2 0.34027,0.5 0,0.3 -0.136108,0.5 -0.34027,0.5 z" />
  <path
     d="m 71.786536,28 h -20.62031 c -0.204162,0 -0.34027,-0.2 -0.34027,-0.5 0,-0.3 0.136108,-0.5 0.34027,-0.5 h 20.62031 c 0.204162,0 0.34027,0.2 0.34027,0.5 0,0.3 -0.136108,0.5 -0.34027,0.5 z"
     id="path992"
     style="fill:#e6e7e8;fill-opacity:1;stroke-width:0.82494754" />
  <path
     d="M 75.95194,30.967555 H 51.233846 c -0.244734,0 -0.40789,-0.2 -0.40789,-0.5 0,-0.3 0.163156,-0.5 0.40789,-0.5 H 75.95194 c 0.244734,0 0.40789,0.2 0.40789,0.5 0,0.3 -0.163156,0.5 -0.40789,0.5 z"
     id="path994"
     style="fill:#e6e7e8;fill-opacity:1;stroke-width:0.90320474" />
  <path
     d="M 76.005088,58 H 51.286994 c -0.244734,0 -0.40789,-0.2 -0.40789,-0.5 0,-0.3 0.163156,-0.5 0.40789,-0.5 h 24.718094 c 0.244734,0 0.40789,0.2 0.40789,0.5 0,0.3 -0.163156,0.5 -0.40789,0.5 z"
     id="path996"
     style="fill:#e6e7e8;fill-opacity:1;stroke-width:0.90320474" />
  <path
     d="M 76.005088,61 H 51.286994 c -0.244734,0 -0.40789,-0.2 -0.40789,-0.5 0,-0.3 0.163156,-0.5 0.40789,-0.5 h 24.718094 c 0.244734,0 0.40789,0.2 0.40789,0.5 0,0.3 -0.163156,0.5 -0.40789,0.5 z"
     id="path998"
     style="fill:#e6e7e8;fill-opacity:1;stroke-width:0.90320474" />
  <path
     d="M 76.005088,64 H 51.286994 c -0.244734,0 -0.40789,-0.2 -0.40789,-0.5 0,-0.3 0.163156,-0.5 0.40789,-0.5 h 24.718094 c 0.244734,0 0.40789,0.2 0.40789,0.5 0,0.3 -0.163156,0.5 -0.40789,0.5 z"
     id="path1000"
     style="fill:#e6e7e8;fill-opacity:1;stroke-width:0.90320474" />
  <path
     style="fill:#e6e7e8;fill-opacity:1;stroke-width:0.83488393"
     id="path1002"
     d="M 72.34766,55 H 51.22762 c -0.20911,0 -0.348516,-0.2 -0.348516,-0.5 0,-0.3 0.139406,-0.5 0.348516,-0.5 h 21.12004 c 0.20911,0 0.348516,0.2 0.348516,0.5 0,0.3 -0.139406,0.5 -0.348516,0.5 z" />
  <path
     style="fill:#e6e7e8;fill-opacity:1;stroke-width:0.90320474"
     id="path1004"
     d="M 76.005088,58 H 51.286994 c -0.244734,0 -0.40789,-0.2 -0.40789,-0.5 0,-0.3 0.163156,-0.5 0.40789,-0.5 h 24.718094 c 0.244734,0 0.40789,0.2 0.40789,0.5 0,0.3 -0.163156,0.5 -0.40789,0.5 z" />
  <path
     style="fill:#e6e7e8;fill-opacity:1;stroke-width:0.90320474"
     id="path1006"
     d="M 76.005088,61 H 51.286994 c -0.244734,0 -0.40789,-0.2 -0.40789,-0.5 0,-0.3 0.163156,-0.5 0.40789,-0.5 h 24.718094 c 0.244734,0 0.40789,0.2 0.40789,0.5 0,0.3 -0.163156,0.5 -0.40789,0.5 z" />
  <path
     style="fill:#e6e7e8;fill-opacity:1;stroke-width:0.90320474"
     id="path1008"
     d="M 76.005088,64 H 51.286994 c -0.244734,0 -0.40789,-0.2 -0.40789,-0.5 0,-0.3 0.163156,-0.5 0.40789,-0.5 h 24.718094 c 0.244734,0 0.40789,0.2 0.40789,0.5 0,0.3 -0.163156,0.5 -0.40789,0.5 z" />
  <path
     d="M 72.34766,66.967555 H 51.22762 c -0.20911,0 -0.348516,-0.2 -0.348516,-0.5 0,-0.3 0.139406,-0.5 0.348516,-0.5 h 21.12004 c 0.20911,0 0.348516,0.2 0.348516,0.5 0,0.3 -0.139406,0.5 -0.348516,0.5 z"
     id="path1010"
     style="fill:#e6e7e8;fill-opacity:1;stroke-width:0.83488393" />
  <path
     style="fill:#e6e7e8;fill-opacity:1;stroke-width:0.83488393"
     id="path1012"
     d="M 72.34766,64 H 51.22762 c -0.20911,0 -0.348516,-0.2 -0.348516,-0.5 0,-0.3 0.139406,-0.5 0.348516,-0.5 h 21.12004 c 0.20911,0 0.348516,0.2 0.348516,0.5 0,0.3 -0.139406,0.5 -0.348516,0.5 z" />
</svg>
