<?xml version="1.0" encoding="UTF-8" standalone="no"?>
<svg
   xmlns:dc="http://purl.org/dc/elements/1.1/"
   xmlns:cc="http://creativecommons.org/ns#"
   xmlns:rdf="http://www.w3.org/1999/02/22-rdf-syntax-ns#"
   xmlns:svg="http://www.w3.org/2000/svg"
   xmlns="http://www.w3.org/2000/svg"
   id="Layer_1"
   viewBox="0 0 100 70"
   version="1.1">
  <metadata
     id="metadata15">
    <rdf:RDF>
      <cc:Work
         rdf:about="">
        <dc:format>image/svg+xml</dc:format>
        <dc:type
           rdf:resource="http://purl.org/dc/dcmitype/StillImage" />
        <dc:title></dc:title>
      </cc:Work>
    </rdf:RDF>
  </metadata>
  <defs
     id="defs13" />
  <style
     id="style2">.st2{fill:#e6e7e8}</style>
  <path
     d="M13 73.5c-1.4 0-2.5-1.1-2.5-2.5V13c0-1.4 1.1-2.5 2.5-2.5h74c1.4 0 2.5 1.1 2.5 2.5v58c0 1.4-1.1 2.5-2.5 2.5H13z"
     fill="#fff"
     id="path4" />
  <path
     d="M87 11c1.1 0 2 .9 2 2v58c0 1.1-.9 2-2 2H13c-1.1 0-2-.9-2-2V13c0-1.1.9-2 2-2h74m0-1H13c-1.7 0-3 1.3-3 3v58c0 1.7 1.3 3 3 3h74c1.6 0 3-1.3 3-3V13c0-1.7-1.4-3-3-3z"
     fill="#565d66"
     id="path6" />
  <path
     d="m 70.908945,50.239483 h -41.81789 c -0.228098,0 -0.380164,-0.270221 -0.380164,-0.675554 V 21.190587 c 0,-0.405334 0.152066,-0.675555 0.380164,-0.675555 h 41.81789 c 0.228098,0 0.380164,0.270221 0.380164,0.675555 v 28.373342 c 0,0.405333 -0.152066,0.675554 -0.380164,0.675554 z"
     id="path875"
     style="fill:#e6e7e8;fill-opacity:1;stroke-width:1.0135504" />
  <path
     d="m 66.075197,67.101704 h -8.29441 c -0.121977,0 -0.203295,-0.133861 -0.203295,-0.334654 v -8.031692 c 0,-0.200793 0.08132,-0.334654 0.203295,-0.334654 h 8.29441 c 0.121977,0 0.203295,0.133861 0.203295,0.334654 v 8.031692 c 0,0.200793 -0.08132,0.334654 -0.203295,0.334654 z"
     id="path869"
     style="fill:#e6e7e8;fill-opacity:1;stroke-width:0.52166367" />
  <path
     style="fill:#e6e7e8;fill-opacity:1;stroke-width:0.52166367"
     id="path883"
     d="m 77.796701,67.101704 h -8.29441 c -0.121977,0 -0.203295,-0.133861 -0.203295,-0.334654 v -8.031692 c 0,-0.200793 0.08132,-0.334654 0.203295,-0.334654 h 8.29441 c 0.121977,0 0.203295,0.133861 0.203295,0.334654 v 8.031692 c 0,0.200793 -0.08132,0.334654 -0.203295,0.334654 z" />
  <path
     style="fill:#e6e7e8;fill-opacity:1;stroke-width:0.52166367"
     id="path885"
     d="m 54.353693,67.101704 h -8.29441 c -0.121977,0 -0.203295,-0.133861 -0.203295,-0.334654 v -8.031692 c 0,-0.200793 0.08132,-0.334654 0.203295,-0.334654 h 8.29441 c 0.121977,0 0.203295,0.133861 0.203295,0.334654 v 8.031692 c 0,0.200793 -0.08132,0.334654 -0.203295,0.334654 z" />
  <path
     d="m 42.632188,67.101704 h -8.29441 c -0.121977,0 -0.203295,-0.133861 -0.203295,-0.334654 v -8.031692 c 0,-0.200793 0.08132,-0.334654 0.203295,-0.334654 h 8.29441 c 0.121977,0 0.203295,0.133861 0.203295,0.334654 v 8.031692 c 0,0.200793 -0.08132,0.334654 -0.203295,0.334654 z"
     id="path887"
     style="fill:#e6e7e8;fill-opacity:1;stroke-width:0.52166367" />
  <path
     d="m 30.910683,67.101704 h -8.29441 c -0.121977,0 -0.203295,-0.133861 -0.203295,-0.334654 v -8.031692 c 0,-0.200793 0.08132,-0.334654 0.203295,-0.334654 h 8.29441 c 0.121977,0 0.203295,0.133861 0.203295,0.334654 v 8.031692 c 0,0.200793 -0.08132,0.334654 -0.203295,0.334654 z"
     id="path891"
     style="fill:#e6e7e8;fill-opacity:1;stroke-width:0.52166367" />
  <path
     d="m 43.373558,56 h -20.62031 c -0.204162,0 -0.34027,-0.2 -0.34027,-0.5 0,-0.3 0.136108,-0.5 0.34027,-0.5 h 20.62031 c 0.204162,0 0.34027,0.2 0.34027,0.5 0,0.3 -0.136108,0.5 -0.34027,0.5 z"
     id="path965"
     style="fill:#e6e7e8;fill-opacity:1;stroke-width:0.82494754" />
  <path
     style="fill:#e6e7e8;fill-opacity:1;stroke-width:0.82494754"
     id="path830"
     d="m 43.373558,18 h -20.62031 c -0.204162,0 -0.34027,-0.2 -0.34027,-0.5 0,-0.3 0.136108,-0.5 0.34027,-0.5 h 20.62031 c 0.204162,0 0.34027,0.2 0.34027,0.5 0,0.3 -0.136108,0.5 -0.34027,0.5 z" />
</svg>
