<?xml version="1.0" encoding="UTF-8" standalone="no"?>
<svg
   xmlns:dc="http://purl.org/dc/elements/1.1/"
   xmlns:cc="http://creativecommons.org/ns#"
   xmlns:rdf="http://www.w3.org/1999/02/22-rdf-syntax-ns#"
   xmlns:svg="http://www.w3.org/2000/svg"
   xmlns="http://www.w3.org/2000/svg"
   id="Layer_1"
   viewBox="0 0 100 70"
   version="1.1">
  <metadata
     id="metadata15">
    <rdf:RDF>
      <cc:Work
         rdf:about="">
        <dc:format>image/svg+xml</dc:format>
        <dc:type
           rdf:resource="http://purl.org/dc/dcmitype/StillImage" />
        <dc:title></dc:title>
      </cc:Work>
    </rdf:RDF>
  </metadata>
  <defs
     id="defs13" />
  <style
     id="style2">.st2{fill:#e6e7e8}</style>
  <path
     d="M13 73.5c-1.4 0-2.5-1.1-2.5-2.5V13c0-1.4 1.1-2.5 2.5-2.5h74c1.4 0 2.5 1.1 2.5 2.5v58c0 1.4-1.1 2.5-2.5 2.5H13z"
     fill="#fff"
     id="path4" />
  <path
     d="M87 11c1.1 0 2 .9 2 2v58c0 1.1-.9 2-2 2H13c-1.1 0-2-.9-2-2V13c0-1.1.9-2 2-2h74m0-1H13c-1.7 0-3 1.3-3 3v58c0 1.7 1.3 3 3 3h74c1.6 0 3-1.3 3-3V13c0-1.7-1.4-3-3-3z"
     fill="#565d66"
     id="path6" />
  <g
     transform="translate(0,1.0917969e-6)"
     id="g972">
    <path
       d="M 76.486343,15.386443 H 47.870357 c -0.283327,0 -0.472212,-0.2 -0.472212,-0.5 0,-0.3 0.188885,-0.5 0.472212,-0.5 h 28.615986 c 0.283326,0 0.472211,0.2 0.472211,0.5 0,0.3 -0.188885,0.5 -0.472211,0.5 z"
       id="path941"
       style="fill:#e6e7e8;fill-opacity:1;stroke-width:0.97181386" />
    <path
       d="M 76.486343,21.386443 H 47.870357 c -0.283327,0 -0.472212,-0.2 -0.472212,-0.5 0,-0.3 0.188885,-0.5 0.472212,-0.5 h 28.615986 c 0.283326,0 0.472211,0.2 0.472211,0.5 0,0.3 -0.188885,0.5 -0.472211,0.5 z"
       id="path945"
       style="fill:#e6e7e8;fill-opacity:1;stroke-width:0.97181386" />
    <path
       d="M 67.342773,24.386443 H 47.721922 c -0.194266,0 -0.323777,-0.2 -0.323777,-0.5 0,-0.3 0.129511,-0.5 0.323777,-0.5 h 19.620851 c 0.194266,0 0.323777,0.2 0.323777,0.5 0,0.3 -0.129511,0.5 -0.323777,0.5 z"
       id="path947"
       style="fill:#e6e7e8;fill-opacity:1;stroke-width:0.80470675" />
    <path
       style="fill:#e6e7e8;fill-opacity:1;stroke-width:0.97181386"
       id="path951"
       d="M 76.486343,15.386443 H 47.870357 c -0.283327,0 -0.472212,-0.2 -0.472212,-0.5 0,-0.3 0.188885,-0.5 0.472212,-0.5 h 28.615986 c 0.283326,0 0.472211,0.2 0.472211,0.5 0,0.3 -0.188885,0.5 -0.472211,0.5 z" />
    <path
       style="fill:#e6e7e8;fill-opacity:1;stroke-width:0.97181386"
       id="path955"
       d="M 76.486343,21.386443 H 47.870357 c -0.283327,0 -0.472212,-0.2 -0.472212,-0.5 0,-0.3 0.188885,-0.5 0.472212,-0.5 h 28.615986 c 0.283326,0 0.472211,0.2 0.472211,0.5 0,0.3 -0.188885,0.5 -0.472211,0.5 z" />
    <path
       style="fill:#d6d8d9;fill-opacity:1;stroke-width:1.01035035"
       id="path965"
       d="m 43.373558,16 h -20.62031 c -0.204162,0 -0.34027,-0.3 -0.34027,-0.75 0,-0.45 0.136108,-0.75 0.34027,-0.75 h 20.62031 c 0.204162,0 0.34027,0.3 0.34027,0.75 0,0.45 -0.136108,0.75 -0.34027,0.75 z" />
    <path
       style="fill:#e6e7e8;fill-opacity:1;stroke-width:0.88761204"
       id="path969"
       d="M 71.664079,18.386443 H 47.792074 c -0.236357,0 -0.393929,-0.2 -0.393929,-0.5 0,-0.3 0.157572,-0.5 0.393929,-0.5 h 23.872005 c 0.236358,0 0.393929,0.2 0.393929,0.5 0,0.3 -0.157571,0.5 -0.393929,0.5 z" />
  </g>
  <g
     transform="translate(0,0.34661102)"
     id="g977">
    <path
       style="fill:#e6e7e8;fill-opacity:1;stroke-width:0.97181386"
       id="path893"
       d="M 76.486343,29.386443 H 47.870357 c -0.283327,0 -0.472212,-0.2 -0.472212,-0.5 0,-0.3 0.188885,-0.5 0.472212,-0.5 h 28.615986 c 0.283326,0 0.472211,0.2 0.472211,0.5 0,0.3 -0.188885,0.5 -0.472211,0.5 z" />
    <path
       d="M 76.486343,29.386443 H 47.870357 c -0.283327,0 -0.472212,-0.2 -0.472212,-0.5 0,-0.3 0.188885,-0.5 0.472212,-0.5 h 28.615986 c 0.283326,0 0.472211,0.2 0.472211,0.5 0,0.3 -0.188885,0.5 -0.472211,0.5 z"
       id="path899"
       style="fill:#e6e7e8;fill-opacity:1;stroke-width:0.97181386" />
    <path
       d="m 38.395393,30 h -15.72296 c -0.155673,0 -0.259455,-0.3 -0.259455,-0.75 0,-0.45 0.103782,-0.75 0.259455,-0.75 h 15.72296 c 0.155673,0 0.259455,0.3 0.259455,0.75 0,0.45 -0.103782,0.75 -0.259455,0.75 z"
       id="path903"
       style="fill:#d6d8d9;fill-opacity:1;stroke-width:0.88224977" />
  </g>
  <g
     transform="translate(0,0.30677905)"
     id="g985">
    <path
       style="fill:#e6e7e8;fill-opacity:1;stroke-width:0.97181386"
       id="path907"
       d="M 76.486343,35.386443 H 47.870357 c -0.283327,0 -0.472212,-0.2 -0.472212,-0.5 0,-0.3 0.188885,-0.5 0.472212,-0.5 h 28.615986 c 0.283326,0 0.472211,0.2 0.472211,0.5 0,0.3 -0.188885,0.5 -0.472211,0.5 z" />
    <path
       style="fill:#e6e7e8;fill-opacity:1;stroke-width:0.97181386"
       id="path909"
       d="M 76.486343,41.386443 H 47.870357 c -0.283327,0 -0.472212,-0.2 -0.472212,-0.5 0,-0.3 0.188885,-0.5 0.472212,-0.5 h 28.615986 c 0.283326,0 0.472211,0.2 0.472211,0.5 0,0.3 -0.188885,0.5 -0.472211,0.5 z" />
    <path
       d="M 76.486343,35.386443 H 47.870357 c -0.283327,0 -0.472212,-0.2 -0.472212,-0.5 0,-0.3 0.188885,-0.5 0.472212,-0.5 h 28.615986 c 0.283326,0 0.472211,0.2 0.472211,0.5 0,0.3 -0.188885,0.5 -0.472211,0.5 z"
       id="path913"
       style="fill:#e6e7e8;fill-opacity:1;stroke-width:0.97181386" />
    <path
       d="M 76.486343,41.386443 H 47.870357 c -0.283327,0 -0.472212,-0.2 -0.472212,-0.5 0,-0.3 0.188885,-0.5 0.472212,-0.5 h 28.615986 c 0.283326,0 0.472211,0.2 0.472211,0.5 0,0.3 -0.188885,0.5 -0.472211,0.5 z"
       id="path915"
       style="fill:#e6e7e8;fill-opacity:1;stroke-width:0.97181386" />
    <path
       d="m 43.373558,36 h -20.62031 c -0.204162,0 -0.34027,-0.3 -0.34027,-0.75 0,-0.45 0.136108,-0.75 0.34027,-0.75 h 20.62031 c 0.204162,0 0.34027,0.3 0.34027,0.75 0,0.45 -0.136108,0.75 -0.34027,0.75 z"
       id="path917"
       style="fill:#d6d8d9;fill-opacity:1;stroke-width:1.01035035" />
    <path
       d="M 71.664079,38.386443 H 47.792074 c -0.236357,0 -0.393929,-0.2 -0.393929,-0.5 0,-0.3 0.157572,-0.5 0.393929,-0.5 h 23.872005 c 0.236358,0 0.393929,0.2 0.393929,0.5 0,0.3 -0.157571,0.5 -0.393929,0.5 z"
       id="path919"
       style="fill:#e6e7e8;fill-opacity:1;stroke-width:0.88761204" />
  </g>
  <g
     transform="translate(0,-0.34661088)"
     id="g994">
    <path
       style="fill:#e6e7e8;fill-opacity:1;stroke-width:0.97181386"
       id="path927"
       d="M 76.486343,47.386443 H 47.870357 c -0.283327,0 -0.472212,-0.2 -0.472212,-0.5 0,-0.3 0.188885,-0.5 0.472212,-0.5 h 28.615986 c 0.283326,0 0.472211,0.2 0.472211,0.5 0,0.3 -0.188885,0.5 -0.472211,0.5 z" />
    <path
       style="fill:#e6e7e8;fill-opacity:1;stroke-width:0.97181386"
       id="path929"
       d="M 76.486343,53.386443 H 47.870357 c -0.283327,0 -0.472212,-0.2 -0.472212,-0.5 0,-0.3 0.188885,-0.5 0.472212,-0.5 h 28.615986 c 0.283326,0 0.472211,0.2 0.472211,0.5 0,0.3 -0.188885,0.5 -0.472211,0.5 z" />
    <path
       style="fill:#e6e7e8;fill-opacity:1;stroke-width:0.80470675"
       id="path931"
       d="M 67.342773,56.386443 H 47.721922 c -0.194266,0 -0.323777,-0.2 -0.323777,-0.5 0,-0.3 0.129511,-0.5 0.323777,-0.5 h 19.620851 c 0.194266,0 0.323777,0.2 0.323777,0.5 0,0.3 -0.129511,0.5 -0.323777,0.5 z" />
    <path
       d="M 76.486343,47.386443 H 47.870357 c -0.283327,0 -0.472212,-0.2 -0.472212,-0.5 0,-0.3 0.188885,-0.5 0.472212,-0.5 h 28.615986 c 0.283326,0 0.472211,0.2 0.472211,0.5 0,0.3 -0.188885,0.5 -0.472211,0.5 z"
       id="path933"
       style="fill:#e6e7e8;fill-opacity:1;stroke-width:0.97181386" />
    <path
       d="M 76.486343,53.386443 H 47.870357 c -0.283327,0 -0.472212,-0.2 -0.472212,-0.5 0,-0.3 0.188885,-0.5 0.472212,-0.5 h 28.615986 c 0.283326,0 0.472211,0.2 0.472211,0.5 0,0.3 -0.188885,0.5 -0.472211,0.5 z"
       id="path935"
       style="fill:#e6e7e8;fill-opacity:1;stroke-width:0.97181386" />
    <path
       d="M 39.106559,48 H 22.683978 c -0.1626,0 -0.271,-0.3 -0.271,-0.75 0,-0.45 0.1084,-0.75 0.271,-0.75 h 16.422581 c 0.1626,0 0.271,0.3 0.271,0.75 0,0.45 -0.1084,0.75 -0.271,0.75 z"
       id="path937"
       style="fill:#d6d8d9;fill-opacity:1;stroke-width:0.90166479" />
    <path
       d="M 71.664079,50.386443 H 47.792074 c -0.236357,0 -0.393929,-0.2 -0.393929,-0.5 0,-0.3 0.157572,-0.5 0.393929,-0.5 h 23.872005 c 0.236358,0 0.393929,0.2 0.393929,0.5 0,0.3 -0.157571,0.5 -0.393929,0.5 z"
       id="path939"
       style="fill:#e6e7e8;fill-opacity:1;stroke-width:0.88761204" />
  </g>
  <g
     id="g963">
    <path
       d="M 76.486343,61.386443 H 47.870357 c -0.283327,0 -0.472212,-0.2 -0.472212,-0.5 0,-0.3 0.188885,-0.5 0.472212,-0.5 h 28.615986 c 0.283326,0 0.472211,0.2 0.472211,0.5 0,0.3 -0.188885,0.5 -0.472211,0.5 z"
       id="path942"
       style="fill:#e6e7e8;fill-opacity:1;stroke-width:0.97181386" />
    <path
       d="M 76.486343,67.386443 H 47.870357 c -0.283327,0 -0.472212,-0.2 -0.472212,-0.5 0,-0.3 0.188885,-0.5 0.472212,-0.5 h 28.615986 c 0.283326,0 0.472211,0.2 0.472211,0.5 0,0.3 -0.188885,0.5 -0.472211,0.5 z"
       id="path944"
       style="fill:#e6e7e8;fill-opacity:1;stroke-width:0.97181386" />
    <path
       d="M 67.342773,70.386443 H 47.721922 c -0.194266,0 -0.323777,-0.2 -0.323777,-0.5 0,-0.3 0.129511,-0.5 0.323777,-0.5 h 19.620851 c 0.194266,0 0.323777,0.2 0.323777,0.5 0,0.3 -0.129511,0.5 -0.323777,0.5 z"
       id="path946"
       style="fill:#e6e7e8;fill-opacity:1;stroke-width:0.80470675" />
    <path
       style="fill:#e6e7e8;fill-opacity:1;stroke-width:0.97181386"
       id="path948"
       d="M 76.486343,61.386443 H 47.870357 c -0.283327,0 -0.472212,-0.2 -0.472212,-0.5 0,-0.3 0.188885,-0.5 0.472212,-0.5 h 28.615986 c 0.283326,0 0.472211,0.2 0.472211,0.5 0,0.3 -0.188885,0.5 -0.472211,0.5 z" />
    <path
       style="fill:#e6e7e8;fill-opacity:1;stroke-width:0.97181386"
       id="path950"
       d="M 76.486343,67.386443 H 47.870357 c -0.283327,0 -0.472212,-0.2 -0.472212,-0.5 0,-0.3 0.188885,-0.5 0.472212,-0.5 h 28.615986 c 0.283326,0 0.472211,0.2 0.472211,0.5 0,0.3 -0.188885,0.5 -0.472211,0.5 z" />
    <path
       style="fill:#d6d8d9;fill-opacity:1;stroke-width:0.99803245"
       id="path952"
       d="M 42.865582,62 H 22.745001 c -0.199214,0 -0.332023,-0.3 -0.332023,-0.75 0,-0.45 0.132809,-0.75 0.332023,-0.75 h 20.120581 c 0.199214,0 0.332023,0.3 0.332023,0.75 0,0.45 -0.132809,0.75 -0.332023,0.75 z" />
    <path
       style="fill:#e6e7e8;fill-opacity:1;stroke-width:0.88761204"
       id="path954"
       d="M 71.664079,64.386443 H 47.792074 c -0.236357,0 -0.393929,-0.2 -0.393929,-0.5 0,-0.3 0.157572,-0.5 0.393929,-0.5 h 23.872005 c 0.236358,0 0.393929,0.2 0.393929,0.5 0,0.3 -0.157571,0.5 -0.393929,0.5 z" />
  </g>
</svg>
