<?xml version="1.0" encoding="UTF-8" standalone="no"?>
<svg
   xmlns:dc="http://purl.org/dc/elements/1.1/"
   xmlns:cc="http://creativecommons.org/ns#"
   xmlns:rdf="http://www.w3.org/1999/02/22-rdf-syntax-ns#"
   xmlns:svg="http://www.w3.org/2000/svg"
   xmlns="http://www.w3.org/2000/svg"
   id="Layer_1"
   viewBox="0 0 100 70"
   version="1.1">
  <metadata
     id="metadata15">
    <rdf:RDF>
      <cc:Work
         rdf:about="">
        <dc:format>image/svg+xml</dc:format>
        <dc:type
           rdf:resource="http://purl.org/dc/dcmitype/StillImage" />
        <dc:title></dc:title>
      </cc:Work>
    </rdf:RDF>
  </metadata>
  <defs
     id="defs13" />
  <style
     id="style2">.st2{fill:#e6e7e8}</style>
  <path
     d="M13 73.5c-1.4 0-2.5-1.1-2.5-2.5V13c0-1.4 1.1-2.5 2.5-2.5h74c1.4 0 2.5 1.1 2.5 2.5v58c0 1.4-1.1 2.5-2.5 2.5H13z"
     fill="#fff"
     id="path4" />
  <path
     d="M87 11c1.1 0 2 .9 2 2v58c0 1.1-.9 2-2 2H13c-1.1 0-2-.9-2-2V13c0-1.1.9-2 2-2h74m0-1H13c-1.7 0-3 1.3-3 3v58c0 1.7 1.3 3 3 3h74c1.6 0 3-1.3 3-3V13c0-1.7-1.4-3-3-3z"
     fill="#565d66"
     id="path6" />
  <path
     d="m 70.908945,59.85249 h -41.81789 c -0.228098,0 -0.380164,-0.234771 -0.380164,-0.586928 V 34.614517 c 0,-0.352158 0.152066,-0.586929 0.380164,-0.586929 h 41.81789 c 0.228098,0 0.380164,0.234771 0.380164,0.586929 v 24.651045 c 0,0.352157 -0.152066,0.586928 -0.380164,0.586928 z"
     id="path875"
     style="fill:#e6e7e8;fill-opacity:1;stroke-width:0.9447301" />
  <path
     d="m 66.075197,71.711009 h -8.29441 c -0.121977,0 -0.203295,-0.133861 -0.203295,-0.334654 v -8.031692 c 0,-0.200793 0.08132,-0.334654 0.203295,-0.334654 h 8.29441 c 0.121977,0 0.203295,0.133861 0.203295,0.334654 v 8.031692 c 0,0.200793 -0.08132,0.334654 -0.203295,0.334654 z"
     id="path869"
     style="fill:#e6e7e8;fill-opacity:1;stroke-width:0.52166367" />
  <path
     d="M 77.59211,16 H 52.874016 c -0.244734,0 -0.40789,-0.2 -0.40789,-0.5 0,-0.3 0.163156,-0.5 0.40789,-0.5 H 77.59211 C 77.836844,15 78,15.2 78,15.5 78,15.8 77.836844,16 77.59211,16 Z"
     id="path867"
     style="fill:#e6e7e8;fill-opacity:1;stroke-width:0.90320474" />
  <path
     d="M 77.59211,22 H 52.874016 c -0.244734,0 -0.40789,-0.2 -0.40789,-0.5 0,-0.3 0.163156,-0.5 0.40789,-0.5 H 77.59211 C 77.836844,21 78,21.2 78,21.5 78,21.8 77.836844,22 77.59211,22 Z"
     id="path863"
     style="fill:#e6e7e8;fill-opacity:1;stroke-width:0.90320474" />
  <path
     d="M 77.59211,25 H 52.874016 c -0.244734,0 -0.40789,-0.2 -0.40789,-0.5 0,-0.3 0.163156,-0.5 0.40789,-0.5 H 77.59211 C 77.836844,24 78,24.2 78,24.5 78,24.8 77.836844,25 77.59211,25 Z"
     id="path861"
     style="fill:#e6e7e8;fill-opacity:1;stroke-width:0.90320474" />
  <path
     d="M 77.59211,28 H 52.874016 c -0.244734,0 -0.40789,-0.2 -0.40789,-0.5 0,-0.3 0.163156,-0.5 0.40789,-0.5 H 77.59211 C 77.836844,27 78,27.2 78,27.5 78,27.8 77.836844,28 77.59211,28 Z"
     id="path859"
     style="fill:#e6e7e8;fill-opacity:1;stroke-width:0.90320474" />
  <path
     style="fill:#e6e7e8;fill-opacity:1;stroke-width:0.52166367"
     id="path883"
     d="m 77.796701,71.711009 h -8.29441 c -0.121977,0 -0.203295,-0.133861 -0.203295,-0.334654 v -8.031692 c 0,-0.200793 0.08132,-0.334654 0.203295,-0.334654 h 8.29441 c 0.121977,0 0.203295,0.133861 0.203295,0.334654 v 8.031692 c 0,0.200793 -0.08132,0.334654 -0.203295,0.334654 z" />
  <path
     style="fill:#e6e7e8;fill-opacity:1;stroke-width:0.52166367"
     id="path885"
     d="m 54.353693,71.711009 h -8.29441 c -0.121977,0 -0.203295,-0.133861 -0.203295,-0.334654 v -8.031692 c 0,-0.200793 0.08132,-0.334654 0.203295,-0.334654 h 8.29441 c 0.121977,0 0.203295,0.133861 0.203295,0.334654 v 8.031692 c 0,0.200793 -0.08132,0.334654 -0.203295,0.334654 z" />
  <path
     d="m 42.632188,71.711009 h -8.29441 c -0.121977,0 -0.203295,-0.133861 -0.203295,-0.334654 v -8.031692 c 0,-0.200793 0.08132,-0.334654 0.203295,-0.334654 h 8.29441 c 0.121977,0 0.203295,0.133861 0.203295,0.334654 v 8.031692 c 0,0.200793 -0.08132,0.334654 -0.203295,0.334654 z"
     id="path887"
     style="fill:#e6e7e8;fill-opacity:1;stroke-width:0.52166367" />
  <path
     d="m 30.910683,71.711009 h -8.29441 c -0.121977,0 -0.203295,-0.133861 -0.203295,-0.334654 v -8.031692 c 0,-0.200793 0.08132,-0.334654 0.203295,-0.334654 h 8.29441 c 0.121977,0 0.203295,0.133861 0.203295,0.334654 v 8.031692 c 0,0.200793 -0.08132,0.334654 -0.203295,0.334654 z"
     id="path891"
     style="fill:#e6e7e8;fill-opacity:1;stroke-width:0.52166367" />
  <path
     style="fill:#e6e7e8;fill-opacity:1;stroke-width:0.90320474"
     id="path893"
     d="M 77.59211,16 H 52.874016 c -0.244734,0 -0.40789,-0.2 -0.40789,-0.5 0,-0.3 0.163156,-0.5 0.40789,-0.5 H 77.59211 C 77.836844,15 78,15.2 78,15.5 78,15.8 77.836844,16 77.59211,16 Z" />
  <path
     style="fill:#e6e7e8;fill-opacity:1;stroke-width:0.83488393"
     id="path895"
     d="m 73.934682,19 h -21.12004 c -0.20911,0 -0.348516,-0.2 -0.348516,-0.5 0,-0.3 0.139406,-0.5 0.348516,-0.5 h 21.12004 c 0.20911,0 0.348516,0.2 0.348516,0.5 0,0.3 -0.139406,0.5 -0.348516,0.5 z" />
  <path
     style="fill:#e6e7e8;fill-opacity:1;stroke-width:0.90320474"
     id="path897"
     d="M 77.59211,22 H 52.874016 c -0.244734,0 -0.40789,-0.2 -0.40789,-0.5 0,-0.3 0.163156,-0.5 0.40789,-0.5 H 77.59211 C 77.836844,21 78,21.2 78,21.5 78,21.8 77.836844,22 77.59211,22 Z" />
  <path
     style="fill:#e6e7e8;fill-opacity:1;stroke-width:0.90320474"
     id="path899"
     d="M 77.59211,25 H 52.874016 c -0.244734,0 -0.40789,-0.2 -0.40789,-0.5 0,-0.3 0.163156,-0.5 0.40789,-0.5 H 77.59211 C 77.836844,24 78,24.2 78,24.5 78,24.8 77.836844,25 77.59211,25 Z" />
  <path
     style="fill:#e6e7e8;fill-opacity:1;stroke-width:0.90320474"
     id="path901"
     d="M 77.59211,28 H 52.874016 c -0.244734,0 -0.40789,-0.2 -0.40789,-0.5 0,-0.3 0.163156,-0.5 0.40789,-0.5 H 77.59211 C 77.836844,27 78,27.2 78,27.5 78,27.8 77.836844,28 77.59211,28 Z" />
  <path
     d="m 73.934682,30.967555 h -21.12004 c -0.20911,0 -0.348516,-0.2 -0.348516,-0.5 0,-0.3 0.139406,-0.5 0.348516,-0.5 h 21.12004 c 0.20911,0 0.348516,0.2 0.348516,0.5 0,0.3 -0.139406,0.5 -0.348516,0.5 z"
     id="path911"
     style="fill:#e6e7e8;fill-opacity:1;stroke-width:0.83488393" />
  <path
     style="fill:#e6e7e8;fill-opacity:1;stroke-width:0.83488393"
     id="path921"
     d="m 73.934682,28 h -21.12004 c -0.20911,0 -0.348516,-0.2 -0.348516,-0.5 0,-0.3 0.139406,-0.5 0.348516,-0.5 h 21.12004 c 0.20911,0 0.348516,0.2 0.348516,0.5 0,0.3 -0.139406,0.5 -0.348516,0.5 z" />
  <path
     style="fill:#e6e7e8;fill-opacity:1;stroke-width:0.90320474"
     id="path941"
     d="M 47.538962,19 H 22.820868 c -0.244734,0 -0.40789,-0.2 -0.40789,-0.5 0,-0.3 0.163156,-0.5 0.40789,-0.5 h 24.718094 c 0.244734,0 0.40789,0.2 0.40789,0.5 0,0.3 -0.163156,0.5 -0.40789,0.5 z" />
  <path
     style="fill:#e6e7e8;fill-opacity:1;stroke-width:0.90320474"
     id="path945"
     d="M 47.538962,25 H 22.820868 c -0.244734,0 -0.40789,-0.2 -0.40789,-0.5 0,-0.3 0.163156,-0.5 0.40789,-0.5 h 24.718094 c 0.244734,0 0.40789,0.2 0.40789,0.5 0,0.3 -0.163156,0.5 -0.40789,0.5 z" />
  <path
     style="fill:#e6e7e8;fill-opacity:1;stroke-width:0.90320474"
     id="path947"
     d="M 47.538962,28 H 22.820868 c -0.244734,0 -0.40789,-0.2 -0.40789,-0.5 0,-0.3 0.163156,-0.5 0.40789,-0.5 h 24.718094 c 0.244734,0 0.40789,0.2 0.40789,0.5 0,0.3 -0.163156,0.5 -0.40789,0.5 z" />
  <path
     d="M 47.538962,19 H 22.820868 c -0.244734,0 -0.40789,-0.2 -0.40789,-0.5 0,-0.3 0.163156,-0.5 0.40789,-0.5 h 24.718094 c 0.244734,0 0.40789,0.2 0.40789,0.5 0,0.3 -0.163156,0.5 -0.40789,0.5 z"
     id="path951"
     style="fill:#e6e7e8;fill-opacity:1;stroke-width:0.90320474" />
  <path
     d="M 47.538962,25 H 22.820868 c -0.244734,0 -0.40789,-0.2 -0.40789,-0.5 0,-0.3 0.163156,-0.5 0.40789,-0.5 h 24.718094 c 0.244734,0 0.40789,0.2 0.40789,0.5 0,0.3 -0.163156,0.5 -0.40789,0.5 z"
     id="path955"
     style="fill:#e6e7e8;fill-opacity:1;stroke-width:0.90320474" />
  <path
     d="M 47.538962,30.967555 H 22.820868 c -0.244734,0 -0.40789,-0.2 -0.40789,-0.5 0,-0.3 0.163156,-0.5 0.40789,-0.5 h 24.718094 c 0.244734,0 0.40789,0.2 0.40789,0.5 0,0.3 -0.163156,0.5 -0.40789,0.5 z"
     id="path961"
     style="fill:#e6e7e8;fill-opacity:1;stroke-width:0.90320474" />
  <path
     style="fill:#e6e7e8;fill-opacity:1;stroke-width:0.90320474"
     id="path963"
     d="M 47.538962,30.967555 H 22.820868 c -0.244734,0 -0.40789,-0.2 -0.40789,-0.5 0,-0.3 0.163156,-0.5 0.40789,-0.5 h 24.718094 c 0.244734,0 0.40789,0.2 0.40789,0.5 0,0.3 -0.163156,0.5 -0.40789,0.5 z" />
  <path
     d="m 43.373558,16 h -20.62031 c -0.204162,0 -0.34027,-0.2 -0.34027,-0.5 0,-0.3 0.136108,-0.5 0.34027,-0.5 h 20.62031 c 0.204162,0 0.34027,0.2 0.34027,0.5 0,0.3 -0.136108,0.5 -0.34027,0.5 z"
     id="path965"
     style="fill:#e6e7e8;fill-opacity:1;stroke-width:0.82494754" />
  <path
     d="m 43.373558,22 h -20.62031 c -0.204162,0 -0.34027,-0.2 -0.34027,-0.5 0,-0.3 0.136108,-0.5 0.34027,-0.5 h 20.62031 c 0.204162,0 0.34027,0.2 0.34027,0.5 0,0.3 -0.136108,0.5 -0.34027,0.5 z"
     id="path969"
     style="fill:#e6e7e8;fill-opacity:1;stroke-width:0.82494754" />
  <path
     style="fill:#e6e7e8;fill-opacity:1;stroke-width:0.82494754"
     id="path983"
     d="m 43.373558,28 h -20.62031 c -0.204162,0 -0.34027,-0.2 -0.34027,-0.5 0,-0.3 0.136108,-0.5 0.34027,-0.5 h 20.62031 c 0.204162,0 0.34027,0.2 0.34027,0.5 0,0.3 -0.136108,0.5 -0.34027,0.5 z" />
  <path
     style="fill:#e6e7e8;fill-opacity:1;stroke-width:0.90320474"
     id="path987"
     d="M 47.538962,30.967555 H 22.820868 c -0.244734,0 -0.40789,-0.2 -0.40789,-0.5 0,-0.3 0.163156,-0.5 0.40789,-0.5 h 24.718094 c 0.244734,0 0.40789,0.2 0.40789,0.5 0,0.3 -0.163156,0.5 -0.40789,0.5 z" />
</svg>
