<?xml version="1.0" encoding="UTF-8" standalone="no"?>
<svg
   version="1.1"
   id="Layer_1"
   x="0"
   y="0"
   viewBox="0 0 100 70"
   xml:space="preserve"
   sodipodi:docname="header-simple.svg"
   inkscape:version="1.3 (0e150ed6c4, 2023-07-21)"
   xmlns:inkscape="http://www.inkscape.org/namespaces/inkscape"
   xmlns:sodipodi="http://sodipodi.sourceforge.net/DTD/sodipodi-0.dtd"
   xmlns:xlink="http://www.w3.org/1999/xlink"
   xmlns="http://www.w3.org/2000/svg"
   xmlns:svg="http://www.w3.org/2000/svg"><defs
     id="defs6"><linearGradient
       id="linearGradient6"
       inkscape:collect="always"><stop
         style="stop-color:#c3c7ca;stop-opacity:1;"
         offset="0"
         id="stop6" /><stop
         style="stop-color:#c3c7ca;stop-opacity:0;"
         offset="1"
         id="stop7" /></linearGradient><linearGradient
       inkscape:collect="always"
       xlink:href="#linearGradient6"
       id="linearGradient7"
       x1="23.964462"
       y1="17.845284"
       x2="23.964462"
       y2="39.203964"
       gradientUnits="userSpaceOnUse" /></defs><sodipodi:namedview
     id="namedview6"
     pagecolor="#ffffff"
     bordercolor="#666666"
     borderopacity="1.0"
     inkscape:showpageshadow="2"
     inkscape:pageopacity="0.0"
     inkscape:pagecheckerboard="0"
     inkscape:deskcolor="#d1d1d1"
     inkscape:zoom="8.7075149"
     inkscape:cx="33.419409"
     inkscape:cy="31.352229"
     inkscape:window-width="2560"
     inkscape:window-height="1044"
     inkscape:window-x="1366"
     inkscape:window-y="0"
     inkscape:window-maximized="1"
     inkscape:current-layer="Layer_1" /><style
     id="style1">.st0{fill:#fff}</style><path
     class="st0"
     d="M13 73.5c-1.4 0-2.5-1.1-2.5-2.5V13c0-1.4 1.1-2.5 2.5-2.5h74c1.4 0 2.5 1.1 2.5 2.5v58c0 1.4-1.1 2.5-2.5 2.5H13z"
     id="path1" /><path
     d="M89 44.5H11V13.7c0-1.5.9-2.7 2-2.7h74c1.1 0 2 1.2 2 2.7v30.8z"
     fill="#c3c7ca"
     id="path2"
     style="fill-opacity:1;fill:url(#linearGradient7)" /><path
     d="M87 11c1.1 0 2 .9 2 2v58c0 1.1-.9 2-2 2H13c-1.1 0-2-.9-2-2V13c0-1.1.9-2 2-2h74m0-1H13c-1.7 0-3 1.3-3 3v58c0 1.7 1.3 3 3 3h74c1.6 0 3-1.3 3-3V13c0-1.7-1.4-3-3-3z"
     fill="#565d66"
     id="path3" /><path
     d="M 42,28.3 H 31.5 c -0.6,0 -1,-0.4 -1,-1 0,-0.5 0.4,-1 1,-1 H 42 c 0.6,0 1,0.5 1,1 0,0.5 -0.4,1 -1,1 z"
     id="path8"
     style="fill:#ffffff" /><path
     d="m 67.187402,28.3 h -20.9 c -0.6,0 -1,-0.4 -1,-1 0,-0.5 0.4,-1 1,-1 h 20.9 c 0.5,0 1,0.5 1,1 0,0.5 -0.4,1 -1,1 z"
     id="path7"
     style="fill:#ffffff" /><path
     d="m 52.5,24.1 h -21 c -0.5,0 -1,-0.4 -1,-1 0,-0.5 0.4,-1 1,-1 h 20.9 c 0.5,0 1,0.5 1,1 0.1,0.5 -0.4,1 -0.9,1 z"
     id="path5"
     style="fill:#ffffff" /><circle
     class="st0"
     cx="62"
     cy="38.400002"
     r="1"
     id="circle5"
     style="fill:#e6e7e8;fill-opacity:1" /><path
     style="fill:#e6e7e8;fill-opacity:1"
     d="m 84.5,38.9 h -4 c -0.3,0 -0.5,-0.2 -0.5,-0.5 0,-0.3 0.2,-0.5 0.5,-0.5 h 4 c 0.3,0 0.5,0.2 0.5,0.5 0,0.3 -0.2,0.5 -0.5,0.5 z"
     id="path13" /><path
     style="fill:#e6e7e8;fill-opacity:1"
     d="m 74.5,38.9 h -4 c -0.3,0 -0.5,-0.2 -0.5,-0.5 0,-0.3 0.2,-0.5 0.5,-0.5 h 4 c 0.3,0 0.5,0.2 0.5,0.5 0,0.3 -0.2,0.5 -0.5,0.5 z"
     id="path12" /><path
     style="fill:#e6e7e8;fill-opacity:1"
     d="m 68.5,38.9 h -4 c -0.3,0 -0.5,-0.2 -0.5,-0.5 0,-0.3 0.2,-0.5 0.5,-0.5 h 4 c 0.3,0 0.5,0.2 0.5,0.5 0,0.3 -0.2,0.5 -0.5,0.5 z"
     id="path6" /><rect
     style="fill:#ffffff;stroke-width:2.89134;stroke-miterlimit:3.7;fill-opacity:1"
     id="rect7"
     width="12.134384"
     height="12.134384"
     x="14.081238"
     y="18.21216"
     rx="0.71406108"
     ry="0.71406108" /><circle
     class="st0"
     cx="38"
     cy="38.400002"
     r="1"
     id="circle8"
     style="fill:#e6e7e8;fill-opacity:1" /><path
     style="fill:#e6e7e8;fill-opacity:1"
     d="m 56.5,38.9 h -4 c -0.3,0 -0.5,-0.2 -0.5,-0.5 0,-0.3 0.2,-0.5 0.5,-0.5 h 4 c 0.3,0 0.5,0.2 0.5,0.5 0,0.3 -0.2,0.5 -0.5,0.5 z"
     id="path11" /><path
     style="fill:#e6e7e8;fill-opacity:1"
     d="m 50.5,38.9 h -4 c -0.3,0 -0.5,-0.2 -0.5,-0.5 0,-0.3 0.2,-0.5 0.5,-0.5 h 4 c 0.3,0 0.5,0.2 0.5,0.5 0,0.3 -0.2,0.5 -0.5,0.5 z"
     id="path10" /><path
     style="fill:#e6e7e8;fill-opacity:1"
     d="m 44.5,38.9 h -4 c -0.3,0 -0.5,-0.2 -0.5,-0.5 0,-0.3 0.2,-0.5 0.5,-0.5 h 4 c 0.3,0 0.5,0.2 0.5,0.5 0,0.3 -0.2,0.5 -0.5,0.5 z"
     id="path9" /><rect
     style="fill:#e6e7e8;fill-opacity:1;stroke-width:2.89133;stroke-miterlimit:3.7"
     id="rect14"
     width="15.734556"
     height="0.97756892"
     x="14.081238"
     y="37.926273"
     rx="0.52100879"
     ry="0.48878446" /><rect
     style="fill:#e6e7e8;fill-opacity:1;stroke-width:2.89133;stroke-miterlimit:3.7"
     id="rect14-3"
     width="16.299561"
     height="29.9324"
     x="14.098561"
     y="43.062675"
     rx="0"
     ry="0" /><g
     id="g18"
     transform="matrix(1.0528843,0,0,1,-1.0345835,0)"
     style="stroke-width:0.974562"><rect
       style="fill:#e6e7e8;fill-opacity:1;stroke-width:2.81779;stroke-miterlimit:3.7"
       id="rect14-3-6-7"
       width="10.519863"
       height="13.545873"
       x="45.997967"
       y="43.402985"
       rx="0"
       ry="0" /><rect
       style="fill:#e6e7e8;fill-opacity:1;stroke-width:2.81779;stroke-miterlimit:3.7"
       id="rect14-3-6-7-56-1"
       width="10.519863"
       height="13.545873"
       x="45.997967"
       y="59.242615"
       rx="0"
       ry="0" /></g><g
     id="g16"
     transform="matrix(1.0528843,0,0,1,-1.4943595,0)"
     style="stroke-width:0.974562"><rect
       style="fill:#e6e7e8;fill-opacity:1;stroke-width:2.81779;stroke-miterlimit:3.7"
       id="rect14-3-6-7-5-3"
       width="10.519863"
       height="13.545873"
       x="72.491707"
       y="43.402985"
       rx="0"
       ry="0" /><rect
       style="fill:#e6e7e8;fill-opacity:1;stroke-width:2.81779;stroke-miterlimit:3.7"
       id="rect14-3-6-7-5-3-9-2"
       width="10.519863"
       height="13.545873"
       x="72.491707"
       y="59.242615"
       rx="0"
       ry="0" /></g><rect
     style="fill:#e6e7e8;fill-opacity:1;stroke-width:2.89133;stroke-miterlimit:3.7"
     id="rect14-3-6"
     width="11.076198"
     height="10.04931"
     x="33.678417"
     y="43.402985"
     rx="0"
     ry="0" /><rect
     style="fill:#e6e7e8;fill-opacity:1;stroke-width:2.89133;stroke-miterlimit:3.7"
     id="rect14-3-6-7-56"
     width="11.076198"
     height="13.545873"
     x="33.678417"
     y="55.368607"
     rx="0"
     ry="0" /><rect
     style="fill:#e6e7e8;fill-opacity:1;stroke-width:2.89133;stroke-miterlimit:3.7"
     id="rect14-3-6-7-56-1-7"
     width="11.076198"
     height="2.1199591"
     x="33.678417"
     y="70.830795"
     rx="0"
     ry="0" /><rect
     style="fill:#e6e7e8;fill-opacity:1;stroke-width:2.89133;stroke-miterlimit:3.7"
     id="rect14-3-6-7-5"
     width="11.076198"
     height="10.04931"
     x="61.11348"
     y="43.402985"
     rx="0"
     ry="0" /><rect
     style="fill:#e6e7e8;fill-opacity:1;stroke-width:2.89133;stroke-miterlimit:3.7"
     id="rect14-3-6-7-5-3-9"
     width="11.076198"
     height="13.545873"
     x="61.11348"
     y="55.368607"
     rx="0"
     ry="0" /><rect
     style="fill:#e6e7e8;fill-opacity:1;stroke-width:2.89133;stroke-miterlimit:3.7"
     id="rect14-3-6-7-5-3-9-2-0"
     width="11.076198"
     height="2.1199591"
     x="61.11348"
     y="70.830795"
     rx="0"
     ry="0" /></svg>
