<?xml version="1.0" encoding="UTF-8" standalone="no"?>
<svg
   version="1.1"
   id="Layer_1"
   x="0"
   y="0"
   viewBox="0 0 100 70"
   xml:space="preserve"
   xmlns="http://www.w3.org/2000/svg"
   xmlns:svg="http://www.w3.org/2000/svg"><defs
     id="defs6" /><style
     id="style1">.st0{fill:#fff}</style><path
     class="st0"
     d="M13 73.5c-1.4 0-2.5-1.1-2.5-2.5V13c0-1.4 1.1-2.5 2.5-2.5h74c1.4 0 2.5 1.1 2.5 2.5v58c0 1.4-1.1 2.5-2.5 2.5H13z"
     id="path1" /><path
     d="M87 11c1.1 0 2 .9 2 2v58c0 1.1-.9 2-2 2H13c-1.1 0-2-.9-2-2V13c0-1.1.9-2 2-2h74m0-1H13c-1.7 0-3 1.3-3 3v58c0 1.7 1.3 3 3 3h74c1.6 0 3-1.3 3-3V13c0-1.7-1.4-3-3-3z"
     fill="#565d66"
     id="path3" /><rect
     style="fill:#e6e7e8;fill-opacity:1;stroke-width:2.89132;stroke-miterlimit:3.7"
     id="rect14-3"
     width="16.299561"
     height="31.984892"
     x="14.098561"
     y="41.062675"
     rx="0"
     ry="0" /><g
     id="g18"
     transform="matrix(1.0528843,0,0,1,-1.0345835,-2)"
     style="stroke-width:0.974562"><rect
       style="fill:#e6e7e8;fill-opacity:1;stroke-width:2.81779;stroke-miterlimit:3.7"
       id="rect14-3-6-7"
       width="10.519863"
       height="13.545873"
       x="45.997967"
       y="43.402985"
       rx="0"
       ry="0" /><rect
       style="fill:#e6e7e8;fill-opacity:1;stroke-width:2.81779;stroke-miterlimit:3.7"
       id="rect14-3-6-7-56-1"
       width="10.519863"
       height="14.551964"
       x="45.997967"
       y="60.352089"
       rx="0"
       ry="0" /></g><g
     id="g16"
     transform="matrix(1.0528843,0,0,1,-1.4943595,-2)"
     style="stroke-width:0.974562"><rect
       style="fill:#e6e7e8;fill-opacity:1;stroke-width:2.81779;stroke-miterlimit:3.7"
       id="rect14-3-6-7-5-3"
       width="10.519863"
       height="13.545873"
       x="72.491707"
       y="43.402985"
       rx="0"
       ry="0" /><rect
       style="fill:#e6e7e8;fill-opacity:1;stroke-width:2.81779;stroke-miterlimit:3.7"
       id="rect14-3-6-7-5-3-9-2"
       width="10.519863"
       height="14.551964"
       x="72.491707"
       y="60.352089"
       rx="0"
       ry="0" /></g><rect
     style="fill:#e6e7e8;fill-opacity:1;stroke-width:2.89133;stroke-miterlimit:3.7"
     id="rect14-3-6"
     width="11.076198"
     height="10.04931"
     x="33.678417"
     y="41.402985"
     rx="0"
     ry="0" /><rect
     style="fill:#e6e7e8;fill-opacity:1;stroke-width:2.89133;stroke-miterlimit:3.7"
     id="rect14-3-6-7-56"
     width="11.076198"
     height="13.545873"
     x="33.678417"
     y="53.368607"
     rx="0"
     ry="0" /><rect
     style="fill:#e6e7e8;fill-opacity:1;stroke-width:2.89133;stroke-miterlimit:3.7"
     id="rect14-3-6-7-56-1-7"
     width="11.076198"
     height="4.2889371"
     x="33.678417"
     y="68.711266"
     rx="0"
     ry="0" /><rect
     style="fill:#e6e7e8;fill-opacity:1;stroke-width:2.89133;stroke-miterlimit:3.7"
     id="rect14-3-6-7-5"
     width="11.076198"
     height="10.04931"
     x="61.11348"
     y="41.402985"
     rx="0"
     ry="0" /><rect
     style="fill:#e6e7e8;fill-opacity:1;stroke-width:2.89133;stroke-miterlimit:3.7"
     id="rect14-3-6-7-5-3-9"
     width="11.076198"
     height="13.545873"
     x="61.11348"
     y="53.368607"
     rx="0"
     ry="0" /><rect
     style="fill:#e6e7e8;fill-opacity:1;stroke-width:2.89133;stroke-miterlimit:3.7"
     id="rect14-3-6-7-5-3-9-2-0"
     width="11.076198"
     height="4.2889371"
     x="61.11348"
     y="68.711266"
     rx="0"
     ry="0" /><circle
     class="st0"
     cx="62.60569"
     cy="36.640182"
     r="1"
     id="circle5-3"
     style="fill:#e6e7e8;fill-opacity:1" /><path
     style="fill:#e6e7e8;fill-opacity:1"
     d="m 85.105689,37.140181 h -4 c -0.3,0 -0.5,-0.2 -0.5,-0.5 0,-0.3 0.2,-0.5 0.5,-0.5 h 4 c 0.3,0 0.5,0.2 0.5,0.5 0,0.3 -0.2,0.5 -0.5,0.5 z"
     id="path13-6" /><path
     style="fill:#e6e7e8;fill-opacity:1"
     d="m 75.105689,37.140181 h -4 c -0.3,0 -0.5,-0.2 -0.5,-0.5 0,-0.3 0.2,-0.5 0.5,-0.5 h 4 c 0.3,0 0.5,0.2 0.5,0.5 0,0.3 -0.2,0.5 -0.5,0.5 z"
     id="path12-7" /><path
     style="fill:#e6e7e8;fill-opacity:1"
     d="m 69.105689,37.140181 h -4 c -0.3,0 -0.5,-0.2 -0.5,-0.5 0,-0.3 0.2,-0.5 0.5,-0.5 h 4 c 0.3,0 0.5,0.2 0.5,0.5 0,0.3 -0.2,0.5 -0.5,0.5 z"
     id="path6-5" /><circle
     class="st0"
     cx="38.60569"
     cy="36.640182"
     r="1"
     id="circle8-3"
     style="fill:#e6e7e8;fill-opacity:1" /><path
     style="fill:#e6e7e8;fill-opacity:1"
     d="m 57.105689,37.140181 h -4 c -0.3,0 -0.5,-0.2 -0.5,-0.5 0,-0.3 0.2,-0.5 0.5,-0.5 h 4 c 0.3,0 0.5,0.2 0.5,0.5 0,0.3 -0.2,0.5 -0.5,0.5 z"
     id="path11-5" /><path
     style="fill:#e6e7e8;fill-opacity:1"
     d="m 51.105689,37.140181 h -3.999998 c -0.3,0 -0.5,-0.2 -0.5,-0.5 0,-0.3 0.2,-0.5 0.5,-0.5 h 3.999998 c 0.3,0 0.5,0.2 0.5,0.5 0,0.3 -0.2,0.5 -0.5,0.5 z"
     id="path10" /><path
     style="fill:#e6e7e8;fill-opacity:1"
     d="m 45.105691,37.140181 h -4 c -0.3,0 -0.5,-0.2 -0.5,-0.5 0,-0.3 0.2,-0.5 0.5,-0.5 h 4 c 0.3,0 0.5,0.2 0.5,0.5 0,0.3 -0.2,0.5 -0.5,0.5 z"
     id="path9-6" /><rect
     style="fill:#e6e7e8;fill-opacity:1;stroke-width:2.89133;stroke-miterlimit:3.7"
     id="rect14-2"
     width="15.734556"
     height="0.97756892"
     x="14.686929"
     y="36.166454"
     rx="0.52100879"
     ry="0.48878446" /><path
     id="rect1"
     style="fill:#c3c7ca;stroke-width:2.89134;stroke-miterlimit:3.7"
     d="M 13 11 C 11.900001 11 11 11.900001 11 13 L 11 32.585938 L 89 32.585938 L 89 13 C 89 11.900001 88.099999 11 87 11 L 13 11 z " /><path
     d="M 50,27.807403 H 39.5 c -0.6,0 -1,-0.4 -1,-1 0,-0.5 0.4,-1 1,-1 H 50 c 0.6,0 1,0.5 1,1 0,0.5 -0.4,1 -1,1 z"
     id="path8"
     style="fill:#ffffff;fill-opacity:1" /><path
     d="m 75.187402,27.807403 h -20.9 c -0.6,0 -1,-0.4 -1,-1 0,-0.5 0.4,-1 1,-1 h 20.9 c 0.5,0 1,0.5 1,1 0,0.5 -0.4,1 -1,1 z"
     id="path7"
     style="fill:#ffffff;fill-opacity:1" /><path
     d="m 60.5,23.607403 h -21 c -0.5,0 -1,-0.4 -1,-1 0,-0.5 0.4,-1 1,-1 h 20.9 c 0.5,0 1,0.5 1,1 0.1,0.5 -0.4,1 -0.9,1 z"
     id="path5"
     style="fill:#ffffff;fill-opacity:1" /><rect
     style="fill:#ffffff;fill-opacity:1;stroke-width:2.89134;stroke-miterlimit:3.7"
     id="rect7"
     width="12.134384"
     height="12.134384"
     x="22.081238"
     y="17.719563"
     rx="0.71406108"
     ry="0.71406108" /></svg>
