<?xml version="1.0" encoding="UTF-8" standalone="no"?>
<svg
   version="1.1"
   viewBox="0 0 100 70"
   id="Layer_1"
   sodipodi:docname="items-grid.svg"
   inkscape:version="1.1 (1:1.1+rc+202105240936+c4e8f9ed74)"
   xmlns:inkscape="http://www.inkscape.org/namespaces/inkscape"
   xmlns:sodipodi="http://sodipodi.sourceforge.net/DTD/sodipodi-0.dtd"
   xmlns="http://www.w3.org/2000/svg"
   xmlns:svg="http://www.w3.org/2000/svg"
   xmlns:rdf="http://www.w3.org/1999/02/22-rdf-syntax-ns#"
   xmlns:cc="http://creativecommons.org/ns#"
   xmlns:dc="http://purl.org/dc/elements/1.1/">
  <sodipodi:namedview
     id="namedview30"
     pagecolor="#ffffff"
     bordercolor="#666666"
     borderopacity="1.0"
     inkscape:pageshadow="2"
     inkscape:pageopacity="0.0"
     inkscape:pagecheckerboard="0"
     showgrid="false"
     inkscape:zoom="7.5857143"
     inkscape:cx="43.370998"
     inkscape:cy="44.227872"
     inkscape:window-width="2560"
     inkscape:window-height="1044"
     inkscape:window-x="1366"
     inkscape:window-y="0"
     inkscape:window-maximized="1"
     inkscape:current-layer="Layer_1" />
  <metadata
     id="metadata15">
    <rdf:RDF>
      <cc:Work
         rdf:about="">
        <dc:format>image/svg+xml</dc:format>
        <dc:type
           rdf:resource="http://purl.org/dc/dcmitype/StillImage" />
      </cc:Work>
    </rdf:RDF>
  </metadata>
  <defs
     id="defs13" />
  <style
     id="style2">.st2{fill:#e6e7e8}</style>
  <path
     id="path4"
     fill="#fff"
     d="M13 73.5c-1.4 0-2.5-1.1-2.5-2.5V13c0-1.4 1.1-2.5 2.5-2.5h74c1.4 0 2.5 1.1 2.5 2.5v58c0 1.4-1.1 2.5-2.5 2.5H13z" />
  <path
     id="path6"
     fill="#565d66"
     d="M87 11c1.1 0 2 .9 2 2v58c0 1.1-.9 2-2 2H13c-1.1 0-2-.9-2-2V13c0-1.1.9-2 2-2h74m0-1H13c-1.7 0-3 1.3-3 3v58c0 1.7 1.3 3 3 3h74c1.6 0 3-1.3 3-3V13c0-1.7-1.4-3-3-3z" />
  <path
     style="fill:#e6e7e8;fill-opacity:1;stroke-width:0.383166"
     id="path891"
     d="m 23.641332,35.551675 h -2.980653 c -0.04383,0 -0.07305,-0.0481 -0.07305,-0.120259 v -2.886244 c 0,-0.07216 0.02922,-0.12026 0.07305,-0.12026 h 2.980653 c 0.04383,0 0.07306,0.0481 0.07306,0.12026 v 2.886244 c 0,0.07216 -0.02922,0.120259 -0.07306,0.120259 z" />
  <path
     style="fill:#e6e7e8;fill-opacity:1;stroke-width:1.44235"
     id="path935"
     d="M 38.592289,26.417141 H 20.617397 c -0.17797,0 -0.296616,-0.314782 -0.296616,-0.786955 0,-0.472173 0.118645,-0.786955 0.296616,-0.786955 H 38.59229 c 0.177969,0 0.296616,0.314782 0.296616,0.786955 0,0.472173 -0.118647,0.786955 -0.296617,0.786955 z" />
  <path
     style="fill:#e6e7e8;fill-opacity:1;stroke-width:0.824948"
     id="path937"
     d="m 42.327382,29.646857 h -21.64935 c -0.214351,0 -0.357251,-0.209981 -0.357251,-0.524952 0,-0.314971 0.1429,-0.524952 0.357251,-0.524952 h 21.64935 c 0.21435,0 0.35725,0.209981 0.35725,0.524952 0,0.314971 -0.142901,0.524952 -0.35725,0.524952 z" />
  <path
     id="rect6857"
     style="fill:#e6e7e8;stroke-width:0.377953;stroke-linecap:round;stroke-linejoin:round"
     d="m 20.896171,47.19261 h 8.841097 c 0.318766,0 0.575389,0.256623 0.575389,0.575389 v 1.347191 c 0,0.318765 -0.256623,0.575389 -0.575389,0.575389 h -8.841097 c -0.318766,0 -0.575389,-0.256624 -0.575389,-0.575389 v -1.347191 c 0,-0.318766 0.256623,-0.575389 0.575389,-0.575389 z" />
  <path
     style="fill:#e6e7e8;fill-opacity:1;stroke-width:1.44235"
     id="path7131"
     d="M 38.592289,60.418457 H 20.617397 c -0.17797,0 -0.296616,-0.314782 -0.296616,-0.786955 0,-0.472173 0.118645,-0.786955 0.296616,-0.786955 H 38.59229 c 0.177969,0 0.296616,0.314782 0.296616,0.786955 0,0.472173 -0.118647,0.786955 -0.296617,0.786955 z" />
  <path
     style="fill:#e6e7e8;fill-opacity:1;stroke-width:0.824948"
     id="path7133"
     d="m 42.327382,63.648173 h -21.64935 c -0.214351,0 -0.357251,-0.209981 -0.357251,-0.524952 0,-0.314971 0.1429,-0.524952 0.357251,-0.524952 h 21.64935 c 0.21435,0 0.35725,0.209981 0.35725,0.524952 0,0.314971 -0.142901,0.524952 -0.35725,0.524952 z" />
  <path
     style="fill:#e6e7e8;fill-opacity:1;stroke-width:0.824946"
     id="path867"
     d="M 37.286639,34.27645 H 25.087672 c -0.120783,0 -0.201304,-0.154416 -0.201304,-0.386041 0,-0.231624 0.08052,-0.386041 0.201304,-0.386041 h 12.198967 c 0.120782,0 0.201304,0.154417 0.201304,0.386041 0,0.231625 -0.08053,0.386041 -0.201304,0.386041 z" />
  <path
     style="fill:#e6e7e8;fill-opacity:1;stroke-width:0.383166"
     id="path870"
     d="m 23.641332,40.007877 h -2.980653 c -0.04383,0 -0.07305,-0.0481 -0.07305,-0.120259 v -2.886244 c 0,-0.07216 0.02922,-0.12026 0.07305,-0.12026 h 2.980653 c 0.04383,0 0.07306,0.0481 0.07306,0.12026 v 2.886244 c 0,0.07216 -0.02922,0.120259 -0.07306,0.120259 z" />
  <path
     style="fill:#e6e7e8;fill-opacity:1;stroke-width:0.824946"
     id="path872"
     d="M 35.26655,38.732652 H 25.054877 c -0.101106,0 -0.168509,-0.154416 -0.168509,-0.386041 0,-0.231624 0.0674,-0.386041 0.168509,-0.386041 H 35.26655 c 0.101106,0 0.16851,0.154417 0.16851,0.386041 0,0.231625 -0.0674,0.386041 -0.16851,0.386041 z" />
  <path
     style="fill:#e6e7e8;fill-opacity:1;stroke-width:0.383166"
     id="path1274"
     d="m 44.288171,35.551675 h -2.980653 c -0.04383,0 -0.07305,-0.0481 -0.07305,-0.120259 v -2.886244 c 0,-0.07216 0.02922,-0.12026 0.07305,-0.12026 h 2.980653 c 0.04383,0 0.07306,0.0481 0.07306,0.12026 v 2.886244 c 0,0.07216 -0.02922,0.120259 -0.07306,0.120259 z" />
  <path
     style="fill:#e6e7e8;fill-opacity:1;stroke-width:0.824946"
     id="path1276"
     d="m 55.468817,34.27645 h -9.774318 c -0.09678,0 -0.161292,-0.154416 -0.161292,-0.386041 0,-0.231624 0.06452,-0.386041 0.161292,-0.386041 h 9.774318 c 0.09678,0 0.161292,0.154417 0.161292,0.386041 0,0.231625 -0.06452,0.386041 -0.161292,0.386041 z" />
  <path
     style="fill:#e6e7e8;fill-opacity:1;stroke-width:0.383166"
     id="path1278"
     d="m 44.288171,40.007877 h -2.980653 c -0.04383,0 -0.07305,-0.0481 -0.07305,-0.120259 v -2.886244 c 0,-0.07216 0.02922,-0.12026 0.07305,-0.12026 h 2.980653 c 0.04383,0 0.07306,0.0481 0.07306,0.12026 v 2.886244 c 0,0.07216 -0.02922,0.120259 -0.07306,0.120259 z" />
  <path
     style="fill:#e6e7e8;fill-opacity:1;stroke-width:0.824946"
     id="path1280"
     d="M 57.84248,38.732652 H 45.733033 c -0.119896,0 -0.199826,-0.154416 -0.199826,-0.386041 0,-0.231624 0.07993,-0.386041 0.199826,-0.386041 H 57.84248 c 0.119896,0 0.199827,0.154417 0.199827,0.386041 0,0.231625 -0.07993,0.386041 -0.199827,0.386041 z" />
  <path
     style="fill:#e6e7e8;fill-opacity:1;stroke-width:0.383166"
     id="path1370"
     d="m 65.641332,35.551675 h -2.980653 c -0.04383,0 -0.07305,-0.0481 -0.07305,-0.120259 v -2.886244 c 0,-0.07216 0.02922,-0.12026 0.07305,-0.12026 h 2.980653 c 0.04383,0 0.07306,0.0481 0.07306,0.12026 v 2.886244 c 0,0.07216 -0.02922,0.120259 -0.07306,0.120259 z" />
  <path
     style="fill:#e6e7e8;fill-opacity:1;stroke-width:0.824946"
     id="path1372"
     d="M 79.01378,34.27645 H 67.083243 c -0.118129,0 -0.196873,-0.154416 -0.196873,-0.386041 0,-0.231624 0.07875,-0.386041 0.196873,-0.386041 H 79.01378 c 0.11813,0 0.196873,0.154417 0.196873,0.386041 0,0.231625 -0.07875,0.386041 -0.196873,0.386041 z" />
  <path
     style="fill:#e6e7e8;fill-opacity:1;stroke-width:0.383166"
     id="path1374"
     d="m 65.641332,40.007877 h -2.980653 c -0.04383,0 -0.07305,-0.0481 -0.07305,-0.120259 v -2.886244 c 0,-0.07216 0.02922,-0.12026 0.07305,-0.12026 h 2.980653 c 0.04383,0 0.07306,0.0481 0.07306,0.12026 v 2.886244 c 0,0.07216 -0.02922,0.120259 -0.07306,0.120259 z" />
  <path
     style="fill:#e6e7e8;fill-opacity:1;stroke-width:0.824946"
     id="path1376"
     d="M 77.508019,38.732652 H 67.058798 c -0.103458,0 -0.17243,-0.154416 -0.17243,-0.386041 0,-0.231624 0.06897,-0.386041 0.17243,-0.386041 h 10.449221 c 0.103458,0 0.17243,0.154417 0.17243,0.386041 0,0.231625 -0.06897,0.386041 -0.17243,0.386041 z" />
  <path
     style="fill:#e6e7e8;fill-opacity:1;stroke-width:0.383166"
     id="path1378"
     d="m 23.641332,44.352662 h -2.980653 c -0.04383,0 -0.07305,-0.0481 -0.07305,-0.120259 v -2.886244 c 0,-0.07216 0.02922,-0.12026 0.07305,-0.12026 h 2.980653 c 0.04383,0 0.07306,0.0481 0.07306,0.12026 v 2.886244 c 0,0.07216 -0.02922,0.120259 -0.07306,0.120259 z" />
  <path
     style="fill:#e6e7e8;fill-opacity:1;stroke-width:0.824946"
     id="path1380"
     d="M 37.286639,43.077437 H 25.087672 c -0.120783,0 -0.201304,-0.154416 -0.201304,-0.386041 0,-0.231624 0.08052,-0.386041 0.201304,-0.386041 h 12.198967 c 0.120782,0 0.201304,0.154417 0.201304,0.386041 0,0.231625 -0.08053,0.386041 -0.201304,0.386041 z" />
  <path
     style="fill:#e6e7e8;fill-opacity:1;stroke-width:0.383166"
     id="path1382"
     d="m 44.288171,44.352662 h -2.980653 c -0.04383,0 -0.07305,-0.0481 -0.07305,-0.120259 v -2.886244 c 0,-0.07216 0.02922,-0.12026 0.07305,-0.12026 h 2.980653 c 0.04383,0 0.07306,0.0481 0.07306,0.12026 v 2.886244 c 0,0.07216 -0.02922,0.120259 -0.07306,0.120259 z" />
  <path
     style="fill:#e6e7e8;fill-opacity:1;stroke-width:0.824946"
     id="path1384"
     d="m 55.468817,43.077437 h -9.774318 c -0.09678,0 -0.161292,-0.154416 -0.161292,-0.386041 0,-0.231624 0.06452,-0.386041 0.161292,-0.386041 h 9.774318 c 0.09678,0 0.161292,0.154417 0.161292,0.386041 0,0.231625 -0.06452,0.386041 -0.161292,0.386041 z" />
  <path
     style="fill:#e6e7e8;fill-opacity:1;stroke-width:0.383166"
     id="path1386"
     d="m 65.641332,44.352662 h -2.980653 c -0.04383,0 -0.07305,-0.0481 -0.07305,-0.120259 v -2.886244 c 0,-0.07216 0.02922,-0.12026 0.07305,-0.12026 h 2.980653 c 0.04383,0 0.07306,0.0481 0.07306,0.12026 v 2.886244 c 0,0.07216 -0.02922,0.120259 -0.07306,0.120259 z" />
  <path
     style="fill:#e6e7e8;fill-opacity:1;stroke-width:0.824946"
     id="path1388"
     d="M 79.01378,43.077437 H 67.083243 c -0.118129,0 -0.196873,-0.154416 -0.196873,-0.386041 0,-0.231624 0.07875,-0.386041 0.196873,-0.386041 H 79.01378 c 0.11813,0 0.196873,0.154417 0.196873,0.386041 0,0.231625 -0.07875,0.386041 -0.196873,0.386041 z" />
  <path
     style="fill:#e6e7e8;fill-opacity:1;stroke-width:0.383166"
     id="path1470"
     d="m 23.641332,69.551675 h -2.980653 c -0.04383,0 -0.07305,-0.0481 -0.07305,-0.120259 v -2.886244 c 0,-0.07216 0.02922,-0.12026 0.07305,-0.12026 h 2.980653 c 0.04383,0 0.07306,0.0481 0.07306,0.12026 v 2.886244 c 0,0.07216 -0.02922,0.120259 -0.07306,0.120259 z" />
  <path
     style="fill:#e6e7e8;fill-opacity:1;stroke-width:0.824946"
     id="path1474"
     d="M 37.286639,68.27645 H 25.087672 c -0.120783,0 -0.201304,-0.154416 -0.201304,-0.386041 0,-0.231624 0.08052,-0.386041 0.201304,-0.386041 h 12.198967 c 0.120782,0 0.201304,0.154417 0.201304,0.386041 0,0.231625 -0.08053,0.386041 -0.201304,0.386041 z" />
  <path
     style="fill:#e6e7e8;fill-opacity:1;stroke-width:0.383166"
     id="path1476"
     d="m 23.641332,74.007877 h -2.980653 c -0.04383,0 -0.07305,-0.0481 -0.07305,-0.120259 v -2.886244 c 0,-0.07216 0.02922,-0.12026 0.07305,-0.12026 h 2.980653 c 0.04383,0 0.07306,0.0481 0.07306,0.12026 v 2.886244 c 0,0.07216 -0.02922,0.120259 -0.07306,0.120259 z" />
  <path
     style="fill:#e6e7e8;fill-opacity:1;stroke-width:0.824946"
     id="path1478"
     d="M 35.26655,72.732652 H 25.054877 c -0.101106,0 -0.168509,-0.154416 -0.168509,-0.386041 0,-0.231624 0.0674,-0.386041 0.168509,-0.386041 H 35.26655 c 0.101106,0 0.16851,0.154417 0.16851,0.386041 0,0.231625 -0.0674,0.386041 -0.16851,0.386041 z" />
  <path
     style="fill:#e6e7e8;fill-opacity:1;stroke-width:0.383166"
     id="path1480"
     d="m 44.288171,69.551675 h -2.980653 c -0.04383,0 -0.07305,-0.0481 -0.07305,-0.120259 v -2.886244 c 0,-0.07216 0.02922,-0.12026 0.07305,-0.12026 h 2.980653 c 0.04383,0 0.07306,0.0481 0.07306,0.12026 v 2.886244 c 0,0.07216 -0.02922,0.120259 -0.07306,0.120259 z" />
  <path
     style="fill:#e6e7e8;fill-opacity:1;stroke-width:0.824946"
     id="path1482"
     d="m 55.468817,68.27645 h -9.774318 c -0.09678,0 -0.161292,-0.154416 -0.161292,-0.386041 0,-0.231624 0.06452,-0.386041 0.161292,-0.386041 h 9.774318 c 0.09678,0 0.161292,0.154417 0.161292,0.386041 0,0.231625 -0.06452,0.386041 -0.161292,0.386041 z" />
  <path
     style="fill:#e6e7e8;fill-opacity:1;stroke-width:0.383166"
     id="path1484"
     d="m 44.288171,74.007877 h -2.980653 c -0.04383,0 -0.07305,-0.0481 -0.07305,-0.120259 v -2.886244 c 0,-0.07216 0.02922,-0.12026 0.07305,-0.12026 h 2.980653 c 0.04383,0 0.07306,0.0481 0.07306,0.12026 v 2.886244 c 0,0.07216 -0.02922,0.120259 -0.07306,0.120259 z" />
  <path
     style="fill:#e6e7e8;fill-opacity:1;stroke-width:0.824946"
     id="path1486"
     d="M 57.84248,72.732652 H 45.733033 c -0.119896,0 -0.199826,-0.154416 -0.199826,-0.386041 0,-0.231624 0.07993,-0.386041 0.199826,-0.386041 H 57.84248 c 0.119896,0 0.199827,0.154417 0.199827,0.386041 0,0.231625 -0.07993,0.386041 -0.199827,0.386041 z" />
  <path
     style="fill:#e6e7e8;fill-opacity:1;stroke-width:0.383166"
     id="path1488"
     d="m 65.641332,69.551675 h -2.980653 c -0.04383,0 -0.07305,-0.0481 -0.07305,-0.120259 v -2.886244 c 0,-0.07216 0.02922,-0.12026 0.07305,-0.12026 h 2.980653 c 0.04383,0 0.07306,0.0481 0.07306,0.12026 v 2.886244 c 0,0.07216 -0.02922,0.120259 -0.07306,0.120259 z" />
  <path
     style="fill:#e6e7e8;fill-opacity:1;stroke-width:0.824946"
     id="path1490"
     d="M 79.01378,68.27645 H 67.083243 c -0.118129,0 -0.196873,-0.154416 -0.196873,-0.386041 0,-0.231624 0.07875,-0.386041 0.196873,-0.386041 H 79.01378 c 0.11813,0 0.196873,0.154417 0.196873,0.386041 0,0.231625 -0.07875,0.386041 -0.196873,0.386041 z" />
  <path
     style="fill:#e6e7e8;fill-opacity:1;stroke-width:0.383166"
     id="path1492"
     d="m 65.641332,74.007877 h -2.980653 c -0.04383,0 -0.07305,-0.0481 -0.07305,-0.120259 v -2.886244 c 0,-0.07216 0.02922,-0.12026 0.07305,-0.12026 h 2.980653 c 0.04383,0 0.07306,0.0481 0.07306,0.12026 v 2.886244 c 0,0.07216 -0.02922,0.120259 -0.07306,0.120259 z" />
  <path
     style="fill:#e6e7e8;fill-opacity:1;stroke-width:0.824946"
     id="path1494"
     d="M 77.508019,72.732652 H 67.058798 c -0.103458,0 -0.17243,-0.154416 -0.17243,-0.386041 0,-0.231624 0.06897,-0.386041 0.17243,-0.386041 h 10.449221 c 0.103458,0 0.17243,0.154417 0.17243,0.386041 0,0.231625 -0.06897,0.386041 -0.17243,0.386041 z" />
</svg>
