<?xml version="1.0" encoding="UTF-8" standalone="no"?>
<svg
   version="1.1"
   viewBox="0 0 100 70"
   id="Layer_1"
   xmlns="http://www.w3.org/2000/svg"
   xmlns:svg="http://www.w3.org/2000/svg"
   xmlns:rdf="http://www.w3.org/1999/02/22-rdf-syntax-ns#"
   xmlns:cc="http://creativecommons.org/ns#"
   xmlns:dc="http://purl.org/dc/elements/1.1/">
  <metadata
     id="metadata15">
    <rdf:RDF>
      <cc:Work
         rdf:about="">
        <dc:format>image/svg+xml</dc:format>
        <dc:type
           rdf:resource="http://purl.org/dc/dcmitype/StillImage" />
      </cc:Work>
    </rdf:RDF>
  </metadata>
  <defs
     id="defs13" />
  <style
     id="style2">.st2{fill:#e6e7e8}</style>
  <path
     id="path4"
     fill="#fff"
     d="M13 73.5c-1.4 0-2.5-1.1-2.5-2.5V13c0-1.4 1.1-2.5 2.5-2.5h74c1.4 0 2.5 1.1 2.5 2.5v58c0 1.4-1.1 2.5-2.5 2.5H13z" />
  <path
     id="path6"
     fill="#565d66"
     d="M87 11c1.1 0 2 .9 2 2v58c0 1.1-.9 2-2 2H13c-1.1 0-2-.9-2-2V13c0-1.1.9-2 2-2h74m0-1H13c-1.7 0-3 1.3-3 3v58c0 1.7 1.3 3 3 3h74c1.6 0 3-1.3 3-3V13c0-1.7-1.4-3-3-3z" />
  <path
     style="fill:#e6e7e8;fill-opacity:1;stroke-width:0.383166"
     id="path869"
     d="m 59.30861,39.812768 h -7.04263 c -0.103564,0 -0.172615,-0.113657 -0.172615,-0.284147 v -6.819562 c 0,-0.17049 0.06905,-0.284147 0.172615,-0.284147 h 7.04263 c 0.103563,0 0.172614,0.113656 0.172614,0.284147 v 6.819562 c 0,0.170488 -0.06905,0.284147 -0.172614,0.284147 z" />
  <path
     d="m 68.657498,39.812768 h -7.042631 c -0.103564,0 -0.172614,-0.113657 -0.172614,-0.284147 v -6.819562 c 0,-0.17049 0.06905,-0.284147 0.172614,-0.284147 h 7.042631 c 0.103564,0 0.172613,0.113656 0.172613,0.284147 v 6.819562 c 0,0.170488 -0.06905,0.284147 -0.172613,0.284147 z"
     id="path883"
     style="fill:#e6e7e8;fill-opacity:1;stroke-width:0.383166" />
  <path
     d="m 49.959722,39.812768 h -7.042631 c -0.103564,0 -0.172615,-0.113657 -0.172615,-0.284147 v -6.819562 c 0,-0.17049 0.06905,-0.284147 0.172615,-0.284147 h 7.042631 c 0.103564,0 0.172615,0.113656 0.172615,0.284147 v 6.819562 c 0,0.170488 -0.06905,0.284147 -0.172615,0.284147 z"
     id="path885"
     style="fill:#e6e7e8;fill-opacity:1;stroke-width:0.383166" />
  <path
     style="fill:#e6e7e8;fill-opacity:1;stroke-width:0.383166"
     id="path887"
     d="m 40.610836,39.812768 h -7.042632 c -0.103564,0 -0.172612,-0.113657 -0.172612,-0.284147 v -6.819562 c 0,-0.17049 0.06905,-0.284147 0.172612,-0.284147 h 7.042632 c 0.103564,0 0.172613,0.113656 0.172613,0.284147 v 6.819562 c 0,0.170488 -0.06905,0.284147 -0.172613,0.284147 z" />
  <path
     style="fill:#e6e7e8;fill-opacity:1;stroke-width:0.383166"
     id="path891"
     d="m 31.261946,39.812768 h -7.04263 c -0.103564,0 -0.172613,-0.113657 -0.172613,-0.284147 v -6.819562 c 0,-0.17049 0.06905,-0.284147 0.172613,-0.284147 h 7.04263 c 0.103564,0 0.172615,0.113656 0.172615,0.284147 v 6.819562 c 0,0.170488 -0.06905,0.284147 -0.172615,0.284147 z" />
  <path
     style="fill:#e6e7e8;fill-opacity:1;stroke-width:1.44235"
     id="path935"
     d="M 38.592289,26.417141 H 20.617397 c -0.17797,0 -0.296616,-0.314782 -0.296616,-0.786955 0,-0.472173 0.118645,-0.786955 0.296616,-0.786955 H 38.59229 c 0.177969,0 0.296616,0.314782 0.296616,0.786955 0,0.472173 -0.118647,0.786955 -0.296617,0.786955 z" />
  <path
     style="fill:#e6e7e8;fill-opacity:1;stroke-width:0.824948"
     id="path937"
     d="m 42.327382,29.646857 h -21.64935 c -0.214351,0 -0.357251,-0.209981 -0.357251,-0.524952 0,-0.314971 0.1429,-0.524952 0.357251,-0.524952 h 21.64935 c 0.21435,0 0.35725,0.209981 0.35725,0.524952 0,0.314971 -0.142901,0.524952 -0.35725,0.524952 z" />
  <path
     d="m 78.006382,39.812768 h -7.04263 c -0.103564,0 -0.172614,-0.113657 -0.172614,-0.284147 v -6.819562 c 0,-0.17049 0.06905,-0.284147 0.172614,-0.284147 h 7.04263 c 0.103564,0 0.172613,0.113656 0.172613,0.284147 v 6.819562 c 0,0.170488 -0.06905,0.284147 -0.172613,0.284147 z"
     id="path1196"
     style="fill:#e6e7e8;fill-opacity:1;stroke-width:0.383166" />
  <path
     id="rect1300"
     style="fill:#e6e7e8;fill-opacity:1;stroke-width:0.377952;stroke-linecap:round;stroke-linejoin:round"
     d="m 19.969755,36.120131 0.475371,0.475371 1.162595,1.162597 0.477954,-0.477958 -1.162594,-1.162594 1.162594,-1.162593 -0.475373,-0.475374 -1.162595,1.162597 z" />
  <path
     id="path6789"
     style="fill:#e6e7e8;fill-opacity:1;stroke-width:0.377952;stroke-linecap:round;stroke-linejoin:round"
     d="m 82.255942,36.120131 -0.47537,0.475371 -1.16259,1.162597 -0.47796,-0.477958 1.1626,-1.162594 -1.1626,-1.162593 0.47537,-0.475374 1.1626,1.162597 z" />
  <path
     id="rect6857"
     style="fill:#e6e7e8;stroke-width:0.377953;stroke-linecap:round;stroke-linejoin:round"
     d="m 20.896171,42.614773 h 8.841097 c 0.318766,0 0.575389,0.256623 0.575389,0.575389 v 1.347191 c 0,0.318765 -0.256623,0.575389 -0.575389,0.575389 h -8.841097 c -0.318766,0 -0.575389,-0.256624 -0.575389,-0.575389 v -1.347191 c 0,-0.318766 0.256623,-0.575389 0.575389,-0.575389 z" />
  <path
     style="fill:#e6e7e8;fill-opacity:1;stroke-width:0.383166"
     id="path7121"
     d="m 59.30861,65.62754 h -7.04263 c -0.103564,0 -0.172615,-0.113657 -0.172615,-0.284147 v -6.819562 c 0,-0.17049 0.06905,-0.284147 0.172615,-0.284147 h 7.04263 c 0.103563,0 0.172614,0.113656 0.172614,0.284147 v 6.819562 c 0,0.170488 -0.06905,0.284147 -0.172614,0.284147 z" />
  <path
     d="m 68.657498,65.62754 h -7.042631 c -0.103564,0 -0.172614,-0.113657 -0.172614,-0.284147 v -6.819562 c 0,-0.17049 0.06905,-0.284147 0.172614,-0.284147 h 7.042631 c 0.103564,0 0.172613,0.113656 0.172613,0.284147 v 6.819562 c 0,0.170488 -0.06905,0.284147 -0.172613,0.284147 z"
     id="path7123"
     style="fill:#e6e7e8;fill-opacity:1;stroke-width:0.383166" />
  <path
     d="m 49.959722,65.62754 h -7.042631 c -0.103564,0 -0.172615,-0.113657 -0.172615,-0.284147 v -6.819562 c 0,-0.17049 0.06905,-0.284147 0.172615,-0.284147 h 7.042631 c 0.103564,0 0.172615,0.113656 0.172615,0.284147 v 6.819562 c 0,0.170488 -0.06905,0.284147 -0.172615,0.284147 z"
     id="path7125"
     style="fill:#e6e7e8;fill-opacity:1;stroke-width:0.383166" />
  <path
     style="fill:#e6e7e8;fill-opacity:1;stroke-width:0.383166"
     id="path7127"
     d="m 40.610836,65.62754 h -7.042632 c -0.103564,0 -0.172612,-0.113657 -0.172612,-0.284147 v -6.819562 c 0,-0.17049 0.06905,-0.284147 0.172612,-0.284147 h 7.042632 c 0.103564,0 0.172613,0.113656 0.172613,0.284147 v 6.819562 c 0,0.170488 -0.06905,0.284147 -0.172613,0.284147 z" />
  <path
     style="fill:#e6e7e8;fill-opacity:1;stroke-width:0.383166"
     id="path7129"
     d="m 31.261946,65.62754 h -7.04263 c -0.103564,0 -0.172613,-0.113657 -0.172613,-0.284147 v -6.819562 c 0,-0.17049 0.06905,-0.284147 0.172613,-0.284147 h 7.04263 c 0.103564,0 0.172615,0.113656 0.172615,0.284147 v 6.819562 c 0,0.170488 -0.06905,0.284147 -0.172615,0.284147 z" />
  <path
     style="fill:#e6e7e8;fill-opacity:1;stroke-width:1.44235"
     id="path7131"
     d="M 38.592289,52.231913 H 20.617397 c -0.17797,0 -0.296616,-0.314782 -0.296616,-0.786955 0,-0.472173 0.118645,-0.786955 0.296616,-0.786955 H 38.59229 c 0.177969,0 0.296616,0.314782 0.296616,0.786955 0,0.472173 -0.118647,0.786955 -0.296617,0.786955 z" />
  <path
     style="fill:#e6e7e8;fill-opacity:1;stroke-width:0.824948"
     id="path7133"
     d="m 42.327382,55.461629 h -21.64935 c -0.214351,0 -0.357251,-0.209981 -0.357251,-0.524952 0,-0.314971 0.1429,-0.524952 0.357251,-0.524952 h 21.64935 c 0.21435,0 0.35725,0.209981 0.35725,0.524952 0,0.314971 -0.142901,0.524952 -0.35725,0.524952 z" />
  <path
     d="m 78.006382,65.62754 h -7.04263 c -0.103564,0 -0.172614,-0.113657 -0.172614,-0.284147 v -6.819562 c 0,-0.17049 0.06905,-0.284147 0.172614,-0.284147 h 7.04263 c 0.103564,0 0.172613,0.113656 0.172613,0.284147 v 6.819562 c 0,0.170488 -0.06905,0.284147 -0.172613,0.284147 z"
     id="path7135"
     style="fill:#e6e7e8;fill-opacity:1;stroke-width:0.383166" />
  <path
     id="path7137"
     style="fill:#e6e7e8;fill-opacity:1;stroke-width:0.377952;stroke-linecap:round;stroke-linejoin:round"
     d="m 19.969755,61.934903 0.475371,0.475371 1.162595,1.162597 0.477954,-0.477958 -1.162594,-1.162594 1.162594,-1.162593 -0.475373,-0.475374 -1.162595,1.162597 z" />
  <path
     id="path7139"
     style="fill:#e6e7e8;fill-opacity:1;stroke-width:0.377952;stroke-linecap:round;stroke-linejoin:round"
     d="m 82.255942,61.934903 -0.47537,0.475371 -1.16259,1.162597 -0.47796,-0.477958 1.1626,-1.162594 -1.1626,-1.162593 0.47537,-0.475374 1.1626,1.162597 z" />
  <path
     id="rect7141"
     style="fill:#e6e7e8;stroke-width:0.377953;stroke-linecap:round;stroke-linejoin:round"
     d="m 20.896171,68.42955 h 8.841097 c 0.318766,0 0.575389,0.256624 0.575389,0.575389 v 1.347191 c 0,0.318766 -0.256623,0.575389 -0.575389,0.575389 h -8.841097 c -0.318766,0 -0.575389,-0.256623 -0.575389,-0.575389 v -1.347191 c 0,-0.318765 0.256623,-0.575389 0.575389,-0.575389 z" />
</svg>
