<?xml version="1.0" encoding="UTF-8" standalone="no"?>
<svg
   version="1.1"
   viewBox="0 0 100 70"
   id="Layer_1"
   xml:space="preserve"
   xmlns="http://www.w3.org/2000/svg"
   xmlns:svg="http://www.w3.org/2000/svg"
   xmlns:rdf="http://www.w3.org/1999/02/22-rdf-syntax-ns#"
   xmlns:cc="http://creativecommons.org/ns#"
   xmlns:dc="http://purl.org/dc/elements/1.1/"><metadata
     id="metadata15"><rdf:RDF><cc:Work
         rdf:about=""><dc:format>image/svg+xml</dc:format><dc:type
           rdf:resource="http://purl.org/dc/dcmitype/StillImage" /></cc:Work></rdf:RDF></metadata><defs
     id="defs13" /><style
     id="style2">.st2{fill:#e6e7e8}</style><path
     id="path4"
     fill="#fff"
     d="M13 73.5c-1.4 0-2.5-1.1-2.5-2.5V13c0-1.4 1.1-2.5 2.5-2.5h74c1.4 0 2.5 1.1 2.5 2.5v58c0 1.4-1.1 2.5-2.5 2.5H13z" /><path
     id="path6"
     fill="#565d66"
     d="M87 11c1.1 0 2 .9 2 2v58c0 1.1-.9 2-2 2H13c-1.1 0-2-.9-2-2V13c0-1.1.9-2 2-2h74m0-1H13c-1.7 0-3 1.3-3 3v58c0 1.7 1.3 3 3 3h74c1.6 0 3-1.3 3-3V13c0-1.7-1.4-3-3-3z" /><path
     style="fill:#e6e7e8;fill-opacity:1;stroke-width:1.44235"
     id="path935"
     d="M 38.592289,24.417141 H 20.617397 c -0.17797,0 -0.296616,-0.314782 -0.296616,-0.786955 0,-0.472173 0.118645,-0.786955 0.296616,-0.786955 H 38.59229 c 0.177969,0 0.296616,0.314782 0.296616,0.786955 0,0.472173 -0.118647,0.786955 -0.296617,0.786955 z" /><path
     id="rect6857"
     style="fill:#e6e7e8;stroke-width:0.377953;stroke-linecap:round;stroke-linejoin:round"
     d="m 20.896171,42.801317 h 8.841097 c 0.318766,0 0.575389,0.256623 0.575389,0.575389 v 1.347191 c 0,0.318765 -0.256623,0.575389 -0.575389,0.575389 h -8.841097 c -0.318766,0 -0.575389,-0.256624 -0.575389,-0.575389 v -1.347191 c 0,-0.318766 0.256623,-0.575389 0.575389,-0.575389 z" /><style
     id="style2-3">.st2{fill:#e6e7e8}</style><path
     style="fill:#e6e7e8;fill-opacity:1;stroke-width:0.521664"
     id="path869-2"
     d="M 63.95591,39.504771 H 55.6615 c -0.12197,0 -0.20329,-0.133861 -0.20329,-0.334654 v -8.031692 c 0,-0.200793 0.0813,-0.334654 0.20329,-0.334654 h 8.29441 c 0.12198,0 0.2033,0.133861 0.2033,0.334654 v 8.031692 c 0,0.200793 -0.0813,0.334654 -0.2033,0.334654 z" /><path
     d="m 75.67742,39.504771 h -8.29441 c -0.12198,0 -0.2033,-0.133861 -0.2033,-0.334654 v -8.031692 c 0,-0.200793 0.0813,-0.334654 0.2033,-0.334654 h 8.29441 c 0.12197,0 0.20329,0.133861 0.20329,0.334654 v 8.031692 c 0,0.200793 -0.0813,0.334654 -0.20329,0.334654 z"
     id="path883-9"
     style="fill:#e6e7e8;fill-opacity:1;stroke-width:0.521664" /><path
     d="M 52.23441,39.504771 H 43.94 c -0.12198,0 -0.2033,-0.133861 -0.2033,-0.334654 v -8.031692 c 0,-0.200793 0.0813,-0.334654 0.2033,-0.334654 h 8.29441 c 0.12198,0 0.20329,0.133861 0.20329,0.334654 v 8.031692 c 0,0.200793 -0.0813,0.334654 -0.20329,0.334654 z"
     id="path885-1"
     style="fill:#e6e7e8;fill-opacity:1;stroke-width:0.521664" /><path
     style="fill:#e6e7e8;fill-opacity:1;stroke-width:0.179657"
     id="path887-2"
     d="m 40.5129,39.504771 h -8.29441 c -0.12197,0 -0.20329,-0.01588 -0.20329,-0.03969 v -0.952604 c 0,-0.02381 0.0813,-0.03969 0.20329,-0.03969 h 8.29441 c 0.12198,0 0.2033,0.01588 0.2033,0.03969 v 0.952604 c 0,0.02381 -0.0813,0.03969 -0.2033,0.03969 z" /><path
     style="fill:#e6e7e8;fill-opacity:1;stroke-width:0.521664"
     id="path891-7"
     d="m 28.791399,39.504771 h -8.29441 c -0.121977,0 -0.203295,-0.133861 -0.203295,-0.334654 v -8.031692 c 0,-0.200793 0.08132,-0.334654 0.203295,-0.334654 h 8.29441 c 0.121977,0 0.203295,0.133861 0.203295,0.334654 v 8.031692 c 0,0.200793 -0.08132,0.334654 -0.203295,0.334654 z" /><path
     d="M 41.25427,27.713718 H 20.633964 c -0.204162,0 -0.34027,-0.2 -0.34027,-0.5 0,-0.3 0.136108,-0.5 0.34027,-0.5 H 41.25427 c 0.20417,0 0.34027,0.2 0.34027,0.5 0,0.3 -0.1361,0.5 -0.34027,0.5 z"
     id="path830"
     style="fill:#e6e7e8;fill-opacity:1;stroke-width:0.824948" /><path
     d="m 40.5129,38.039904 h -8.29441 c -0.12197,0 -0.20329,-0.111325 -0.20329,-0.278313 v -6.679507 c 0,-0.166988 0.0813,-0.278313 0.20329,-0.278313 h 8.29441 c 0.12198,0 0.2033,0.111325 0.2033,0.278313 v 6.679507 c 0,0.166988 -0.0813,0.278313 -0.2033,0.278313 z"
     id="path823"
     style="fill:#e6e7e8;fill-opacity:1;stroke-width:0.475729" /><path
     style="fill:#e6e7e8;fill-opacity:1;stroke-width:1.44235"
     id="path1"
     d="M 38.592289,52.417141 H 20.617397 c -0.17797,0 -0.296616,-0.314782 -0.296616,-0.786955 0,-0.472173 0.118645,-0.786955 0.296616,-0.786955 H 38.59229 c 0.177969,0 0.296616,0.314782 0.296616,0.786955 0,0.472173 -0.118647,0.786955 -0.296617,0.786955 z" /><path
     id="path2"
     style="fill:#e6e7e8;stroke-width:0.377953;stroke-linecap:round;stroke-linejoin:round"
     d="m 20.896171,70.801317 h 8.841097 c 0.318766,0 0.575389,0.256623 0.575389,0.575389 v 1.347191 c 0,0.318765 -0.256623,0.575389 -0.575389,0.575389 h -8.841097 c -0.318766,0 -0.575389,-0.256624 -0.575389,-0.575389 v -1.347191 c 0,-0.318766 0.256623,-0.575389 0.575389,-0.575389 z" /><path
     style="fill:#e6e7e8;fill-opacity:1;stroke-width:0.521664"
     id="path3"
     d="M 63.95591,67.504771 H 55.6615 c -0.12197,0 -0.20329,-0.133861 -0.20329,-0.334654 v -8.031692 c 0,-0.200793 0.0813,-0.334654 0.20329,-0.334654 h 8.29441 c 0.12198,0 0.2033,0.133861 0.2033,0.334654 v 8.031692 c 0,0.200793 -0.0813,0.334654 -0.2033,0.334654 z" /><path
     d="m 75.67742,67.504771 h -8.29441 c -0.12198,0 -0.2033,-0.133861 -0.2033,-0.334654 v -8.031692 c 0,-0.200793 0.0813,-0.334654 0.2033,-0.334654 h 8.29441 c 0.12197,0 0.20329,0.133861 0.20329,0.334654 v 8.031692 c 0,0.200793 -0.0813,0.334654 -0.20329,0.334654 z"
     id="path5"
     style="fill:#e6e7e8;fill-opacity:1;stroke-width:0.521664" /><path
     d="M 52.23441,67.504771 H 43.94 c -0.12198,0 -0.2033,-0.133861 -0.2033,-0.334654 v -8.031692 c 0,-0.200793 0.0813,-0.334654 0.2033,-0.334654 h 8.29441 c 0.12198,0 0.20329,0.133861 0.20329,0.334654 v 8.031692 c 0,0.200793 -0.0813,0.334654 -0.20329,0.334654 z"
     id="path7"
     style="fill:#e6e7e8;fill-opacity:1;stroke-width:0.521664" /><path
     style="fill:#e6e7e8;fill-opacity:1;stroke-width:0.179657"
     id="path8"
     d="m 40.5129,67.504771 h -8.29441 c -0.12197,0 -0.20329,-0.01588 -0.20329,-0.03969 v -0.952604 c 0,-0.02381 0.0813,-0.03969 0.20329,-0.03969 h 8.29441 c 0.12198,0 0.2033,0.01588 0.2033,0.03969 v 0.952604 c 0,0.02381 -0.0813,0.03969 -0.2033,0.03969 z" /><path
     style="fill:#e6e7e8;fill-opacity:1;stroke-width:0.521664"
     id="path9"
     d="m 28.791399,67.504771 h -8.29441 c -0.121977,0 -0.203295,-0.133861 -0.203295,-0.334654 v -8.031692 c 0,-0.200793 0.08132,-0.334654 0.203295,-0.334654 h 8.29441 c 0.121977,0 0.203295,0.133861 0.203295,0.334654 v 8.031692 c 0,0.200793 -0.08132,0.334654 -0.203295,0.334654 z" /><path
     d="M 41.25427,55.713718 H 20.633964 c -0.204162,0 -0.34027,-0.2 -0.34027,-0.5 0,-0.3 0.136108,-0.5 0.34027,-0.5 H 41.25427 c 0.20417,0 0.34027,0.2 0.34027,0.5 0,0.3 -0.1361,0.5 -0.34027,0.5 z"
     id="path10"
     style="fill:#e6e7e8;fill-opacity:1;stroke-width:0.824948" /><path
     d="m 40.5129,66.039904 h -8.29441 c -0.12197,0 -0.20329,-0.111325 -0.20329,-0.278313 v -6.679507 c 0,-0.166988 0.0813,-0.278313 0.20329,-0.278313 h 8.29441 c 0.12198,0 0.2033,0.111325 0.2033,0.278313 v 6.679507 c 0,0.166988 -0.0813,0.278313 -0.2033,0.278313 z"
     id="path11"
     style="fill:#e6e7e8;fill-opacity:1;stroke-width:0.475729" /><circle
     style="fill:#ffffff;fill-opacity:1;stroke-width:1.54655;stroke-linecap:square"
     id="circle14"
     cx="73.931992"
     cy="39.189342"
     r="3.978164" /><circle
     style="fill:#cccccc;fill-opacity:1;stroke-width:1.24377;stroke-linecap:square"
     id="path12"
     cx="73.931992"
     cy="39.189342"
     r="3.1993463" /><rect
     style="fill:#ffffff;fill-opacity:1;stroke-width:0.957848;stroke-linecap:square"
     id="rect12"
     width="1.09"
     height="3.7762773"
     x="73.439445"
     y="37.274975" /><rect
     style="fill:#ffffff;fill-opacity:1;stroke-width:0.957885;stroke-linecap:square"
     id="rect13"
     width="1.0900844"
     height="3.7762773"
     x="38.618073"
     y="-75.872581"
     transform="rotate(90)" /><rect
     style="fill:#cccccc;fill-opacity:1;stroke-width:1.02933;stroke-linecap:square"
     id="rect14"
     width="1.2587591"
     height="3.7762773"
     x="-25.140512"
     y="-86.457214"
     transform="rotate(135)" /></svg>
