<?xml version="1.0" encoding="UTF-8" standalone="no"?>
<svg
   version="1.1"
   viewBox="0 0 100 70"
   id="Layer_1"
   xmlns="http://www.w3.org/2000/svg"
   xmlns:svg="http://www.w3.org/2000/svg"
   xmlns:rdf="http://www.w3.org/1999/02/22-rdf-syntax-ns#"
   xmlns:cc="http://creativecommons.org/ns#"
   xmlns:dc="http://purl.org/dc/elements/1.1/">
  <metadata
     id="metadata15">
    <rdf:RDF>
      <cc:Work
         rdf:about="">
        <dc:format>image/svg+xml</dc:format>
        <dc:type
           rdf:resource="http://purl.org/dc/dcmitype/StillImage" />
      </cc:Work>
    </rdf:RDF>
  </metadata>
  <defs
     id="defs13" />
  <style
     id="style2">.st2{fill:#e6e7e8}</style>
  <path
     id="path4"
     fill="#fff"
     d="M13 73.5c-1.4 0-2.5-1.1-2.5-2.5V13c0-1.4 1.1-2.5 2.5-2.5h74c1.4 0 2.5 1.1 2.5 2.5v58c0 1.4-1.1 2.5-2.5 2.5H13z" />
  <path
     id="path6"
     fill="#565d66"
     d="M87 11c1.1 0 2 .9 2 2v58c0 1.1-.9 2-2 2H13c-1.1 0-2-.9-2-2V13c0-1.1.9-2 2-2h74m0-1H13c-1.7 0-3 1.3-3 3v58c0 1.7 1.3 3 3 3h74c1.6 0 3-1.3 3-3V13c0-1.7-1.4-3-3-3z" />
  <path
     style="fill:#ececec;fill-opacity:1;stroke-width:0.383166"
     id="path891"
     d="M 37.837022,47.619451 H 21.000266 c -0.247582,0 -0.412636,-0.264509 -0.412636,-0.661322 V 31.086237 c 0,-0.396819 0.165054,-0.661328 0.412636,-0.661328 h 16.836756 c 0.247582,0 0.412693,0.264509 0.412693,0.661328 v 15.871892 c 0,0.396819 -0.165054,0.661322 -0.412693,0.661322 z" />
  <path
     style="fill:#e6e7e8;fill-opacity:1;stroke-width:1.44235"
     id="path935"
     d="M 38.592289,24.417141 H 20.617397 c -0.17797,0 -0.296616,-0.314782 -0.296616,-0.786955 0,-0.472173 0.118645,-0.786955 0.296616,-0.786955 H 38.59229 c 0.177969,0 0.296616,0.314782 0.296616,0.786955 0,0.472173 -0.118647,0.786955 -0.296617,0.786955 z" />
  <path
     style="fill:#e6e7e8;fill-opacity:1;stroke-width:0.824948"
     id="path937"
     d="m 42.327382,27.646857 h -21.64935 c -0.214351,0 -0.357251,-0.209981 -0.357251,-0.524952 0,-0.314971 0.1429,-0.524952 0.357251,-0.524952 h 21.64935 c 0.21435,0 0.35725,0.209981 0.35725,0.524952 0,0.314971 -0.142901,0.524952 -0.35725,0.524952 z" />
  <path
     id="rect6857"
     style="fill:#e6e7e8;stroke-width:0.377953;stroke-linecap:round;stroke-linejoin:round"
     d="m 20.896171,49.19261 h 8.841097 c 0.318766,0 0.575389,0.256623 0.575389,0.575389 v 1.347191 c 0,0.318765 -0.256623,0.575389 -0.575389,0.575389 h -8.841097 c -0.318766,0 -0.575389,-0.256624 -0.575389,-0.575389 v -1.347191 c 0,-0.318766 0.256623,-0.575389 0.575389,-0.575389 z" />
  <path
     style="fill:#e6e7e8;fill-opacity:1;stroke-width:1.44235"
     id="path7131"
     d="M 38.592289,60.418457 H 20.617397 c -0.17797,0 -0.296616,-0.314782 -0.296616,-0.786955 0,-0.472173 0.118645,-0.786955 0.296616,-0.786955 H 38.59229 c 0.177969,0 0.296616,0.314782 0.296616,0.786955 0,0.472173 -0.118647,0.786955 -0.296617,0.786955 z" />
  <path
     style="fill:#cccccc;fill-opacity:1;stroke-width:0.824946"
     id="path867"
     d="M 30.852935,33.222674 H 22.5368 c -0.08234,0 -0.13723,-0.255492 -0.13723,-0.638733 0,-0.38324 0.05489,-0.638734 0.13723,-0.638734 h 8.316135 c 0.08234,0 0.13723,0.255494 0.13723,0.638734 0,0.383241 -0.0549,0.638733 -0.13723,0.638733 z" />
  <path
     style="fill:#cccccc;fill-opacity:1;stroke-width:0.383167"
     id="path870"
     d="m 36.693167,36.741225 h -3.543775 c -0.05211,0 -0.08685,-0.07684 -0.08685,-0.192119 v -4.610918 c 0,-0.115279 0.03474,-0.192121 0.08685,-0.192121 h 3.543775 c 0.05211,0 0.08686,0.07684 0.08686,0.192121 v 4.610918 c 0,0.115279 -0.03474,0.192119 -0.08686,0.192119 z" />
  <path
     style="fill:#cccccc;fill-opacity:1;stroke-width:0.824946"
     id="path872"
     d="M 32.779752,39.35364 H 22.568079 c -0.101106,0 -0.168509,-0.154416 -0.168509,-0.386041 0,-0.231624 0.0674,-0.386041 0.168509,-0.386041 h 10.211673 c 0.101106,0 0.16851,0.154417 0.16851,0.386041 0,0.231625 -0.0674,0.386041 -0.16851,0.386041 z" />
  <path
     style="fill:#cccccc;fill-opacity:1;stroke-width:0.824946"
     id="path1380"
     d="M 34.799841,42.279736 H 22.600874 c -0.120783,0 -0.201304,-0.154416 -0.201304,-0.386041 0,-0.231624 0.08052,-0.386041 0.201304,-0.386041 h 12.198967 c 0.120782,0 0.201304,0.154417 0.201304,0.386041 0,0.231625 -0.08053,0.386041 -0.201304,0.386041 z" />
  <path
     style="fill:#cccccc;fill-opacity:1;stroke-width:0.824946"
     id="path1"
     d="M 32.779752,45.205833 H 22.568079 c -0.101106,0 -0.168509,-0.154416 -0.168509,-0.386041 0,-0.231624 0.0674,-0.386041 0.168509,-0.386041 h 10.211673 c 0.101106,0 0.16851,0.154417 0.16851,0.386041 0,0.231625 -0.0674,0.386041 -0.16851,0.386041 z" />
  <path
     style="fill:#cccccc;fill-opacity:1;stroke-width:0.824946"
     id="path2"
     d="m 29.859259,36.427543 h -7.338591 c -0.07266,0 -0.121098,-0.154416 -0.121098,-0.386041 0,-0.231624 0.04844,-0.386041 0.121098,-0.386041 h 7.338591 c 0.07266,0 0.121099,0.154417 0.121099,0.386041 0,0.231625 -0.04844,0.386041 -0.121099,0.386041 z" />
  <path
     style="fill:#ececec;fill-opacity:1;stroke-width:0.383166"
     id="path3"
     d="M 59.837022,47.619451 H 43.000266 c -0.247582,0 -0.412636,-0.264509 -0.412636,-0.661322 V 31.086237 c 0,-0.396819 0.165054,-0.661328 0.412636,-0.661328 h 16.836756 c 0.247582,0 0.412693,0.264509 0.412693,0.661328 v 15.871892 c 0,0.396819 -0.165054,0.661322 -0.412693,0.661322 z" />
  <path
     style="fill:#cccccc;fill-opacity:1;stroke-width:0.824946"
     id="path5"
     d="M 52.852935,33.222674 H 44.5368 c -0.08234,0 -0.13723,-0.255492 -0.13723,-0.638733 0,-0.38324 0.05489,-0.638734 0.13723,-0.638734 h 8.316135 c 0.08234,0 0.13723,0.255494 0.13723,0.638734 0,0.383241 -0.0549,0.638733 -0.13723,0.638733 z" />
  <path
     style="fill:#cccccc;fill-opacity:1;stroke-width:0.383167"
     id="path7"
     d="m 58.693167,36.741225 h -3.543775 c -0.05211,0 -0.08685,-0.07684 -0.08685,-0.192119 v -4.610918 c 0,-0.115279 0.03474,-0.192121 0.08685,-0.192121 h 3.543775 c 0.05211,0 0.08686,0.07684 0.08686,0.192121 v 4.610918 c 0,0.115279 -0.03474,0.192119 -0.08686,0.192119 z" />
  <path
     style="fill:#cccccc;fill-opacity:1;stroke-width:0.824946"
     id="path8"
     d="M 54.779752,39.35364 H 44.568079 c -0.101106,0 -0.168509,-0.154416 -0.168509,-0.386041 0,-0.231624 0.0674,-0.386041 0.168509,-0.386041 h 10.211673 c 0.101106,0 0.16851,0.154417 0.16851,0.386041 0,0.231625 -0.0674,0.386041 -0.16851,0.386041 z" />
  <path
     style="fill:#cccccc;fill-opacity:1;stroke-width:0.824946"
     id="path9"
     d="M 56.799841,42.279736 H 44.600874 c -0.120783,0 -0.201304,-0.154416 -0.201304,-0.386041 0,-0.231624 0.08052,-0.386041 0.201304,-0.386041 h 12.198967 c 0.120782,0 0.201304,0.154417 0.201304,0.386041 0,0.231625 -0.08053,0.386041 -0.201304,0.386041 z" />
  <path
     style="fill:#cccccc;fill-opacity:1;stroke-width:0.824946"
     id="path10"
     d="M 54.779752,45.205833 H 44.568079 c -0.101106,0 -0.168509,-0.154416 -0.168509,-0.386041 0,-0.231624 0.0674,-0.386041 0.168509,-0.386041 h 10.211673 c 0.101106,0 0.16851,0.154417 0.16851,0.386041 0,0.231625 -0.0674,0.386041 -0.16851,0.386041 z" />
  <path
     style="fill:#cccccc;fill-opacity:1;stroke-width:0.824946"
     id="path11"
     d="m 51.859259,36.427543 h -7.338591 c -0.07266,0 -0.121098,-0.154416 -0.121098,-0.386041 0,-0.231624 0.04844,-0.386041 0.121098,-0.386041 h 7.338591 c 0.07266,0 0.121099,0.154417 0.121099,0.386041 0,0.231625 -0.04844,0.386041 -0.121099,0.386041 z" />
  <path
     style="fill:#cccccc;fill-opacity:1;stroke-width:0.824946"
     id="path13"
     d="M 52.852935,33.222674 H 44.5368 c -0.08234,0 -0.13723,-0.255492 -0.13723,-0.638733 0,-0.38324 0.05489,-0.638734 0.13723,-0.638734 h 8.316135 c 0.08234,0 0.13723,0.255494 0.13723,0.638734 0,0.383241 -0.0549,0.638733 -0.13723,0.638733 z" />
  <path
     style="fill:#cccccc;fill-opacity:1;stroke-width:0.383167"
     id="path14"
     d="m 58.693167,36.741225 h -3.543775 c -0.05211,0 -0.08685,-0.07684 -0.08685,-0.192119 v -4.610918 c 0,-0.115279 0.03474,-0.192121 0.08685,-0.192121 h 3.543775 c 0.05211,0 0.08686,0.07684 0.08686,0.192121 v 4.610918 c 0,0.115279 -0.03474,0.192119 -0.08686,0.192119 z" />
  <path
     style="fill:#cccccc;fill-opacity:1;stroke-width:0.824946"
     id="path15"
     d="M 54.779752,39.35364 H 44.568079 c -0.101106,0 -0.168509,-0.154416 -0.168509,-0.386041 0,-0.231624 0.0674,-0.386041 0.168509,-0.386041 h 10.211673 c 0.101106,0 0.16851,0.154417 0.16851,0.386041 0,0.231625 -0.0674,0.386041 -0.16851,0.386041 z" />
  <path
     style="fill:#cccccc;fill-opacity:1;stroke-width:0.824946"
     id="path16"
     d="M 56.799841,42.279736 H 44.600874 c -0.120783,0 -0.201304,-0.154416 -0.201304,-0.386041 0,-0.231624 0.08052,-0.386041 0.201304,-0.386041 h 12.198967 c 0.120782,0 0.201304,0.154417 0.201304,0.386041 0,0.231625 -0.08053,0.386041 -0.201304,0.386041 z" />
  <path
     style="fill:#cccccc;fill-opacity:1;stroke-width:0.824946"
     id="path17"
     d="M 54.779752,45.205833 H 44.568079 c -0.101106,0 -0.168509,-0.154416 -0.168509,-0.386041 0,-0.231624 0.0674,-0.386041 0.168509,-0.386041 h 10.211673 c 0.101106,0 0.16851,0.154417 0.16851,0.386041 0,0.231625 -0.0674,0.386041 -0.16851,0.386041 z" />
  <path
     style="fill:#cccccc;fill-opacity:1;stroke-width:0.824946"
     id="path18"
     d="m 51.859259,36.427543 h -7.338591 c -0.07266,0 -0.121098,-0.154416 -0.121098,-0.386041 0,-0.231624 0.04844,-0.386041 0.121098,-0.386041 h 7.338591 c 0.07266,0 0.121099,0.154417 0.121099,0.386041 0,0.231625 -0.04844,0.386041 -0.121099,0.386041 z" />
  <path
     style="fill:#cccccc;fill-opacity:1;stroke-width:0.824946"
     id="path19"
     d="M 74.852935,33.222674 H 66.5368 c -0.08234,0 -0.13723,-0.255492 -0.13723,-0.638733 0,-0.38324 0.05489,-0.638734 0.13723,-0.638734 h 8.316135 c 0.08234,0 0.13723,0.255494 0.13723,0.638734 0,0.383241 -0.0549,0.638733 -0.13723,0.638733 z" />
  <path
     style="fill:#cccccc;fill-opacity:1;stroke-width:0.383167"
     id="path20"
     d="m 80.693167,36.741225 h -3.543775 c -0.05211,0 -0.08685,-0.07684 -0.08685,-0.192119 v -4.610918 c 0,-0.115279 0.03474,-0.192121 0.08685,-0.192121 h 3.543775 c 0.05211,0 0.08686,0.07684 0.08686,0.192121 v 4.610918 c 0,0.115279 -0.03474,0.192119 -0.08686,0.192119 z" />
  <path
     style="fill:#cccccc;fill-opacity:1;stroke-width:0.824946"
     id="path21"
     d="M 76.779752,39.35364 H 66.568079 c -0.101106,0 -0.168509,-0.154416 -0.168509,-0.386041 0,-0.231624 0.0674,-0.386041 0.168509,-0.386041 h 10.211673 c 0.101106,0 0.16851,0.154417 0.16851,0.386041 0,0.231625 -0.0674,0.386041 -0.16851,0.386041 z" />
  <path
     style="fill:#cccccc;fill-opacity:1;stroke-width:0.824946"
     id="path22"
     d="M 78.799841,42.279736 H 66.600874 c -0.120783,0 -0.201304,-0.154416 -0.201304,-0.386041 0,-0.231624 0.08052,-0.386041 0.201304,-0.386041 h 12.198967 c 0.120782,0 0.201304,0.154417 0.201304,0.386041 0,0.231625 -0.08053,0.386041 -0.201304,0.386041 z" />
  <path
     style="fill:#cccccc;fill-opacity:1;stroke-width:0.824946"
     id="path23"
     d="M 76.779752,45.205833 H 66.568079 c -0.101106,0 -0.168509,-0.154416 -0.168509,-0.386041 0,-0.231624 0.0674,-0.386041 0.168509,-0.386041 h 10.211673 c 0.101106,0 0.16851,0.154417 0.16851,0.386041 0,0.231625 -0.0674,0.386041 -0.16851,0.386041 z" />
  <path
     style="fill:#cccccc;fill-opacity:1;stroke-width:0.824946"
     id="path24"
     d="m 73.859259,36.427543 h -7.338591 c -0.07266,0 -0.121098,-0.154416 -0.121098,-0.386041 0,-0.231624 0.04844,-0.386041 0.121098,-0.386041 h 7.338591 c 0.07266,0 0.121099,0.154417 0.121099,0.386041 0,0.231625 -0.04844,0.386041 -0.121099,0.386041 z" />
  <path
     style="fill:#ececec;fill-opacity:1;stroke-width:0.383166"
     id="path25"
     d="M 81.837022,47.619451 H 65.000266 c -0.247582,0 -0.412636,-0.264509 -0.412636,-0.661322 V 31.086237 c 0,-0.396819 0.165054,-0.661328 0.412636,-0.661328 h 16.836756 c 0.247582,0 0.412693,0.264509 0.412693,0.661328 v 15.871892 c 0,0.396819 -0.165054,0.661322 -0.412693,0.661322 z" />
  <path
     style="fill:#cccccc;fill-opacity:1;stroke-width:0.824946"
     id="path26"
     d="M 74.852935,33.222674 H 66.5368 c -0.08234,0 -0.13723,-0.255492 -0.13723,-0.638733 0,-0.38324 0.05489,-0.638734 0.13723,-0.638734 h 8.316135 c 0.08234,0 0.13723,0.255494 0.13723,0.638734 0,0.383241 -0.0549,0.638733 -0.13723,0.638733 z" />
  <path
     style="fill:#cccccc;fill-opacity:1;stroke-width:0.383167"
     id="path27"
     d="m 80.693167,36.741225 h -3.543775 c -0.05211,0 -0.08685,-0.07684 -0.08685,-0.192119 v -4.610918 c 0,-0.115279 0.03474,-0.192121 0.08685,-0.192121 h 3.543775 c 0.05211,0 0.08686,0.07684 0.08686,0.192121 v 4.610918 c 0,0.115279 -0.03474,0.192119 -0.08686,0.192119 z" />
  <path
     style="fill:#cccccc;fill-opacity:1;stroke-width:0.824946"
     id="path28"
     d="M 76.779752,39.35364 H 66.568079 c -0.101106,0 -0.168509,-0.154416 -0.168509,-0.386041 0,-0.231624 0.0674,-0.386041 0.168509,-0.386041 h 10.211673 c 0.101106,0 0.16851,0.154417 0.16851,0.386041 0,0.231625 -0.0674,0.386041 -0.16851,0.386041 z" />
  <path
     style="fill:#cccccc;fill-opacity:1;stroke-width:0.824946"
     id="path29"
     d="M 78.799841,42.279736 H 66.600874 c -0.120783,0 -0.201304,-0.154416 -0.201304,-0.386041 0,-0.231624 0.08052,-0.386041 0.201304,-0.386041 h 12.198967 c 0.120782,0 0.201304,0.154417 0.201304,0.386041 0,0.231625 -0.08053,0.386041 -0.201304,0.386041 z" />
  <path
     style="fill:#cccccc;fill-opacity:1;stroke-width:0.824946"
     id="path30"
     d="M 76.779752,45.205833 H 66.568079 c -0.101106,0 -0.168509,-0.154416 -0.168509,-0.386041 0,-0.231624 0.0674,-0.386041 0.168509,-0.386041 h 10.211673 c 0.101106,0 0.16851,0.154417 0.16851,0.386041 0,0.231625 -0.0674,0.386041 -0.16851,0.386041 z" />
  <path
     style="fill:#cccccc;fill-opacity:1;stroke-width:0.824946"
     id="path31"
     d="m 73.859259,36.427543 h -7.338591 c -0.07266,0 -0.121098,-0.154416 -0.121098,-0.386041 0,-0.231624 0.04844,-0.386041 0.121098,-0.386041 h 7.338591 c 0.07266,0 0.121099,0.154417 0.121099,0.386041 0,0.231625 -0.04844,0.386041 -0.121099,0.386041 z" />
  <path
     style="fill:#ececec;fill-opacity:1;stroke-width:0.383166"
     id="path32"
     d="M 37.837022,74.257524 H 21.000266 c -0.247582,0 -0.412636,-0.120492 -0.412636,-0.301251 v -7.230109 c 0,-0.180763 0.165054,-0.301255 0.412636,-0.301255 h 16.836756 c 0.247582,0 0.412693,0.120492 0.412693,0.301255 v 7.230109 c 0,0.180762 -0.165054,0.301251 -0.412693,0.301251 z" />
  <path
     style="fill:#e6e7e8;fill-opacity:1;stroke-width:0.824948"
     id="path34"
     d="m 42.327382,63.646857 h -21.64935 c -0.214351,0 -0.357251,-0.209981 -0.357251,-0.524952 0,-0.314971 0.1429,-0.524952 0.357251,-0.524952 h 21.64935 c 0.21435,0 0.35725,0.209981 0.35725,0.524952 0,0.314971 -0.142901,0.524952 -0.35725,0.524952 z" />
  <path
     style="fill:#cccccc;fill-opacity:1;stroke-width:0.824946"
     id="path36"
     d="M 30.852935,69.222674 H 22.5368 c -0.08234,0 -0.13723,-0.255492 -0.13723,-0.638733 0,-0.38324 0.05489,-0.638734 0.13723,-0.638734 h 8.316135 c 0.08234,0 0.13723,0.255494 0.13723,0.638734 0,0.383241 -0.0549,0.638733 -0.13723,0.638733 z" />
  <path
     style="fill:#cccccc;fill-opacity:1;stroke-width:0.383167"
     id="path37"
     d="m 36.693167,72.741225 h -3.543775 c -0.05211,0 -0.08685,-0.07684 -0.08685,-0.192119 v -4.610918 c 0,-0.115279 0.03474,-0.192121 0.08685,-0.192121 h 3.543775 c 0.05211,0 0.08686,0.07684 0.08686,0.192121 v 4.610918 c 0,0.115279 -0.03474,0.192119 -0.08686,0.192119 z" />
  <path
     style="fill:#cccccc;fill-opacity:1;stroke-width:0.824946"
     id="path43"
     d="M 52.852935,69.222674 H 44.5368 c -0.08234,0 -0.13723,-0.255492 -0.13723,-0.638733 0,-0.38324 0.05489,-0.638734 0.13723,-0.638734 h 8.316135 c 0.08234,0 0.13723,0.255494 0.13723,0.638734 0,0.383241 -0.0549,0.638733 -0.13723,0.638733 z" />
  <path
     style="fill:#cccccc;fill-opacity:1;stroke-width:0.383167"
     id="path44"
     d="m 58.693167,72.741225 h -3.543775 c -0.05211,0 -0.08685,-0.07684 -0.08685,-0.192119 v -4.610918 c 0,-0.115279 0.03474,-0.192121 0.08685,-0.192121 h 3.543775 c 0.05211,0 0.08686,0.07684 0.08686,0.192121 v 4.610918 c 0,0.115279 -0.03474,0.192119 -0.08686,0.192119 z" />
  <path
     style="fill:#ececec;fill-opacity:1;stroke-width:0.383166"
     id="path49"
     d="M 59.837022,74.257524 H 43.000266 c -0.247582,0 -0.412636,-0.120492 -0.412636,-0.301251 v -7.230109 c 0,-0.180763 0.165054,-0.301255 0.412636,-0.301255 h 16.836756 c 0.247582,0 0.412693,0.120492 0.412693,0.301255 v 7.230109 c 0,0.180762 -0.165054,0.301251 -0.412693,0.301251 z" />
  <path
     style="fill:#cccccc;fill-opacity:1;stroke-width:0.824946"
     id="path50"
     d="M 52.852935,69.222674 H 44.5368 c -0.08234,0 -0.13723,-0.255492 -0.13723,-0.638733 0,-0.38324 0.05489,-0.638734 0.13723,-0.638734 h 8.316135 c 0.08234,0 0.13723,0.255494 0.13723,0.638734 0,0.383241 -0.0549,0.638733 -0.13723,0.638733 z" />
  <path
     style="fill:#cccccc;fill-opacity:1;stroke-width:0.383167"
     id="path51"
     d="m 58.693167,72.741225 h -3.543775 c -0.05211,0 -0.08685,-0.07684 -0.08685,-0.192119 v -4.610918 c 0,-0.115279 0.03474,-0.192121 0.08685,-0.192121 h 3.543775 c 0.05211,0 0.08686,0.07684 0.08686,0.192121 v 4.610918 c 0,0.115279 -0.03474,0.192119 -0.08686,0.192119 z" />
  <path
     style="fill:#cccccc;fill-opacity:1;stroke-width:0.824946"
     id="path56"
     d="M 74.852935,69.222674 H 66.5368 c -0.08234,0 -0.13723,-0.255492 -0.13723,-0.638733 0,-0.38324 0.05489,-0.638734 0.13723,-0.638734 h 8.316135 c 0.08234,0 0.13723,0.255494 0.13723,0.638734 0,0.383241 -0.0549,0.638733 -0.13723,0.638733 z" />
  <path
     style="fill:#cccccc;fill-opacity:1;stroke-width:0.383167"
     id="path57"
     d="m 80.693167,72.741225 h -3.543775 c -0.05211,0 -0.08685,-0.07684 -0.08685,-0.192119 v -4.610918 c 0,-0.115279 0.03474,-0.192121 0.08685,-0.192121 h 3.543775 c 0.05211,0 0.08686,0.07684 0.08686,0.192121 v 4.610918 c 0,0.115279 -0.03474,0.192119 -0.08686,0.192119 z" />
  <path
     style="fill:#ececec;fill-opacity:1;stroke-width:0.383166"
     id="path62"
     d="M 81.837022,74.257524 H 65.000266 c -0.247582,0 -0.412636,-0.120492 -0.412636,-0.301251 v -7.230109 c 0,-0.180763 0.165054,-0.301255 0.412636,-0.301255 h 16.836756 c 0.247582,0 0.412693,0.120492 0.412693,0.301255 v 7.230109 c 0,0.180762 -0.165054,0.301251 -0.412693,0.301251 z" />
  <path
     style="fill:#cccccc;fill-opacity:1;stroke-width:0.824946"
     id="path63"
     d="M 74.852935,69.222674 H 66.5368 c -0.08234,0 -0.13723,-0.255492 -0.13723,-0.638733 0,-0.38324 0.05489,-0.638734 0.13723,-0.638734 h 8.316135 c 0.08234,0 0.13723,0.255494 0.13723,0.638734 0,0.383241 -0.0549,0.638733 -0.13723,0.638733 z" />
  <path
     style="fill:#cccccc;fill-opacity:1;stroke-width:0.383167"
     id="path64"
     d="m 80.693167,72.741225 h -3.543775 c -0.05211,0 -0.08685,-0.07684 -0.08685,-0.192119 v -4.610918 c 0,-0.115279 0.03474,-0.192121 0.08685,-0.192121 h 3.543775 c 0.05211,0 0.08686,0.07684 0.08686,0.192121 v 4.610918 c 0,0.115279 -0.03474,0.192119 -0.08686,0.192119 z" />
</svg>
