<?xml version="1.0" encoding="UTF-8" standalone="no"?>
<svg
   xmlns:dc="http://purl.org/dc/elements/1.1/"
   xmlns:cc="http://creativecommons.org/ns#"
   xmlns:rdf="http://www.w3.org/1999/02/22-rdf-syntax-ns#"
   xmlns:svg="http://www.w3.org/2000/svg"
   xmlns="http://www.w3.org/2000/svg"
   version="1.1"
   viewBox="0 0 100 70"
   id="Layer_1">
  <metadata
     id="metadata15">
    <rdf:RDF>
      <cc:Work
         rdf:about="">
        <dc:format>image/svg+xml</dc:format>
        <dc:type
           rdf:resource="http://purl.org/dc/dcmitype/StillImage" />
        <dc:title></dc:title>
      </cc:Work>
    </rdf:RDF>
  </metadata>
  <defs
     id="defs13" />
  <style
     id="style2">.st2{fill:#e6e7e8}</style>
  <path
     id="path4"
     fill="#fff"
     d="M13 73.5c-1.4 0-2.5-1.1-2.5-2.5V13c0-1.4 1.1-2.5 2.5-2.5h74c1.4 0 2.5 1.1 2.5 2.5v58c0 1.4-1.1 2.5-2.5 2.5H13z" />
  <path
     id="path6"
     fill="#565d66"
     d="M87 11c1.1 0 2 .9 2 2v58c0 1.1-.9 2-2 2H13c-1.1 0-2-.9-2-2V13c0-1.1.9-2 2-2h74m0-1H13c-1.7 0-3 1.3-3 3v58c0 1.7 1.3 3 3 3h74c1.6 0 3-1.3 3-3V13c0-1.7-1.4-3-3-3z" />
  <g
     transform="translate(0,1.3613567)"
     id="g946">
    <path
       d="M 47.59211,42.309733 H 22.874016 c -0.244734,0 -0.40789,-0.2 -0.40789,-0.5 0,-0.3 0.163156,-0.5 0.40789,-0.5 H 47.59211 c 0.244734,0 0.40789,0.2 0.40789,0.5 0,0.3 -0.163156,0.5 -0.40789,0.5 z"
       id="path863"
       style="fill:#e6e7e8;fill-opacity:1;stroke-width:0.90320474" />
    <path
       d="M 47.59211,45.309733 H 22.874016 c -0.244734,0 -0.40789,-0.2 -0.40789,-0.5 0,-0.3 0.163156,-0.5 0.40789,-0.5 H 47.59211 c 0.244734,0 0.40789,0.2 0.40789,0.5 0,0.3 -0.163156,0.5 -0.40789,0.5 z"
       id="path861"
       style="fill:#e6e7e8;fill-opacity:1;stroke-width:0.90320474" />
    <path
       d="M 47.59211,48.309733 H 22.874016 c -0.244734,0 -0.40789,-0.2 -0.40789,-0.5 0,-0.3 0.163156,-0.5 0.40789,-0.5 H 47.59211 c 0.244734,0 0.40789,0.2 0.40789,0.5 0,0.3 -0.163156,0.5 -0.40789,0.5 z"
       id="path859"
       style="fill:#e6e7e8;fill-opacity:1;stroke-width:0.90320474" />
    <path
       style="fill:#d6d8d9;fill-opacity:1;stroke-width:1.02251983"
       id="path895"
       d="m 43.934682,39.309733 h -21.12004 c -0.20911,0 -0.348516,-0.3 -0.348516,-0.75 0,-0.45 0.139406,-0.75 0.348516,-0.75 h 21.12004 c 0.20911,0 0.348516,0.3 0.348516,0.75 0,0.45 -0.139406,0.75 -0.348516,0.75 z" />
    <path
       style="fill:#e6e7e8;fill-opacity:1;stroke-width:0.90320474"
       id="path897"
       d="M 47.59211,42.309733 H 22.874016 c -0.244734,0 -0.40789,-0.2 -0.40789,-0.5 0,-0.3 0.163156,-0.5 0.40789,-0.5 H 47.59211 c 0.244734,0 0.40789,0.2 0.40789,0.5 0,0.3 -0.163156,0.5 -0.40789,0.5 z" />
    <path
       style="fill:#e6e7e8;fill-opacity:1;stroke-width:0.90320474"
       id="path899"
       d="M 47.59211,45.309733 H 22.874016 c -0.244734,0 -0.40789,-0.2 -0.40789,-0.5 0,-0.3 0.163156,-0.5 0.40789,-0.5 H 47.59211 c 0.244734,0 0.40789,0.2 0.40789,0.5 0,0.3 -0.163156,0.5 -0.40789,0.5 z" />
    <path
       style="fill:#e6e7e8;fill-opacity:1;stroke-width:0.90320474"
       id="path901"
       d="M 47.59211,48.309733 H 22.874016 c -0.244734,0 -0.40789,-0.2 -0.40789,-0.5 0,-0.3 0.163156,-0.5 0.40789,-0.5 H 47.59211 c 0.244734,0 0.40789,0.2 0.40789,0.5 0,0.3 -0.163156,0.5 -0.40789,0.5 z" />
    <path
       d="m 43.934682,51.277288 h -21.12004 c -0.20911,0 -0.348516,-0.2 -0.348516,-0.5 0,-0.3 0.139406,-0.5 0.348516,-0.5 h 21.12004 c 0.20911,0 0.348516,0.2 0.348516,0.5 0,0.3 -0.139406,0.5 -0.348516,0.5 z"
       id="path911"
       style="fill:#e6e7e8;fill-opacity:1;stroke-width:0.83488393" />
    <path
       style="fill:#e6e7e8;fill-opacity:1;stroke-width:0.83488393"
       id="path921"
       d="m 43.934682,48.309733 h -21.12004 c -0.20911,0 -0.348516,-0.2 -0.348516,-0.5 0,-0.3 0.139406,-0.5 0.348516,-0.5 h 21.12004 c 0.20911,0 0.348516,0.2 0.348516,0.5 0,0.3 -0.139406,0.5 -0.348516,0.5 z" />
  </g>
  <g
     id="g961">
    <path
       d="M 47.59211,34 H 22.874016 c -0.244734,0 -0.40789,-0.2 -0.40789,-0.5 0,-0.3 0.163156,-0.5 0.40789,-0.5 H 47.59211 C 47.836844,33 48,33.2 48,33.5 48,33.8 47.836844,34 47.59211,34 Z"
       id="path867"
       style="fill:#e6e7e8;fill-opacity:1;stroke-width:0.90320474" />
    <path
       style="fill:#e6e7e8;fill-opacity:1;stroke-width:0.90320474"
       id="path893"
       d="M 47.59211,34 H 22.874016 c -0.244734,0 -0.40789,-0.2 -0.40789,-0.5 0,-0.3 0.163156,-0.5 0.40789,-0.5 H 47.59211 C 47.836844,33 48,33.2 48,33.5 48,33.8 47.836844,34 47.59211,34 Z" />
    <path
       style="fill:#e6e7e8;fill-opacity:1;stroke-width:0.90320474"
       id="path941"
       d="M 47.538962,19 H 22.820868 c -0.244734,0 -0.40789,-0.2 -0.40789,-0.5 0,-0.3 0.163156,-0.5 0.40789,-0.5 h 24.718094 c 0.244734,0 0.40789,0.2 0.40789,0.5 0,0.3 -0.163156,0.5 -0.40789,0.5 z" />
    <path
       style="fill:#e6e7e8;fill-opacity:1;stroke-width:0.90320474"
       id="path945"
       d="M 47.538962,25 H 22.820868 c -0.244734,0 -0.40789,-0.2 -0.40789,-0.5 0,-0.3 0.163156,-0.5 0.40789,-0.5 h 24.718094 c 0.244734,0 0.40789,0.2 0.40789,0.5 0,0.3 -0.163156,0.5 -0.40789,0.5 z" />
    <path
       style="fill:#e6e7e8;fill-opacity:1;stroke-width:0.90320474"
       id="path947"
       d="M 47.538962,28 H 22.820868 c -0.244734,0 -0.40789,-0.2 -0.40789,-0.5 0,-0.3 0.163156,-0.5 0.40789,-0.5 h 24.718094 c 0.244734,0 0.40789,0.2 0.40789,0.5 0,0.3 -0.163156,0.5 -0.40789,0.5 z" />
    <path
       d="M 47.538962,19 H 22.820868 c -0.244734,0 -0.40789,-0.2 -0.40789,-0.5 0,-0.3 0.163156,-0.5 0.40789,-0.5 h 24.718094 c 0.244734,0 0.40789,0.2 0.40789,0.5 0,0.3 -0.163156,0.5 -0.40789,0.5 z"
       id="path951"
       style="fill:#e6e7e8;fill-opacity:1;stroke-width:0.90320474" />
    <path
       d="M 47.538962,25 H 22.820868 c -0.244734,0 -0.40789,-0.2 -0.40789,-0.5 0,-0.3 0.163156,-0.5 0.40789,-0.5 h 24.718094 c 0.244734,0 0.40789,0.2 0.40789,0.5 0,0.3 -0.163156,0.5 -0.40789,0.5 z"
       id="path955"
       style="fill:#e6e7e8;fill-opacity:1;stroke-width:0.90320474" />
    <path
       d="M 47.538962,30.967555 H 22.820868 c -0.244734,0 -0.40789,-0.2 -0.40789,-0.5 0,-0.3 0.163156,-0.5 0.40789,-0.5 h 24.718094 c 0.244734,0 0.40789,0.2 0.40789,0.5 0,0.3 -0.163156,0.5 -0.40789,0.5 z"
       id="path961"
       style="fill:#e6e7e8;fill-opacity:1;stroke-width:0.90320474" />
    <path
       style="fill:#e6e7e8;fill-opacity:1;stroke-width:0.90320474"
       id="path963"
       d="M 47.538962,30.967555 H 22.820868 c -0.244734,0 -0.40789,-0.2 -0.40789,-0.5 0,-0.3 0.163156,-0.5 0.40789,-0.5 h 24.718094 c 0.244734,0 0.40789,0.2 0.40789,0.5 0,0.3 -0.163156,0.5 -0.40789,0.5 z" />
    <path
       d="m 43.373558,16 h -20.62031 c -0.204162,0 -0.34027,-0.3 -0.34027,-0.75 0,-0.45 0.136108,-0.75 0.34027,-0.75 h 20.62031 c 0.204162,0 0.34027,0.3 0.34027,0.75 0,0.45 -0.136108,0.75 -0.34027,0.75 z"
       id="path965"
       style="fill:#d6d8d9;fill-opacity:1;stroke-width:1.01035035" />
    <path
       d="m 43.373558,22 h -20.62031 c -0.204162,0 -0.34027,-0.2 -0.34027,-0.5 0,-0.3 0.136108,-0.5 0.34027,-0.5 h 20.62031 c 0.204162,0 0.34027,0.2 0.34027,0.5 0,0.3 -0.136108,0.5 -0.34027,0.5 z"
       id="path969"
       style="fill:#e6e7e8;fill-opacity:1;stroke-width:0.82494754" />
    <path
       style="fill:#e6e7e8;fill-opacity:1;stroke-width:0.82494754"
       id="path983"
       d="m 43.373558,28 h -20.62031 c -0.204162,0 -0.34027,-0.2 -0.34027,-0.5 0,-0.3 0.136108,-0.5 0.34027,-0.5 h 20.62031 c 0.204162,0 0.34027,0.2 0.34027,0.5 0,0.3 -0.136108,0.5 -0.34027,0.5 z" />
    <path
       style="fill:#e6e7e8;fill-opacity:1;stroke-width:0.90320474"
       id="path987"
       d="M 47.538962,30.967555 H 22.820868 c -0.244734,0 -0.40789,-0.2 -0.40789,-0.5 0,-0.3 0.163156,-0.5 0.40789,-0.5 h 24.718094 c 0.244734,0 0.40789,0.2 0.40789,0.5 0,0.3 -0.163156,0.5 -0.40789,0.5 z" />
  </g>
  <g
     transform="translate(0,4)"
     id="g935">
    <path
       style="fill:#e6e7e8;fill-opacity:1;stroke-width:0.90320474"
       id="path870"
       d="M 47.59211,58.309733 H 22.874016 c -0.244734,0 -0.40789,-0.2 -0.40789,-0.5 0,-0.3 0.163156,-0.5 0.40789,-0.5 H 47.59211 c 0.244734,0 0.40789,0.2 0.40789,0.5 0,0.3 -0.163156,0.5 -0.40789,0.5 z" />
    <path
       style="fill:#e6e7e8;fill-opacity:1;stroke-width:0.90320474"
       id="path872"
       d="M 47.59211,61.309733 H 22.874016 c -0.244734,0 -0.40789,-0.2 -0.40789,-0.5 0,-0.3 0.163156,-0.5 0.40789,-0.5 H 47.59211 c 0.244734,0 0.40789,0.2 0.40789,0.5 0,0.3 -0.163156,0.5 -0.40789,0.5 z" />
    <path
       style="fill:#e6e7e8;fill-opacity:1;stroke-width:0.90320474"
       id="path874"
       d="M 47.59211,64.309733 H 22.874016 c -0.244734,0 -0.40789,-0.2 -0.40789,-0.5 0,-0.3 0.163156,-0.5 0.40789,-0.5 H 47.59211 c 0.244734,0 0.40789,0.2 0.40789,0.5 0,0.3 -0.163156,0.5 -0.40789,0.5 z" />
    <path
       d="m 43.934682,55.309733 h -21.12004 c -0.20911,0 -0.348516,-0.3 -0.348516,-0.75 0,-0.45 0.139406,-0.75 0.348516,-0.75 h 21.12004 c 0.20911,0 0.348516,0.3 0.348516,0.75 0,0.45 -0.139406,0.75 -0.348516,0.75 z"
       id="path876"
       style="fill:#d6d8d9;fill-opacity:1;stroke-width:1.02251983" />
    <path
       d="M 47.59211,58.309733 H 22.874016 c -0.244734,0 -0.40789,-0.2 -0.40789,-0.5 0,-0.3 0.163156,-0.5 0.40789,-0.5 H 47.59211 c 0.244734,0 0.40789,0.2 0.40789,0.5 0,0.3 -0.163156,0.5 -0.40789,0.5 z"
       id="path878"
       style="fill:#e6e7e8;fill-opacity:1;stroke-width:0.90320474" />
    <path
       d="M 47.59211,61.309733 H 22.874016 c -0.244734,0 -0.40789,-0.2 -0.40789,-0.5 0,-0.3 0.163156,-0.5 0.40789,-0.5 H 47.59211 c 0.244734,0 0.40789,0.2 0.40789,0.5 0,0.3 -0.163156,0.5 -0.40789,0.5 z"
       id="path880"
       style="fill:#e6e7e8;fill-opacity:1;stroke-width:0.90320474" />
    <path
       d="M 47.59211,64.309733 H 22.874016 c -0.244734,0 -0.40789,-0.2 -0.40789,-0.5 0,-0.3 0.163156,-0.5 0.40789,-0.5 H 47.59211 c 0.244734,0 0.40789,0.2 0.40789,0.5 0,0.3 -0.163156,0.5 -0.40789,0.5 z"
       id="path882"
       style="fill:#e6e7e8;fill-opacity:1;stroke-width:0.90320474" />
    <path
       style="fill:#e6e7e8;fill-opacity:1;stroke-width:0.83488393"
       id="path884"
       d="m 43.934682,67.277288 h -21.12004 c -0.20911,0 -0.348516,-0.2 -0.348516,-0.5 0,-0.3 0.139406,-0.5 0.348516,-0.5 h 21.12004 c 0.20911,0 0.348516,0.2 0.348516,0.5 0,0.3 -0.139406,0.5 -0.348516,0.5 z" />
    <path
       d="m 43.934682,64.309733 h -21.12004 c -0.20911,0 -0.348516,-0.2 -0.348516,-0.5 0,-0.3 0.139406,-0.5 0.348516,-0.5 h 21.12004 c 0.20911,0 0.348516,0.2 0.348516,0.5 0,0.3 -0.139406,0.5 -0.348516,0.5 z"
       id="path886"
       style="fill:#e6e7e8;fill-opacity:1;stroke-width:0.83488393" />
  </g>
  <g
     transform="translate(0,1.976146)"
     id="g980">
    <path
       style="fill:#e6e7e8;fill-opacity:1;stroke-width:0.90320474"
       id="path853"
       d="M 77.59211,38.949063 H 52.874016 c -0.244734,0 -0.40789,-0.2 -0.40789,-0.5 0,-0.3 0.163156,-0.5 0.40789,-0.5 H 77.59211 c 0.244734,0 0.40789,0.2 0.40789,0.5 0,0.3 -0.163156,0.5 -0.40789,0.5 z" />
    <path
       d="m 73.934682,35.949063 h -21.12004 c -0.20911,0 -0.348516,-0.3 -0.348516,-0.75 0,-0.45 0.139406,-0.75 0.348516,-0.75 h 21.12004 c 0.20911,0 0.348516,0.3 0.348516,0.75 0,0.45 -0.139406,0.75 -0.348516,0.75 z"
       id="path862"
       style="fill:#d6d8d9;fill-opacity:1;stroke-width:1.02251983" />
    <path
       d="M 77.59211,38.949063 H 52.874016 c -0.244734,0 -0.40789,-0.2 -0.40789,-0.5 0,-0.3 0.163156,-0.5 0.40789,-0.5 H 77.59211 c 0.244734,0 0.40789,0.2 0.40789,0.5 0,0.3 -0.163156,0.5 -0.40789,0.5 z"
       id="path864"
       style="fill:#e6e7e8;fill-opacity:1;stroke-width:0.90320474" />
    <path
       d="M 72.563403,41.949063 H 52.792381 c -0.195753,0 -0.326255,-0.2 -0.326255,-0.5 0,-0.3 0.130502,-0.5 0.326255,-0.5 h 19.771022 c 0.195753,0 0.326255,0.2 0.326255,0.5 0,0.3 -0.130502,0.5 -0.326255,0.5 z"
       id="path866"
       style="fill:#e6e7e8;fill-opacity:1;stroke-width:0.80778033" />
  </g>
  <g
     transform="translate(0,4.8144531e-6)"
     id="g974">
    <path
       d="M 77.538962,19 H 52.820868 c -0.244734,0 -0.40789,-0.2 -0.40789,-0.5 0,-0.3 0.163156,-0.5 0.40789,-0.5 h 24.718094 c 0.244734,0 0.40789,0.2 0.40789,0.5 0,0.3 -0.163156,0.5 -0.40789,0.5 z"
       id="path877"
       style="fill:#e6e7e8;fill-opacity:1;stroke-width:0.90320474" />
    <path
       d="M 77.538962,25 H 52.820868 c -0.244734,0 -0.40789,-0.2 -0.40789,-0.5 0,-0.3 0.163156,-0.5 0.40789,-0.5 h 24.718094 c 0.244734,0 0.40789,0.2 0.40789,0.5 0,0.3 -0.163156,0.5 -0.40789,0.5 z"
       id="path879"
       style="fill:#e6e7e8;fill-opacity:1;stroke-width:0.90320474" />
    <path
       d="M 77.538962,28 H 52.820868 c -0.244734,0 -0.40789,-0.2 -0.40789,-0.5 0,-0.3 0.163156,-0.5 0.40789,-0.5 h 24.718094 c 0.244734,0 0.40789,0.2 0.40789,0.5 0,0.3 -0.163156,0.5 -0.40789,0.5 z"
       id="path881"
       style="fill:#e6e7e8;fill-opacity:1;stroke-width:0.90320474" />
    <path
       style="fill:#e6e7e8;fill-opacity:1;stroke-width:0.90320474"
       id="path887"
       d="M 77.538962,19 H 52.820868 c -0.244734,0 -0.40789,-0.2 -0.40789,-0.5 0,-0.3 0.163156,-0.5 0.40789,-0.5 h 24.718094 c 0.244734,0 0.40789,0.2 0.40789,0.5 0,0.3 -0.163156,0.5 -0.40789,0.5 z" />
    <path
       style="fill:#e6e7e8;fill-opacity:1;stroke-width:0.90320474"
       id="path889"
       d="M 77.538962,25 H 52.820868 c -0.244734,0 -0.40789,-0.2 -0.40789,-0.5 0,-0.3 0.163156,-0.5 0.40789,-0.5 h 24.718094 c 0.244734,0 0.40789,0.2 0.40789,0.5 0,0.3 -0.163156,0.5 -0.40789,0.5 z" />
    <path
       style="fill:#e6e7e8;fill-opacity:1;stroke-width:0.90320474"
       id="path891"
       d="M 77.538962,30.967555 H 52.820868 c -0.244734,0 -0.40789,-0.2 -0.40789,-0.5 0,-0.3 0.163156,-0.5 0.40789,-0.5 h 24.718094 c 0.244734,0 0.40789,0.2 0.40789,0.5 0,0.3 -0.163156,0.5 -0.40789,0.5 z" />
    <path
       d="M 77.538962,30.967555 H 52.820868 c -0.244734,0 -0.40789,-0.2 -0.40789,-0.5 0,-0.3 0.163156,-0.5 0.40789,-0.5 h 24.718094 c 0.244734,0 0.40789,0.2 0.40789,0.5 0,0.3 -0.163156,0.5 -0.40789,0.5 z"
       id="path894"
       style="fill:#e6e7e8;fill-opacity:1;stroke-width:0.90320474" />
    <path
       style="fill:#d6d8d9;fill-opacity:1;stroke-width:1.01035023"
       id="path896"
       d="m 73.373558,16 h -20.62031 c -0.204162,0 -0.34027,-0.3 -0.34027,-0.75 0,-0.45 0.136108,-0.75 0.34027,-0.75 h 20.62031 c 0.204162,0 0.34027,0.3 0.34027,0.75 0,0.45 -0.136108,0.75 -0.34027,0.75 z" />
    <path
       style="fill:#e6e7e8;fill-opacity:1;stroke-width:0.82494754"
       id="path898"
       d="m 73.373558,22 h -20.62031 c -0.204162,0 -0.34027,-0.2 -0.34027,-0.5 0,-0.3 0.136108,-0.5 0.34027,-0.5 h 20.62031 c 0.204162,0 0.34027,0.2 0.34027,0.5 0,0.3 -0.136108,0.5 -0.34027,0.5 z" />
    <path
       d="m 73.373558,28 h -20.62031 c -0.204162,0 -0.34027,-0.2 -0.34027,-0.5 0,-0.3 0.136108,-0.5 0.34027,-0.5 h 20.62031 c 0.204162,0 0.34027,0.2 0.34027,0.5 0,0.3 -0.136108,0.5 -0.34027,0.5 z"
       id="path900"
       style="fill:#e6e7e8;fill-opacity:1;stroke-width:0.82494754" />
    <path
       d="M 77.538962,30.967555 H 52.820868 c -0.244734,0 -0.40789,-0.2 -0.40789,-0.5 0,-0.3 0.163156,-0.5 0.40789,-0.5 h 24.718094 c 0.244734,0 0.40789,0.2 0.40789,0.5 0,0.3 -0.163156,0.5 -0.40789,0.5 z"
       id="path902"
       style="fill:#e6e7e8;fill-opacity:1;stroke-width:0.90320474" />
  </g>
  <g
     transform="translate(0,4)"
     id="g992">
    <g
       id="g1004">
      <path
         style="fill:#e6e7e8;fill-opacity:1;stroke-width:0.90320474"
         id="path860"
         d="M 77.59211,61.882858 H 52.874016 c -0.244734,0 -0.40789,-0.2 -0.40789,-0.5 0,-0.3 0.163156,-0.5 0.40789,-0.5 H 77.59211 c 0.244734,0 0.40789,0.2 0.40789,0.5 0,0.3 -0.163156,0.5 -0.40789,0.5 z" />
      <path
         style="fill:#e6e7e8;fill-opacity:1;stroke-width:0.90320474"
         id="path904"
         d="M 77.59211,49.882858 H 52.874016 c -0.244734,0 -0.40789,-0.2 -0.40789,-0.5 0,-0.3 0.163156,-0.5 0.40789,-0.5 H 77.59211 c 0.244734,0 0.40789,0.2 0.40789,0.5 0,0.3 -0.163156,0.5 -0.40789,0.5 z" />
      <path
         style="fill:#e6e7e8;fill-opacity:1;stroke-width:0.90320474"
         id="path906"
         d="M 77.59211,52.882858 H 52.874016 c -0.244734,0 -0.40789,-0.2 -0.40789,-0.5 0,-0.3 0.163156,-0.5 0.40789,-0.5 H 77.59211 c 0.244734,0 0.40789,0.2 0.40789,0.5 0,0.3 -0.163156,0.5 -0.40789,0.5 z" />
      <path
         style="fill:#e6e7e8;fill-opacity:1;stroke-width:0.90320474"
         id="path908"
         d="M 77.59211,55.882858 H 52.874016 c -0.244734,0 -0.40789,-0.2 -0.40789,-0.5 0,-0.3 0.163156,-0.5 0.40789,-0.5 H 77.59211 c 0.244734,0 0.40789,0.2 0.40789,0.5 0,0.3 -0.163156,0.5 -0.40789,0.5 z" />
      <path
         d="m 73.934682,46.882858 h -21.12004 c -0.20911,0 -0.348516,-0.3 -0.348516,-0.75 0,-0.45 0.139406,-0.75 0.348516,-0.75 h 21.12004 c 0.20911,0 0.348516,0.3 0.348516,0.75 0,0.45 -0.139406,0.75 -0.348516,0.75 z"
         id="path910"
         style="fill:#d6d8d9;fill-opacity:1;stroke-width:1.02251983" />
      <path
         d="M 77.59211,49.882858 H 52.874016 c -0.244734,0 -0.40789,-0.2 -0.40789,-0.5 0,-0.3 0.163156,-0.5 0.40789,-0.5 H 77.59211 c 0.244734,0 0.40789,0.2 0.40789,0.5 0,0.3 -0.163156,0.5 -0.40789,0.5 z"
         id="path912"
         style="fill:#e6e7e8;fill-opacity:1;stroke-width:0.90320474" />
      <path
         d="M 77.59211,52.882858 H 52.874016 c -0.244734,0 -0.40789,-0.2 -0.40789,-0.5 0,-0.3 0.163156,-0.5 0.40789,-0.5 H 77.59211 c 0.244734,0 0.40789,0.2 0.40789,0.5 0,0.3 -0.163156,0.5 -0.40789,0.5 z"
         id="path914"
         style="fill:#e6e7e8;fill-opacity:1;stroke-width:0.90320474" />
      <path
         d="M 77.59211,55.882858 H 52.874016 c -0.244734,0 -0.40789,-0.2 -0.40789,-0.5 0,-0.3 0.163156,-0.5 0.40789,-0.5 H 77.59211 c 0.244734,0 0.40789,0.2 0.40789,0.5 0,0.3 -0.163156,0.5 -0.40789,0.5 z"
         id="path916"
         style="fill:#e6e7e8;fill-opacity:1;stroke-width:0.90320474" />
      <path
         style="fill:#e6e7e8;fill-opacity:1;stroke-width:0.83488393"
         id="path918"
         d="m 73.934682,58.850413 h -21.12004 c -0.20911,0 -0.348516,-0.2 -0.348516,-0.5 0,-0.3 0.139406,-0.5 0.348516,-0.5 h 21.12004 c 0.20911,0 0.348516,0.2 0.348516,0.5 0,0.3 -0.139406,0.5 -0.348516,0.5 z" />
      <path
         d="m 73.934682,55.882858 h -21.12004 c -0.20911,0 -0.348516,-0.2 -0.348516,-0.5 0,-0.3 0.139406,-0.5 0.348516,-0.5 h 21.12004 c 0.20911,0 0.348516,0.2 0.348516,0.5 0,0.3 -0.139406,0.5 -0.348516,0.5 z"
         id="path920"
         style="fill:#e6e7e8;fill-opacity:1;stroke-width:0.83488393" />
    </g>
  </g>
</svg>
