<?xml version="1.0" encoding="UTF-8" standalone="no"?>
<svg
   version="1.1"
   viewBox="0 0 100 70"
   id="Layer_1"
   xmlns="http://www.w3.org/2000/svg"
   xmlns:svg="http://www.w3.org/2000/svg"
   xmlns:rdf="http://www.w3.org/1999/02/22-rdf-syntax-ns#"
   xmlns:cc="http://creativecommons.org/ns#"
   xmlns:dc="http://purl.org/dc/elements/1.1/">
  <metadata
     id="metadata15">
    <rdf:RDF>
      <cc:Work
         rdf:about="">
        <dc:format>image/svg+xml</dc:format>
        <dc:type
           rdf:resource="http://purl.org/dc/dcmitype/StillImage" />
      </cc:Work>
    </rdf:RDF>
  </metadata>
  <defs
     id="defs13" />
  <style
     id="style2">.st2{fill:#e6e7e8}</style>
  <path
     id="path4"
     fill="#fff"
     d="M13 73.5c-1.4 0-2.5-1.1-2.5-2.5V13c0-1.4 1.1-2.5 2.5-2.5h74c1.4 0 2.5 1.1 2.5 2.5v58c0 1.4-1.1 2.5-2.5 2.5H13z" />
  <g
     transform="translate(-0.053148,25.466753)"
     id="g946">
    <path
       d="M 47.59211,42.309733 H 22.874016 c -0.244734,0 -0.40789,-0.2 -0.40789,-0.5 0,-0.3 0.163156,-0.5 0.40789,-0.5 H 47.59211 c 0.244734,0 0.40789,0.2 0.40789,0.5 0,0.3 -0.163156,0.5 -0.40789,0.5 z"
       id="path863"
       style="fill:#e6e7e8;fill-opacity:1;stroke-width:0.903205" />
    <path
       d="M 47.59211,45.309733 H 22.874016 c -0.244734,0 -0.40789,-0.2 -0.40789,-0.5 0,-0.3 0.163156,-0.5 0.40789,-0.5 H 47.59211 c 0.244734,0 0.40789,0.2 0.40789,0.5 0,0.3 -0.163156,0.5 -0.40789,0.5 z"
       id="path861"
       style="fill:#e6e7e8;fill-opacity:1;stroke-width:0.903205" />
    <path
       d="M 47.59211,48.309733 H 22.874016 c -0.244734,0 -0.40789,-0.2 -0.40789,-0.5 0,-0.3 0.163156,-0.5 0.40789,-0.5 H 47.59211 c 0.244734,0 0.40789,0.2 0.40789,0.5 0,0.3 -0.163156,0.5 -0.40789,0.5 z"
       id="path859"
       style="fill:#e6e7e8;fill-opacity:1;stroke-width:0.903205" />
    <path
       style="fill:#d6d8d9;fill-opacity:1;stroke-width:1.02252"
       id="path895"
       d="m 43.934682,39.309733 h -21.12004 c -0.20911,0 -0.348516,-0.3 -0.348516,-0.75 0,-0.45 0.139406,-0.75 0.348516,-0.75 h 21.12004 c 0.20911,0 0.348516,0.3 0.348516,0.75 0,0.45 -0.139406,0.75 -0.348516,0.75 z" />
    <path
       style="fill:#e6e7e8;fill-opacity:1;stroke-width:0.903205"
       id="path897"
       d="M 47.59211,42.309733 H 22.874016 c -0.244734,0 -0.40789,-0.2 -0.40789,-0.5 0,-0.3 0.163156,-0.5 0.40789,-0.5 H 47.59211 c 0.244734,0 0.40789,0.2 0.40789,0.5 0,0.3 -0.163156,0.5 -0.40789,0.5 z" />
    <path
       style="fill:#e6e7e8;fill-opacity:1;stroke-width:0.903205"
       id="path899"
       d="M 47.59211,45.309733 H 22.874016 c -0.244734,0 -0.40789,-0.2 -0.40789,-0.5 0,-0.3 0.163156,-0.5 0.40789,-0.5 H 47.59211 c 0.244734,0 0.40789,0.2 0.40789,0.5 0,0.3 -0.163156,0.5 -0.40789,0.5 z" />
    <path
       style="fill:#e6e7e8;fill-opacity:1;stroke-width:0.903205"
       id="path901"
       d="M 47.59211,48.309733 H 22.874016 c -0.244734,0 -0.40789,-0.2 -0.40789,-0.5 0,-0.3 0.163156,-0.5 0.40789,-0.5 H 47.59211 c 0.244734,0 0.40789,0.2 0.40789,0.5 0,0.3 -0.163156,0.5 -0.40789,0.5 z" />
    <path
       d="m 43.934682,51.277288 h -21.12004 c -0.20911,0 -0.348516,-0.2 -0.348516,-0.5 0,-0.3 0.139406,-0.5 0.348516,-0.5 h 21.12004 c 0.20911,0 0.348516,0.2 0.348516,0.5 0,0.3 -0.139406,0.5 -0.348516,0.5 z"
       id="path911"
       style="fill:#e6e7e8;fill-opacity:1;stroke-width:0.834884" />
    <path
       style="fill:#e6e7e8;fill-opacity:1;stroke-width:0.834884"
       id="path921"
       d="m 43.934682,48.309733 h -21.12004 c -0.20911,0 -0.348516,-0.2 -0.348516,-0.5 0,-0.3 0.139406,-0.5 0.348516,-0.5 h 21.12004 c 0.20911,0 0.348516,0.2 0.348516,0.5 0,0.3 -0.139406,0.5 -0.348516,0.5 z" />
  </g>
  <g
     transform="translate(-0.053148,25.434845)"
     id="g980">
    <path
       style="fill:#e6e7e8;fill-opacity:1;stroke-width:0.903205"
       id="path853"
       d="M 77.59211,38.949063 H 52.874016 c -0.244734,0 -0.40789,-0.2 -0.40789,-0.5 0,-0.3 0.163156,-0.5 0.40789,-0.5 H 77.59211 c 0.244734,0 0.40789,0.2 0.40789,0.5 0,0.3 -0.163156,0.5 -0.40789,0.5 z" />
    <path
       d="m 73.934682,35.949063 h -21.12004 c -0.20911,0 -0.348516,-0.3 -0.348516,-0.75 0,-0.45 0.139406,-0.75 0.348516,-0.75 h 21.12004 c 0.20911,0 0.348516,0.3 0.348516,0.75 0,0.45 -0.139406,0.75 -0.348516,0.75 z"
       id="path862"
       style="fill:#d6d8d9;fill-opacity:1;stroke-width:1.02252" />
    <path
       d="M 77.59211,38.949063 H 52.874016 c -0.244734,0 -0.40789,-0.2 -0.40789,-0.5 0,-0.3 0.163156,-0.5 0.40789,-0.5 H 77.59211 c 0.244734,0 0.40789,0.2 0.40789,0.5 0,0.3 -0.163156,0.5 -0.40789,0.5 z"
       id="path864"
       style="fill:#e6e7e8;fill-opacity:1;stroke-width:0.903205" />
    <path
       d="M 72.563403,41.949063 H 52.792381 c -0.195753,0 -0.326255,-0.2 -0.326255,-0.5 0,-0.3 0.130502,-0.5 0.326255,-0.5 h 19.771022 c 0.195753,0 0.326255,0.2 0.326255,0.5 0,0.3 -0.130502,0.5 -0.326255,0.5 z"
       id="path866"
       style="fill:#e6e7e8;fill-opacity:1;stroke-width:0.80778" />
  </g>
  <path
     id="path6"
     fill="#565d66"
     d="M87 11c1.1 0 2 .9 2 2v58c0 1.1-.9 2-2 2H13c-1.1 0-2-.9-2-2V13c0-1.1.9-2 2-2h74m0-1H13c-1.7 0-3 1.3-3 3v58c0 1.7 1.3 3 3 3h74c1.6 0 3-1.3 3-3V13c0-1.7-1.4-3-3-3z" />
  <g
     id="g1275"
     transform="translate(0,17.023737)">
    <path
       d="M 47.59211,40 H 22.874016 c -0.244734,0 -0.40789,-0.2 -0.40789,-0.5 0,-0.3 0.163156,-0.5 0.40789,-0.5 H 47.59211 C 47.836844,39 48,39.2 48,39.5 48,39.8 47.836844,40 47.59211,40 Z"
       id="path867"
       style="fill:#e6e7e8;fill-opacity:1;stroke-width:0.903205" />
    <path
       style="fill:#e6e7e8;fill-opacity:1;stroke-width:0.903205"
       id="path893"
       d="M 47.59211,40 H 22.874016 c -0.244734,0 -0.40789,-0.2 -0.40789,-0.5 0,-0.3 0.163156,-0.5 0.40789,-0.5 H 47.59211 C 47.836844,39 48,39.2 48,39.5 48,39.8 47.836844,40 47.59211,40 Z" />
    <path
       style="fill:#e6e7e8;fill-opacity:1;stroke-width:0.903205"
       id="path941"
       d="M 47.538962,25 H 22.820868 c -0.244734,0 -0.40789,-0.2 -0.40789,-0.5 0,-0.3 0.163156,-0.5 0.40789,-0.5 h 24.718094 c 0.244734,0 0.40789,0.2 0.40789,0.5 0,0.3 -0.163156,0.5 -0.40789,0.5 z" />
    <path
       style="fill:#e6e7e8;fill-opacity:1;stroke-width:0.903205"
       id="path945"
       d="M 47.538962,31 H 22.820868 c -0.244734,0 -0.40789,-0.2 -0.40789,-0.5 0,-0.3 0.163156,-0.5 0.40789,-0.5 h 24.718094 c 0.244734,0 0.40789,0.2 0.40789,0.5 0,0.3 -0.163156,0.5 -0.40789,0.5 z" />
    <path
       style="fill:#e6e7e8;fill-opacity:1;stroke-width:0.903205"
       id="path947"
       d="M 47.538962,34 H 22.820868 c -0.244734,0 -0.40789,-0.2 -0.40789,-0.5 0,-0.3 0.163156,-0.5 0.40789,-0.5 h 24.718094 c 0.244734,0 0.40789,0.2 0.40789,0.5 0,0.3 -0.163156,0.5 -0.40789,0.5 z" />
    <path
       d="M 47.538962,25 H 22.820868 c -0.244734,0 -0.40789,-0.2 -0.40789,-0.5 0,-0.3 0.163156,-0.5 0.40789,-0.5 h 24.718094 c 0.244734,0 0.40789,0.2 0.40789,0.5 0,0.3 -0.163156,0.5 -0.40789,0.5 z"
       id="path951"
       style="fill:#e6e7e8;fill-opacity:1;stroke-width:0.903205" />
    <path
       d="M 47.538962,31 H 22.820868 c -0.244734,0 -0.40789,-0.2 -0.40789,-0.5 0,-0.3 0.163156,-0.5 0.40789,-0.5 h 24.718094 c 0.244734,0 0.40789,0.2 0.40789,0.5 0,0.3 -0.163156,0.5 -0.40789,0.5 z"
       id="path955"
       style="fill:#e6e7e8;fill-opacity:1;stroke-width:0.903205" />
    <path
       d="M 47.538962,36.967555 H 22.820868 c -0.244734,0 -0.40789,-0.2 -0.40789,-0.5 0,-0.3 0.163156,-0.5 0.40789,-0.5 h 24.718094 c 0.244734,0 0.40789,0.2 0.40789,0.5 0,0.3 -0.163156,0.5 -0.40789,0.5 z"
       id="path961"
       style="fill:#e6e7e8;fill-opacity:1;stroke-width:0.903205" />
    <path
       style="fill:#e6e7e8;fill-opacity:1;stroke-width:0.903205"
       id="path963"
       d="M 47.538962,36.967555 H 22.820868 c -0.244734,0 -0.40789,-0.2 -0.40789,-0.5 0,-0.3 0.163156,-0.5 0.40789,-0.5 h 24.718094 c 0.244734,0 0.40789,0.2 0.40789,0.5 0,0.3 -0.163156,0.5 -0.40789,0.5 z" />
    <path
       d="m 43.373558,22 h -20.62031 c -0.204162,0 -0.34027,-0.3 -0.34027,-0.75 0,-0.45 0.136108,-0.75 0.34027,-0.75 h 20.62031 c 0.204162,0 0.34027,0.3 0.34027,0.75 0,0.45 -0.136108,0.75 -0.34027,0.75 z"
       id="path965"
       style="fill:#d6d8d9;fill-opacity:1;stroke-width:1.01035" />
    <path
       d="m 43.373558,28 h -20.62031 c -0.204162,0 -0.34027,-0.2 -0.34027,-0.5 0,-0.3 0.136108,-0.5 0.34027,-0.5 h 20.62031 c 0.204162,0 0.34027,0.2 0.34027,0.5 0,0.3 -0.136108,0.5 -0.34027,0.5 z"
       id="path969"
       style="fill:#e6e7e8;fill-opacity:1;stroke-width:0.824948" />
    <path
       style="fill:#e6e7e8;fill-opacity:1;stroke-width:0.824948"
       id="path983"
       d="m 43.373558,34 h -20.62031 c -0.204162,0 -0.34027,-0.2 -0.34027,-0.5 0,-0.3 0.136108,-0.5 0.34027,-0.5 h 20.62031 c 0.204162,0 0.34027,0.2 0.34027,0.5 0,0.3 -0.136108,0.5 -0.34027,0.5 z" />
    <path
       style="fill:#e6e7e8;fill-opacity:1;stroke-width:0.903205"
       id="path987"
       d="M 47.538962,36.967555 H 22.820868 c -0.244734,0 -0.40789,-0.2 -0.40789,-0.5 0,-0.3 0.163156,-0.5 0.40789,-0.5 h 24.718094 c 0.244734,0 0.40789,0.2 0.40789,0.5 0,0.3 -0.163156,0.5 -0.40789,0.5 z" />
  </g>
  <g
     id="g974"
     transform="translate(0,23.023737)">
    <path
       d="M 77.538962,19 H 52.820868 c -0.244734,0 -0.40789,-0.2 -0.40789,-0.5 0,-0.3 0.163156,-0.5 0.40789,-0.5 h 24.718094 c 0.244734,0 0.40789,0.2 0.40789,0.5 0,0.3 -0.163156,0.5 -0.40789,0.5 z"
       id="path877"
       style="fill:#e6e7e8;fill-opacity:1;stroke-width:0.903205" />
    <path
       d="M 77.538962,25 H 52.820868 c -0.244734,0 -0.40789,-0.2 -0.40789,-0.5 0,-0.3 0.163156,-0.5 0.40789,-0.5 h 24.718094 c 0.244734,0 0.40789,0.2 0.40789,0.5 0,0.3 -0.163156,0.5 -0.40789,0.5 z"
       id="path879"
       style="fill:#e6e7e8;fill-opacity:1;stroke-width:0.903205" />
    <path
       d="M 77.538962,28 H 52.820868 c -0.244734,0 -0.40789,-0.2 -0.40789,-0.5 0,-0.3 0.163156,-0.5 0.40789,-0.5 h 24.718094 c 0.244734,0 0.40789,0.2 0.40789,0.5 0,0.3 -0.163156,0.5 -0.40789,0.5 z"
       id="path881"
       style="fill:#e6e7e8;fill-opacity:1;stroke-width:0.903205" />
    <path
       style="fill:#e6e7e8;fill-opacity:1;stroke-width:0.903205"
       id="path887"
       d="M 77.538962,19 H 52.820868 c -0.244734,0 -0.40789,-0.2 -0.40789,-0.5 0,-0.3 0.163156,-0.5 0.40789,-0.5 h 24.718094 c 0.244734,0 0.40789,0.2 0.40789,0.5 0,0.3 -0.163156,0.5 -0.40789,0.5 z" />
    <path
       style="fill:#e6e7e8;fill-opacity:1;stroke-width:0.903205"
       id="path889"
       d="M 77.538962,25 H 52.820868 c -0.244734,0 -0.40789,-0.2 -0.40789,-0.5 0,-0.3 0.163156,-0.5 0.40789,-0.5 h 24.718094 c 0.244734,0 0.40789,0.2 0.40789,0.5 0,0.3 -0.163156,0.5 -0.40789,0.5 z" />
    <path
       style="fill:#e6e7e8;fill-opacity:1;stroke-width:0.903205"
       id="path891"
       d="M 77.538962,30.967555 H 52.820868 c -0.244734,0 -0.40789,-0.2 -0.40789,-0.5 0,-0.3 0.163156,-0.5 0.40789,-0.5 h 24.718094 c 0.244734,0 0.40789,0.2 0.40789,0.5 0,0.3 -0.163156,0.5 -0.40789,0.5 z" />
    <path
       d="M 77.538962,30.967555 H 52.820868 c -0.244734,0 -0.40789,-0.2 -0.40789,-0.5 0,-0.3 0.163156,-0.5 0.40789,-0.5 h 24.718094 c 0.244734,0 0.40789,0.2 0.40789,0.5 0,0.3 -0.163156,0.5 -0.40789,0.5 z"
       id="path894"
       style="fill:#e6e7e8;fill-opacity:1;stroke-width:0.903205" />
    <path
       style="fill:#d6d8d9;fill-opacity:1;stroke-width:1.01035"
       id="path896"
       d="m 73.373558,16 h -20.62031 c -0.204162,0 -0.34027,-0.3 -0.34027,-0.75 0,-0.45 0.136108,-0.75 0.34027,-0.75 h 20.62031 c 0.204162,0 0.34027,0.3 0.34027,0.75 0,0.45 -0.136108,0.75 -0.34027,0.75 z" />
    <path
       style="fill:#e6e7e8;fill-opacity:1;stroke-width:0.824948"
       id="path898"
       d="m 73.373558,22 h -20.62031 c -0.204162,0 -0.34027,-0.2 -0.34027,-0.5 0,-0.3 0.136108,-0.5 0.34027,-0.5 h 20.62031 c 0.204162,0 0.34027,0.2 0.34027,0.5 0,0.3 -0.136108,0.5 -0.34027,0.5 z" />
    <path
       d="m 73.373558,28 h -20.62031 c -0.204162,0 -0.34027,-0.2 -0.34027,-0.5 0,-0.3 0.136108,-0.5 0.34027,-0.5 h 20.62031 c 0.204162,0 0.34027,0.2 0.34027,0.5 0,0.3 -0.136108,0.5 -0.34027,0.5 z"
       id="path900"
       style="fill:#e6e7e8;fill-opacity:1;stroke-width:0.824948" />
    <path
       d="M 77.538962,30.967555 H 52.820868 c -0.244734,0 -0.40789,-0.2 -0.40789,-0.5 0,-0.3 0.163156,-0.5 0.40789,-0.5 h 24.718094 c 0.244734,0 0.40789,0.2 0.40789,0.5 0,0.3 -0.163156,0.5 -0.40789,0.5 z"
       id="path902"
       style="fill:#e6e7e8;fill-opacity:1;stroke-width:0.903205" />
  </g>
  <path
     d="M 34.124529,30.263033 H 22.417157 c -0.115922,0 -0.193192,-0.320549 -0.193192,-0.801373 0,-0.480823 0.07727,-0.801372 0.193192,-0.801372 h 11.707372 c 0.11591,0 0.193191,0.320549 0.193191,0.801372 0,0.480824 -0.07727,0.801373 -0.193191,0.801373 z"
     id="path907"
     style="fill:#b3b3b3;fill-opacity:1;stroke-width:0.786941" />
  <rect
     style="fill:#d6d8d9;fill-opacity:1;stroke:#ffca47;stroke-width:0;stroke-opacity:0"
     id="rect2732"
     width="5.7273903"
     height="0.71896839"
     x="26.597965"
     y="-39.494907"
     transform="rotate(90)" />
  <rect
     style="fill:#d6d8d9;fill-opacity:1;stroke:#ffca47;stroke-width:0;stroke-opacity:0"
     id="rect2734"
     width="5.7273903"
     height="0.71896839"
     x="26.597965"
     y="-17.765747"
     transform="rotate(90)" />
  <path
     d="M 57.367091,30.263033 H 42.632915 c -0.145892,0 -0.243139,-0.320549 -0.243139,-0.801373 0,-0.480823 0.09725,-0.801372 0.243139,-0.801372 h 14.734176 c 0.145877,0 0.243139,0.320549 0.243139,0.801372 0,0.480824 -0.09725,0.801373 -0.243139,0.801373 z"
     id="path2818"
     style="fill:#b3b3b3;fill-opacity:1;stroke-width:0.882827" />
  <path
     d="m 75.638712,30.263033 h -7.819105 c -0.07742,0 -0.129028,-0.320549 -0.129028,-0.801373 0,-0.480823 0.05161,-0.801372 0.129028,-0.801372 h 7.819105 c 0.07741,0 0.129028,0.320549 0.129028,0.801372 0,0.480824 -0.05161,0.801373 -0.129028,0.801373 z"
     id="path2820"
     style="fill:#b3b3b3;fill-opacity:1;stroke-width:0.643119" />
  <rect
     style="fill:#e6e6e6;fill-opacity:1;stroke:#ffca47;stroke-width:0;stroke-opacity:0"
     id="rect2822"
     width="22.448126"
     height="0.71896839"
     x="38.77594"
     y="25.878998" />
  <rect
     style="fill:#d6d8d9;fill-opacity:1;stroke:#ffca47;stroke-width:0;stroke-opacity:0"
     id="rect2824"
     width="5.7273903"
     height="0.71896839"
     x="26.597965"
     y="-61.224068"
     transform="rotate(90)" />
  <rect
     style="fill:#d6d8d9;fill-opacity:1;stroke:#ffca47;stroke-width:0;stroke-opacity:0"
     id="rect2826"
     width="5.7273903"
     height="0.71896839"
     x="26.597965"
     y="-39.494907"
     transform="rotate(90)" />
  <rect
     style="fill:#e6e6e6;fill-opacity:1;stroke:#ffca47;stroke-width:0;stroke-opacity:0"
     id="rect2828"
     width="22.448126"
     height="0.71896839"
     x="60.505096"
     y="25.878998" />
  <rect
     style="fill:#e6e6e6;fill-opacity:1;stroke:#ffca47;stroke-width:0;stroke-opacity:0"
     id="rect2830"
     width="5.7273903"
     height="0.71896839"
     x="26.597965"
     y="-82.953217"
     transform="rotate(90)" />
  <rect
     style="fill:#e6e6e6;fill-opacity:1;stroke:#ffca47;stroke-width:0;stroke-opacity:0"
     id="rect2832"
     width="5.7273903"
     height="0.71896839"
     x="26.597965"
     y="-61.224064"
     transform="rotate(90)" />
  <rect
     style="fill:#d6d8d9;fill-opacity:1;stroke:#ffca47;stroke-width:0;stroke-opacity:0"
     id="rect969"
     width="77.997292"
     height="0.71896839"
     x="11.00828"
     y="31.878998" />
  <rect
     style="fill:#ffffff;fill-opacity:1;stroke:#ffca47;stroke-width:0;stroke-opacity:0"
     id="rect2834"
     width="21.006899"
     height="1.3244373"
     x="17.765749"
     y="31.576263" />
  <rect
     style="fill:#d6d8d9;fill-opacity:1;stroke:#ffca47;stroke-width:0;stroke-opacity:0"
     id="rect2730"
     width="22.448126"
     height="0.71896839"
     x="17.04678"
     y="25.878998" />
</svg>
