<?xml version="1.0" encoding="UTF-8" standalone="no"?>
<svg
   version="1.1"
   viewBox="0 0 100 70"
   id="Layer_1"
   xmlns="http://www.w3.org/2000/svg"
   xmlns:svg="http://www.w3.org/2000/svg"
   xmlns:rdf="http://www.w3.org/1999/02/22-rdf-syntax-ns#"
   xmlns:cc="http://creativecommons.org/ns#"
   xmlns:dc="http://purl.org/dc/elements/1.1/">
  <metadata
     id="metadata15">
    <rdf:RDF>
      <cc:Work
         rdf:about="">
        <dc:format>image/svg+xml</dc:format>
        <dc:type
           rdf:resource="http://purl.org/dc/dcmitype/StillImage" />
      </cc:Work>
    </rdf:RDF>
  </metadata>
  <defs
     id="defs13" />
  <style
     id="style2">.st2{fill:#e6e7e8}</style>
  <path
     id="path4"
     fill="#fff"
     d="M13 73.5c-1.4 0-2.5-1.1-2.5-2.5V13c0-1.4 1.1-2.5 2.5-2.5h74c1.4 0 2.5 1.1 2.5 2.5v58c0 1.4-1.1 2.5-2.5 2.5H13z" />
  <path
     id="path6"
     fill="#565d66"
     d="M87 11c1.1 0 2 .9 2 2v58c0 1.1-.9 2-2 2H13c-1.1 0-2-.9-2-2V13c0-1.1.9-2 2-2h74m0-1H13c-1.7 0-3 1.3-3 3v58c0 1.7 1.3 3 3 3h74c1.6 0 3-1.3 3-3V13c0-1.7-1.4-3-3-3z" />
  <path
     style="fill:#e6e7e8;fill-opacity:1;stroke-width:0.639801"
     id="path875"
     d="M 64.148694,32.578236 H 35.82834 c -0.154475,0 -0.257459,-0.158994 -0.257459,-0.397485 V 15.486309 c 0,-0.238492 0.102985,-0.397486 0.257459,-0.397486 h 28.320354 c 0.154475,0 0.257459,0.158994 0.257459,0.397486 v 16.694442 c 0,0.238491 -0.102985,0.397485 -0.257459,0.397485 z" />
  <path
     style="fill:#e6e7e8;fill-opacity:1;stroke-width:0.383166"
     id="path869"
     d="m 61.862167,40.970147 h -6.092303 c -0.08959,0 -0.149321,-0.09832 -0.149321,-0.245805 v -5.899335 c 0,-0.147484 0.05973,-0.245805 0.149321,-0.245805 h 6.092303 c 0.08959,0 0.149322,0.09832 0.149322,0.245805 v 5.899335 c 0,0.147483 -0.05973,0.245805 -0.149322,0.245805 z" />
  <path
     style="fill:#e6e7e8;fill-opacity:1;stroke-width:0.90320474"
     id="path867"
     d="M 77.59211,56 H 52.874016 c -0.244734,0 -0.40789,-0.2 -0.40789,-0.5 0,-0.3 0.163156,-0.5 0.40789,-0.5 H 77.59211 C 77.836844,55 78,55.2 78,55.5 78,55.8 77.836844,56 77.59211,56 Z" />
  <path
     style="fill:#e6e7e8;fill-opacity:1;stroke-width:0.90320474"
     id="path863"
     d="M 77.59211,62 H 52.874016 c -0.244734,0 -0.40789,-0.2 -0.40789,-0.5 0,-0.3 0.163156,-0.5 0.40789,-0.5 H 77.59211 C 77.836844,61 78,61.2 78,61.5 78,61.8 77.836844,62 77.59211,62 Z" />
  <path
     style="fill:#e6e7e8;fill-opacity:1;stroke-width:0.90320474"
     id="path861"
     d="M 77.59211,65 H 52.874016 c -0.244734,0 -0.40789,-0.2 -0.40789,-0.5 0,-0.3 0.163156,-0.5 0.40789,-0.5 H 77.59211 C 77.836844,64 78,64.2 78,64.5 78,64.8 77.836844,65 77.59211,65 Z" />
  <path
     style="fill:#e6e7e8;fill-opacity:1;stroke-width:0.90320474"
     id="path859"
     d="M 77.59211,68 H 52.874016 c -0.244734,0 -0.40789,-0.2 -0.40789,-0.5 0,-0.3 0.163156,-0.5 0.40789,-0.5 H 77.59211 C 77.836844,67 78,67.2 78,67.5 78,67.8 77.836844,68 77.59211,68 Z" />
  <path
     d="m 70.471695,40.970147 h -6.092303 c -0.08959,0 -0.149322,-0.09832 -0.149322,-0.245805 v -5.899335 c 0,-0.147484 0.05973,-0.245805 0.149322,-0.245805 h 6.092303 c 0.08959,0 0.149321,0.09832 0.149321,0.245805 v 5.899335 c 0,0.147483 -0.05973,0.245805 -0.149321,0.245805 z"
     id="path883"
     style="fill:#e6e7e8;fill-opacity:1;stroke-width:0.383166" />
  <path
     d="m 53.252639,40.970147 h -6.092303 c -0.08959,0 -0.149322,-0.09832 -0.149322,-0.245805 v -5.899335 c 0,-0.147484 0.05973,-0.245805 0.149322,-0.245805 h 6.092303 c 0.08959,0 0.149322,0.09832 0.149322,0.245805 v 5.899335 c 0,0.147483 -0.05973,0.245805 -0.149322,0.245805 z"
     id="path885"
     style="fill:#e6e7e8;fill-opacity:1;stroke-width:0.383166" />
  <path
     style="fill:#e6e7e8;fill-opacity:1;stroke-width:0.383166"
     id="path887"
     d="m 44.643111,40.970147 h -6.092304 c -0.08959,0 -0.149321,-0.09832 -0.149321,-0.245805 v -5.899335 c 0,-0.147484 0.05973,-0.245805 0.149321,-0.245805 h 6.092304 c 0.08959,0 0.149321,0.09832 0.149321,0.245805 v 5.899335 c 0,0.147483 -0.05973,0.245805 -0.149321,0.245805 z" />
  <path
     style="fill:#e6e7e8;fill-opacity:1;stroke-width:0.383166"
     id="path891"
     d="m 36.033582,40.970147 h -6.092303 c -0.08959,0 -0.149321,-0.09832 -0.149321,-0.245805 v -5.899335 c 0,-0.147484 0.05973,-0.245805 0.149321,-0.245805 h 6.092303 c 0.08959,0 0.149322,0.09832 0.149322,0.245805 v 5.899335 c 0,0.147483 -0.05973,0.245805 -0.149322,0.245805 z" />
  <path
     d="M 77.59211,56 H 52.874016 c -0.244734,0 -0.40789,-0.2 -0.40789,-0.5 0,-0.3 0.163156,-0.5 0.40789,-0.5 H 77.59211 C 77.836844,55 78,55.2 78,55.5 78,55.8 77.836844,56 77.59211,56 Z"
     id="path893"
     style="fill:#e6e7e8;fill-opacity:1;stroke-width:0.90320474" />
  <path
     d="m 73.934682,59 h -21.12004 c -0.20911,0 -0.348516,-0.2 -0.348516,-0.5 0,-0.3 0.139406,-0.5 0.348516,-0.5 h 21.12004 c 0.20911,0 0.348516,0.2 0.348516,0.5 0,0.3 -0.139406,0.5 -0.348516,0.5 z"
     id="path895"
     style="fill:#e6e7e8;fill-opacity:1;stroke-width:0.83488393" />
  <path
     d="M 77.59211,62 H 52.874016 c -0.244734,0 -0.40789,-0.2 -0.40789,-0.5 0,-0.3 0.163156,-0.5 0.40789,-0.5 H 77.59211 C 77.836844,61 78,61.2 78,61.5 78,61.8 77.836844,62 77.59211,62 Z"
     id="path897"
     style="fill:#e6e7e8;fill-opacity:1;stroke-width:0.90320474" />
  <path
     d="M 77.59211,65 H 52.874016 c -0.244734,0 -0.40789,-0.2 -0.40789,-0.5 0,-0.3 0.163156,-0.5 0.40789,-0.5 H 77.59211 C 77.836844,64 78,64.2 78,64.5 78,64.8 77.836844,65 77.59211,65 Z"
     id="path899"
     style="fill:#e6e7e8;fill-opacity:1;stroke-width:0.90320474" />
  <path
     d="M 77.59211,68 H 52.874016 c -0.244734,0 -0.40789,-0.2 -0.40789,-0.5 0,-0.3 0.163156,-0.5 0.40789,-0.5 H 77.59211 C 77.836844,67 78,67.2 78,67.5 78,67.8 77.836844,68 77.59211,68 Z"
     id="path901"
     style="fill:#e6e7e8;fill-opacity:1;stroke-width:0.90320474" />
  <path
     style="fill:#e6e7e8;fill-opacity:1;stroke-width:0.83488393"
     id="path911"
     d="m 73.934682,70.967555 h -21.12004 c -0.20911,0 -0.348516,-0.2 -0.348516,-0.5 0,-0.3 0.139406,-0.5 0.348516,-0.5 h 21.12004 c 0.20911,0 0.348516,0.2 0.348516,0.5 0,0.3 -0.139406,0.5 -0.348516,0.5 z" />
  <path
     d="m 73.934682,68 h -21.12004 c -0.20911,0 -0.348516,-0.2 -0.348516,-0.5 0,-0.3 0.139406,-0.5 0.348516,-0.5 h 21.12004 c 0.20911,0 0.348516,0.2 0.348516,0.5 0,0.3 -0.139406,0.5 -0.348516,0.5 z"
     id="path921"
     style="fill:#e6e7e8;fill-opacity:1;stroke-width:0.83488393" />
  <path
     d="M 47.538962,59 H 22.820868 c -0.244734,0 -0.40789,-0.2 -0.40789,-0.5 0,-0.3 0.163156,-0.5 0.40789,-0.5 h 24.718094 c 0.244734,0 0.40789,0.2 0.40789,0.5 0,0.3 -0.163156,0.5 -0.40789,0.5 z"
     id="path941"
     style="fill:#e6e7e8;fill-opacity:1;stroke-width:0.90320474" />
  <path
     d="M 47.538962,65 H 22.820868 c -0.244734,0 -0.40789,-0.2 -0.40789,-0.5 0,-0.3 0.163156,-0.5 0.40789,-0.5 h 24.718094 c 0.244734,0 0.40789,0.2 0.40789,0.5 0,0.3 -0.163156,0.5 -0.40789,0.5 z"
     id="path945"
     style="fill:#e6e7e8;fill-opacity:1;stroke-width:0.90320474" />
  <path
     d="M 47.538962,68 H 22.820868 c -0.244734,0 -0.40789,-0.2 -0.40789,-0.5 0,-0.3 0.163156,-0.5 0.40789,-0.5 h 24.718094 c 0.244734,0 0.40789,0.2 0.40789,0.5 0,0.3 -0.163156,0.5 -0.40789,0.5 z"
     id="path947"
     style="fill:#e6e7e8;fill-opacity:1;stroke-width:0.90320474" />
  <path
     style="fill:#e6e7e8;fill-opacity:1;stroke-width:0.90320474"
     id="path951"
     d="M 47.538962,59 H 22.820868 c -0.244734,0 -0.40789,-0.2 -0.40789,-0.5 0,-0.3 0.163156,-0.5 0.40789,-0.5 h 24.718094 c 0.244734,0 0.40789,0.2 0.40789,0.5 0,0.3 -0.163156,0.5 -0.40789,0.5 z" />
  <path
     style="fill:#e6e7e8;fill-opacity:1;stroke-width:0.90320474"
     id="path955"
     d="M 47.538962,65 H 22.820868 c -0.244734,0 -0.40789,-0.2 -0.40789,-0.5 0,-0.3 0.163156,-0.5 0.40789,-0.5 h 24.718094 c 0.244734,0 0.40789,0.2 0.40789,0.5 0,0.3 -0.163156,0.5 -0.40789,0.5 z" />
  <path
     style="fill:#e6e7e8;fill-opacity:1;stroke-width:0.90320474"
     id="path961"
     d="M 47.538962,70.967555 H 22.820868 c -0.244734,0 -0.40789,-0.2 -0.40789,-0.5 0,-0.3 0.163156,-0.5 0.40789,-0.5 h 24.718094 c 0.244734,0 0.40789,0.2 0.40789,0.5 0,0.3 -0.163156,0.5 -0.40789,0.5 z" />
  <path
     d="M 47.538962,70.967555 H 22.820868 c -0.244734,0 -0.40789,-0.2 -0.40789,-0.5 0,-0.3 0.163156,-0.5 0.40789,-0.5 h 24.718094 c 0.244734,0 0.40789,0.2 0.40789,0.5 0,0.3 -0.163156,0.5 -0.40789,0.5 z"
     id="path963"
     style="fill:#e6e7e8;fill-opacity:1;stroke-width:0.90320474" />
  <path
     style="fill:#e6e7e8;fill-opacity:1;stroke-width:0.82494754"
     id="path965"
     d="m 43.373558,56 h -20.62031 c -0.204162,0 -0.34027,-0.2 -0.34027,-0.5 0,-0.3 0.136108,-0.5 0.34027,-0.5 h 20.62031 c 0.204162,0 0.34027,0.2 0.34027,0.5 0,0.3 -0.136108,0.5 -0.34027,0.5 z" />
  <path
     style="fill:#e6e7e8;fill-opacity:1;stroke-width:0.82494754"
     id="path969"
     d="m 43.373558,62 h -20.62031 c -0.204162,0 -0.34027,-0.2 -0.34027,-0.5 0,-0.3 0.136108,-0.5 0.34027,-0.5 h 20.62031 c 0.204162,0 0.34027,0.2 0.34027,0.5 0,0.3 -0.136108,0.5 -0.34027,0.5 z" />
  <path
     d="m 43.373558,68 h -20.62031 c -0.204162,0 -0.34027,-0.2 -0.34027,-0.5 0,-0.3 0.136108,-0.5 0.34027,-0.5 h 20.62031 c 0.204162,0 0.34027,0.2 0.34027,0.5 0,0.3 -0.136108,0.5 -0.34027,0.5 z"
     id="path983"
     style="fill:#e6e7e8;fill-opacity:1;stroke-width:0.82494754" />
  <path
     d="M 47.538962,70.967555 H 22.820868 c -0.244734,0 -0.40789,-0.2 -0.40789,-0.5 0,-0.3 0.163156,-0.5 0.40789,-0.5 h 24.718094 c 0.244734,0 0.40789,0.2 0.40789,0.5 0,0.3 -0.163156,0.5 -0.40789,0.5 z"
     id="path987"
     style="fill:#e6e7e8;fill-opacity:1;stroke-width:0.90320474" />
  <path
     style="fill:#e6e7e8;fill-opacity:1;stroke-width:1.44235"
     id="path853"
     d="m 59.631882,46.914115 h -36.6147 c -0.362523,0 -0.604204,-0.344312 -0.604204,-0.860782 0,-0.51647 0.241681,-0.860783 0.604204,-0.860783 h 36.6147 c 0.362522,0 0.604205,0.344313 0.604205,0.860783 0,0.51647 -0.241683,0.860782 -0.604205,0.860782 z" />
  <path
     style="fill:#e6e7e8;fill-opacity:1;stroke-width:0.824948"
     id="path855"
     d="m 43.373558,49.767849 h -20.62031 c -0.204162,0 -0.34027,-0.2 -0.34027,-0.5 0,-0.3 0.136108,-0.5 0.34027,-0.5 h 20.62031 c 0.204162,0 0.34027,0.2 0.34027,0.5 0,0.3 -0.136108,0.5 -0.34027,0.5 z" />
</svg>
