<?xml version="1.0" encoding="UTF-8" standalone="no"?>
<svg
   xmlns:dc="http://purl.org/dc/elements/1.1/"
   xmlns:cc="http://creativecommons.org/ns#"
   xmlns:rdf="http://www.w3.org/1999/02/22-rdf-syntax-ns#"
   xmlns:svg="http://www.w3.org/2000/svg"
   xmlns="http://www.w3.org/2000/svg"
   id="Layer_1"
   viewBox="0 0 100 70"
   version="1.1">
  <metadata
     id="metadata15">
    <rdf:RDF>
      <cc:Work
         rdf:about="">
        <dc:format>image/svg+xml</dc:format>
        <dc:type
           rdf:resource="http://purl.org/dc/dcmitype/StillImage" />
        <dc:title></dc:title>
      </cc:Work>
    </rdf:RDF>
  </metadata>
  <defs
     id="defs13" />
  <style
     id="style2">.st2{fill:#e6e7e8}</style>
  <path
     d="M13 73.5c-1.4 0-2.5-1.1-2.5-2.5V13c0-1.4 1.1-2.5 2.5-2.5h74c1.4 0 2.5 1.1 2.5 2.5v58c0 1.4-1.1 2.5-2.5 2.5H13z"
     fill="#fff"
     id="path4" />
  <path
     d="M87 11c1.1 0 2 .9 2 2v58c0 1.1-.9 2-2 2H13c-1.1 0-2-.9-2-2V13c0-1.1.9-2 2-2h74m0-1H13c-1.7 0-3 1.3-3 3v58c0 1.7 1.3 3 3 3h74c1.6 0 3-1.3 3-3V13c0-1.7-1.4-3-3-3z"
     fill="#565d66"
     id="path6" />
  <path
     d="M 76.154313,41.380473 H 52.79817 c -0.127403,0 -0.212328,-0.248652 -0.212328,-0.621656 V 14.649243 c 0,-0.372993 0.08494,-0.621655 0.212328,-0.621655 h 23.356143 c 0.127402,0 0.212329,0.24865 0.212329,0.621655 v 26.109574 c 0,0.372994 -0.08492,0.621656 -0.212329,0.621656 z"
     id="path875"
     style="fill:#e6e7e8;fill-opacity:1;stroke-width:0.72662359" />
  <path
     d="M 47.59211,34 H 22.874016 c -0.244734,0 -0.40789,-0.2 -0.40789,-0.5 0,-0.3 0.163156,-0.5 0.40789,-0.5 H 47.59211 C 47.836844,33 48,33.2 48,33.5 48,33.8 47.836844,34 47.59211,34 Z"
     id="path867"
     style="fill:#e6e7e8;fill-opacity:1;stroke-width:0.90320474" />
  <path
     d="M 47.59211,42 H 22.874016 c -0.244734,0 -0.40789,-0.2 -0.40789,-0.5 0,-0.3 0.163156,-0.5 0.40789,-0.5 H 47.59211 C 47.836844,41 48,41.2 48,41.5 48,41.8 47.836844,42 47.59211,42 Z"
     id="path863"
     style="fill:#e6e7e8;fill-opacity:1;stroke-width:0.90320474" />
  <path
     d="M 47.59211,45 H 22.874016 c -0.244734,0 -0.40789,-0.2 -0.40789,-0.5 0,-0.3 0.163156,-0.5 0.40789,-0.5 H 47.59211 C 47.836844,44 48,44.2 48,44.5 48,44.8 47.836844,45 47.59211,45 Z"
     id="path861"
     style="fill:#e6e7e8;fill-opacity:1;stroke-width:0.90320474" />
  <path
     d="M 47.59211,48 H 22.874016 c -0.244734,0 -0.40789,-0.2 -0.40789,-0.5 0,-0.3 0.163156,-0.5 0.40789,-0.5 H 47.59211 C 47.836844,47 48,47.2 48,47.5 48,47.8 47.836844,48 47.59211,48 Z"
     id="path859"
     style="fill:#e6e7e8;fill-opacity:1;stroke-width:0.90320474" />
  <path
     d="M 70.118742,47.549975 H 65.17589 c -0.07269,0 -0.121149,-0.07977 -0.121149,-0.199428 v -4.786293 c 0,-0.119657 0.04846,-0.199428 0.121149,-0.199428 h 4.942852 c 0.07269,0 0.121149,0.07977 0.121149,0.199428 v 4.786293 c 0,0.119657 -0.04846,0.199428 -0.121149,0.199428 z"
     id="path869"
     style="fill:#e6e7e8;fill-opacity:1;stroke-width:0.31087279" />
  <path
     style="fill:#e6e7e8;fill-opacity:1;stroke-width:0.31087279"
     id="path883"
     d="m 76.353193,47.549975 h -4.942852 c -0.07269,0 -0.121149,-0.07977 -0.121149,-0.199428 v -4.786293 c 0,-0.119657 0.04846,-0.199428 0.121149,-0.199428 h 4.942852 c 0.07269,0 0.121148,0.07977 0.121148,0.199428 v 4.786293 c 0,0.119657 -0.04846,0.199428 -0.121148,0.199428 z" />
  <path
     style="fill:#e6e7e8;fill-opacity:1;stroke-width:0.31087279"
     id="path885"
     d="m 63.884291,47.549975 h -4.942852 c -0.07269,0 -0.121149,-0.07977 -0.121149,-0.199428 v -4.786293 c 0,-0.119657 0.04846,-0.199428 0.121149,-0.199428 h 4.942852 c 0.07269,0 0.121149,0.07977 0.121149,0.199428 v 4.786293 c 0,0.119657 -0.04846,0.199428 -0.121149,0.199428 z" />
  <path
     style="fill:#e6e7e8;fill-opacity:1;stroke-width:0.90320474"
     id="path893"
     d="M 47.59211,34 H 22.874016 c -0.244734,0 -0.40789,-0.2 -0.40789,-0.5 0,-0.3 0.163156,-0.5 0.40789,-0.5 H 47.59211 C 47.836844,33 48,33.2 48,33.5 48,33.8 47.836844,34 47.59211,34 Z" />
  <path
     style="fill:#e6e7e8;fill-opacity:1;stroke-width:0.83488393"
     id="path895"
     d="m 43.934682,39 h -21.12004 c -0.20911,0 -0.348516,-0.2 -0.348516,-0.5 0,-0.3 0.139406,-0.5 0.348516,-0.5 h 21.12004 c 0.20911,0 0.348516,0.2 0.348516,0.5 0,0.3 -0.139406,0.5 -0.348516,0.5 z" />
  <path
     style="fill:#e6e7e8;fill-opacity:1;stroke-width:0.90320474"
     id="path897"
     d="M 47.59211,42 H 22.874016 c -0.244734,0 -0.40789,-0.2 -0.40789,-0.5 0,-0.3 0.163156,-0.5 0.40789,-0.5 H 47.59211 C 47.836844,41 48,41.2 48,41.5 48,41.8 47.836844,42 47.59211,42 Z" />
  <path
     style="fill:#e6e7e8;fill-opacity:1;stroke-width:0.90320474"
     id="path899"
     d="M 47.59211,45 H 22.874016 c -0.244734,0 -0.40789,-0.2 -0.40789,-0.5 0,-0.3 0.163156,-0.5 0.40789,-0.5 H 47.59211 C 47.836844,44 48,44.2 48,44.5 48,44.8 47.836844,45 47.59211,45 Z" />
  <path
     style="fill:#e6e7e8;fill-opacity:1;stroke-width:0.90320474"
     id="path901"
     d="M 47.59211,48 H 22.874016 c -0.244734,0 -0.40789,-0.2 -0.40789,-0.5 0,-0.3 0.163156,-0.5 0.40789,-0.5 H 47.59211 C 47.836844,47 48,47.2 48,47.5 48,47.8 47.836844,48 47.59211,48 Z" />
  <path
     d="m 43.934682,50.967555 h -21.12004 c -0.20911,0 -0.348516,-0.2 -0.348516,-0.5 0,-0.3 0.139406,-0.5 0.348516,-0.5 h 21.12004 c 0.20911,0 0.348516,0.2 0.348516,0.5 0,0.3 -0.139406,0.5 -0.348516,0.5 z"
     id="path911"
     style="fill:#e6e7e8;fill-opacity:1;stroke-width:0.83488393" />
  <path
     style="fill:#e6e7e8;fill-opacity:1;stroke-width:0.83488393"
     id="path921"
     d="m 43.934682,48 h -21.12004 c -0.20911,0 -0.348516,-0.2 -0.348516,-0.5 0,-0.3 0.139406,-0.5 0.348516,-0.5 h 21.12004 c 0.20911,0 0.348516,0.2 0.348516,0.5 0,0.3 -0.139406,0.5 -0.348516,0.5 z" />
  <path
     style="fill:#e6e7e8;fill-opacity:1;stroke-width:0.90320474"
     id="path941"
     d="M 47.538962,19 H 22.820868 c -0.244734,0 -0.40789,-0.2 -0.40789,-0.5 0,-0.3 0.163156,-0.5 0.40789,-0.5 h 24.718094 c 0.244734,0 0.40789,0.2 0.40789,0.5 0,0.3 -0.163156,0.5 -0.40789,0.5 z" />
  <path
     style="fill:#e6e7e8;fill-opacity:1;stroke-width:0.90320474"
     id="path945"
     d="M 47.538962,25 H 22.820868 c -0.244734,0 -0.40789,-0.2 -0.40789,-0.5 0,-0.3 0.163156,-0.5 0.40789,-0.5 h 24.718094 c 0.244734,0 0.40789,0.2 0.40789,0.5 0,0.3 -0.163156,0.5 -0.40789,0.5 z" />
  <path
     style="fill:#e6e7e8;fill-opacity:1;stroke-width:0.90320474"
     id="path947"
     d="M 47.538962,28 H 22.820868 c -0.244734,0 -0.40789,-0.2 -0.40789,-0.5 0,-0.3 0.163156,-0.5 0.40789,-0.5 h 24.718094 c 0.244734,0 0.40789,0.2 0.40789,0.5 0,0.3 -0.163156,0.5 -0.40789,0.5 z" />
  <path
     d="M 47.538962,19 H 22.820868 c -0.244734,0 -0.40789,-0.2 -0.40789,-0.5 0,-0.3 0.163156,-0.5 0.40789,-0.5 h 24.718094 c 0.244734,0 0.40789,0.2 0.40789,0.5 0,0.3 -0.163156,0.5 -0.40789,0.5 z"
     id="path951"
     style="fill:#e6e7e8;fill-opacity:1;stroke-width:0.90320474" />
  <path
     d="M 47.538962,25 H 22.820868 c -0.244734,0 -0.40789,-0.2 -0.40789,-0.5 0,-0.3 0.163156,-0.5 0.40789,-0.5 h 24.718094 c 0.244734,0 0.40789,0.2 0.40789,0.5 0,0.3 -0.163156,0.5 -0.40789,0.5 z"
     id="path955"
     style="fill:#e6e7e8;fill-opacity:1;stroke-width:0.90320474" />
  <path
     d="M 47.538962,30.967555 H 22.820868 c -0.244734,0 -0.40789,-0.2 -0.40789,-0.5 0,-0.3 0.163156,-0.5 0.40789,-0.5 h 24.718094 c 0.244734,0 0.40789,0.2 0.40789,0.5 0,0.3 -0.163156,0.5 -0.40789,0.5 z"
     id="path961"
     style="fill:#e6e7e8;fill-opacity:1;stroke-width:0.90320474" />
  <path
     style="fill:#e6e7e8;fill-opacity:1;stroke-width:0.90320474"
     id="path963"
     d="M 47.538962,30.967555 H 22.820868 c -0.244734,0 -0.40789,-0.2 -0.40789,-0.5 0,-0.3 0.163156,-0.5 0.40789,-0.5 h 24.718094 c 0.244734,0 0.40789,0.2 0.40789,0.5 0,0.3 -0.163156,0.5 -0.40789,0.5 z" />
  <path
     d="m 43.373558,16 h -20.62031 c -0.204162,0 -0.34027,-0.2 -0.34027,-0.5 0,-0.3 0.136108,-0.5 0.34027,-0.5 h 20.62031 c 0.204162,0 0.34027,0.2 0.34027,0.5 0,0.3 -0.136108,0.5 -0.34027,0.5 z"
     id="path965"
     style="fill:#e6e7e8;fill-opacity:1;stroke-width:0.82494754" />
  <path
     d="m 43.373558,22 h -20.62031 c -0.204162,0 -0.34027,-0.2 -0.34027,-0.5 0,-0.3 0.136108,-0.5 0.34027,-0.5 h 20.62031 c 0.204162,0 0.34027,0.2 0.34027,0.5 0,0.3 -0.136108,0.5 -0.34027,0.5 z"
     id="path969"
     style="fill:#e6e7e8;fill-opacity:1;stroke-width:0.82494754" />
  <path
     style="fill:#e6e7e8;fill-opacity:1;stroke-width:0.82494754"
     id="path983"
     d="m 43.373558,28 h -20.62031 c -0.204162,0 -0.34027,-0.2 -0.34027,-0.5 0,-0.3 0.136108,-0.5 0.34027,-0.5 h 20.62031 c 0.204162,0 0.34027,0.2 0.34027,0.5 0,0.3 -0.136108,0.5 -0.34027,0.5 z" />
  <path
     style="fill:#e6e7e8;fill-opacity:1;stroke-width:0.90320474"
     id="path987"
     d="M 47.538962,30.967555 H 22.820868 c -0.244734,0 -0.40789,-0.2 -0.40789,-0.5 0,-0.3 0.163156,-0.5 0.40789,-0.5 h 24.718094 c 0.244734,0 0.40789,0.2 0.40789,0.5 0,0.3 -0.163156,0.5 -0.40789,0.5 z" />
  <path
     style="fill:#e6e7e8;fill-opacity:1;stroke-width:0.90320474"
     id="path870"
     d="M 47.59211,58 H 22.874016 c -0.244734,0 -0.40789,-0.2 -0.40789,-0.5 0,-0.3 0.163156,-0.5 0.40789,-0.5 H 47.59211 C 47.836844,57 48,57.2 48,57.5 48,57.8 47.836844,58 47.59211,58 Z" />
  <path
     style="fill:#e6e7e8;fill-opacity:1;stroke-width:0.90320474"
     id="path872"
     d="M 47.59211,61 H 22.874016 c -0.244734,0 -0.40789,-0.2 -0.40789,-0.5 0,-0.3 0.163156,-0.5 0.40789,-0.5 H 47.59211 C 47.836844,60 48,60.2 48,60.5 48,60.8 47.836844,61 47.59211,61 Z" />
  <path
     style="fill:#e6e7e8;fill-opacity:1;stroke-width:0.90320474"
     id="path874"
     d="M 47.59211,64 H 22.874016 c -0.244734,0 -0.40789,-0.2 -0.40789,-0.5 0,-0.3 0.163156,-0.5 0.40789,-0.5 H 47.59211 C 47.836844,63 48,63.2 48,63.5 48,63.8 47.836844,64 47.59211,64 Z" />
  <path
     d="m 43.934682,55 h -21.12004 c -0.20911,0 -0.348516,-0.2 -0.348516,-0.5 0,-0.3 0.139406,-0.5 0.348516,-0.5 h 21.12004 c 0.20911,0 0.348516,0.2 0.348516,0.5 0,0.3 -0.139406,0.5 -0.348516,0.5 z"
     id="path876"
     style="fill:#e6e7e8;fill-opacity:1;stroke-width:0.83488393" />
  <path
     d="M 47.59211,58 H 22.874016 c -0.244734,0 -0.40789,-0.2 -0.40789,-0.5 0,-0.3 0.163156,-0.5 0.40789,-0.5 H 47.59211 C 47.836844,57 48,57.2 48,57.5 48,57.8 47.836844,58 47.59211,58 Z"
     id="path878"
     style="fill:#e6e7e8;fill-opacity:1;stroke-width:0.90320474" />
  <path
     d="M 47.59211,61 H 22.874016 c -0.244734,0 -0.40789,-0.2 -0.40789,-0.5 0,-0.3 0.163156,-0.5 0.40789,-0.5 H 47.59211 C 47.836844,60 48,60.2 48,60.5 48,60.8 47.836844,61 47.59211,61 Z"
     id="path880"
     style="fill:#e6e7e8;fill-opacity:1;stroke-width:0.90320474" />
  <path
     d="M 47.59211,64 H 22.874016 c -0.244734,0 -0.40789,-0.2 -0.40789,-0.5 0,-0.3 0.163156,-0.5 0.40789,-0.5 H 47.59211 C 47.836844,63 48,63.2 48,63.5 48,63.8 47.836844,64 47.59211,64 Z"
     id="path882"
     style="fill:#e6e7e8;fill-opacity:1;stroke-width:0.90320474" />
  <path
     style="fill:#e6e7e8;fill-opacity:1;stroke-width:0.83488393"
     id="path884"
     d="m 43.934682,66.967555 h -21.12004 c -0.20911,0 -0.348516,-0.2 -0.348516,-0.5 0,-0.3 0.139406,-0.5 0.348516,-0.5 h 21.12004 c 0.20911,0 0.348516,0.2 0.348516,0.5 0,0.3 -0.139406,0.5 -0.348516,0.5 z" />
  <path
     d="m 43.934682,64 h -21.12004 c -0.20911,0 -0.348516,-0.2 -0.348516,-0.5 0,-0.3 0.139406,-0.5 0.348516,-0.5 h 21.12004 c 0.20911,0 0.348516,0.2 0.348516,0.5 0,0.3 -0.139406,0.5 -0.348516,0.5 z"
     id="path886"
     style="fill:#e6e7e8;fill-opacity:1;stroke-width:0.83488393" />
  <path
     d="m 57.649843,47.549975 h -4.942852 c -0.07269,0 -0.121149,-0.07977 -0.121149,-0.199428 v -4.786293 c 0,-0.119657 0.04846,-0.199428 0.121149,-0.199428 h 4.942852 c 0.07269,0 0.121149,0.07977 0.121149,0.199428 v 4.786293 c 0,0.119657 -0.04846,0.199428 -0.121149,0.199428 z"
     id="path888"
     style="fill:#e6e7e8;fill-opacity:1;stroke-width:0.31087279" />
</svg>
