<?xml version="1.0" encoding="UTF-8" standalone="no"?>
<svg
   xmlns:dc="http://purl.org/dc/elements/1.1/"
   xmlns:cc="http://creativecommons.org/ns#"
   xmlns:rdf="http://www.w3.org/1999/02/22-rdf-syntax-ns#"
   xmlns:svg="http://www.w3.org/2000/svg"
   xmlns="http://www.w3.org/2000/svg"
   version="1.1"
   viewBox="0 0 100 70"
   id="Layer_1">
  <metadata
     id="metadata15">
    <rdf:RDF>
      <cc:Work
         rdf:about="">
        <dc:format>image/svg+xml</dc:format>
        <dc:type
           rdf:resource="http://purl.org/dc/dcmitype/StillImage" />
        <dc:title></dc:title>
      </cc:Work>
    </rdf:RDF>
  </metadata>
  <defs
     id="defs13" />
  <style
     id="style2">.st2{fill:#e6e7e8}</style>
  <path
     id="path4"
     fill="#fff"
     d="M13 73.5c-1.4 0-2.5-1.1-2.5-2.5V13c0-1.4 1.1-2.5 2.5-2.5h74c1.4 0 2.5 1.1 2.5 2.5v58c0 1.4-1.1 2.5-2.5 2.5H13z" />
  <path
     id="path6"
     fill="#565d66"
     d="M87 11c1.1 0 2 .9 2 2v58c0 1.1-.9 2-2 2H13c-1.1 0-2-.9-2-2V13c0-1.1.9-2 2-2h74m0-1H13c-1.7 0-3 1.3-3 3v58c0 1.7 1.3 3 3 3h74c1.6 0 3-1.3 3-3V13c0-1.7-1.4-3-3-3z" />
  <path
     style="fill:#e6e7e8;fill-opacity:1;stroke-width:0.9447301"
     id="path875"
     d="m 70.908945,39.85249 h -41.81789 c -0.228098,0 -0.380164,-0.234771 -0.380164,-0.586928 V 14.614517 c 0,-0.352158 0.152066,-0.586929 0.380164,-0.586929 h 41.81789 c 0.228098,0 0.380164,0.234771 0.380164,0.586929 v 24.651045 c 0,0.352157 -0.152066,0.586928 -0.380164,0.586928 z" />
  <path
     style="fill:#e6e7e8;fill-opacity:1;stroke-width:0.52166367"
     id="path869"
     d="m 66.075197,51.711009 h -8.29441 c -0.121977,0 -0.203295,-0.133861 -0.203295,-0.334654 v -8.031692 c 0,-0.200793 0.08132,-0.334654 0.203295,-0.334654 h 8.29441 c 0.121977,0 0.203295,0.133861 0.203295,0.334654 v 8.031692 c 0,0.200793 -0.08132,0.334654 -0.203295,0.334654 z" />
  <path
     style="fill:#e6e7e8;fill-opacity:1;stroke-width:0.90320474"
     id="path867"
     d="M 77.59211,56 H 52.874016 c -0.244734,0 -0.40789,-0.2 -0.40789,-0.5 0,-0.3 0.163156,-0.5 0.40789,-0.5 H 77.59211 C 77.836844,55 78,55.2 78,55.5 78,55.8 77.836844,56 77.59211,56 Z" />
  <path
     style="fill:#e6e7e8;fill-opacity:1;stroke-width:0.90320474"
     id="path863"
     d="M 77.59211,62 H 52.874016 c -0.244734,0 -0.40789,-0.2 -0.40789,-0.5 0,-0.3 0.163156,-0.5 0.40789,-0.5 H 77.59211 C 77.836844,61 78,61.2 78,61.5 78,61.8 77.836844,62 77.59211,62 Z" />
  <path
     style="fill:#e6e7e8;fill-opacity:1;stroke-width:0.90320474"
     id="path861"
     d="M 77.59211,65 H 52.874016 c -0.244734,0 -0.40789,-0.2 -0.40789,-0.5 0,-0.3 0.163156,-0.5 0.40789,-0.5 H 77.59211 C 77.836844,64 78,64.2 78,64.5 78,64.8 77.836844,65 77.59211,65 Z" />
  <path
     style="fill:#e6e7e8;fill-opacity:1;stroke-width:0.90320474"
     id="path859"
     d="M 77.59211,68 H 52.874016 c -0.244734,0 -0.40789,-0.2 -0.40789,-0.5 0,-0.3 0.163156,-0.5 0.40789,-0.5 H 77.59211 C 77.836844,67 78,67.2 78,67.5 78,67.8 77.836844,68 77.59211,68 Z" />
  <path
     d="m 77.796701,51.711009 h -8.29441 c -0.121977,0 -0.203295,-0.133861 -0.203295,-0.334654 v -8.031692 c 0,-0.200793 0.08132,-0.334654 0.203295,-0.334654 h 8.29441 c 0.121977,0 0.203295,0.133861 0.203295,0.334654 v 8.031692 c 0,0.200793 -0.08132,0.334654 -0.203295,0.334654 z"
     id="path883"
     style="fill:#e6e7e8;fill-opacity:1;stroke-width:0.52166367" />
  <path
     d="m 54.353693,51.711009 h -8.29441 c -0.121977,0 -0.203295,-0.133861 -0.203295,-0.334654 v -8.031692 c 0,-0.200793 0.08132,-0.334654 0.203295,-0.334654 h 8.29441 c 0.121977,0 0.203295,0.133861 0.203295,0.334654 v 8.031692 c 0,0.200793 -0.08132,0.334654 -0.203295,0.334654 z"
     id="path885"
     style="fill:#e6e7e8;fill-opacity:1;stroke-width:0.52166367" />
  <path
     style="fill:#e6e7e8;fill-opacity:1;stroke-width:0.52166367"
     id="path887"
     d="m 42.632188,51.711009 h -8.29441 c -0.121977,0 -0.203295,-0.133861 -0.203295,-0.334654 v -8.031692 c 0,-0.200793 0.08132,-0.334654 0.203295,-0.334654 h 8.29441 c 0.121977,0 0.203295,0.133861 0.203295,0.334654 v 8.031692 c 0,0.200793 -0.08132,0.334654 -0.203295,0.334654 z" />
  <path
     style="fill:#e6e7e8;fill-opacity:1;stroke-width:0.52166367"
     id="path891"
     d="m 30.910683,51.711009 h -8.29441 c -0.121977,0 -0.203295,-0.133861 -0.203295,-0.334654 v -8.031692 c 0,-0.200793 0.08132,-0.334654 0.203295,-0.334654 h 8.29441 c 0.121977,0 0.203295,0.133861 0.203295,0.334654 v 8.031692 c 0,0.200793 -0.08132,0.334654 -0.203295,0.334654 z" />
  <path
     d="M 77.59211,56 H 52.874016 c -0.244734,0 -0.40789,-0.2 -0.40789,-0.5 0,-0.3 0.163156,-0.5 0.40789,-0.5 H 77.59211 C 77.836844,55 78,55.2 78,55.5 78,55.8 77.836844,56 77.59211,56 Z"
     id="path893"
     style="fill:#e6e7e8;fill-opacity:1;stroke-width:0.90320474" />
  <path
     d="m 73.934682,59 h -21.12004 c -0.20911,0 -0.348516,-0.2 -0.348516,-0.5 0,-0.3 0.139406,-0.5 0.348516,-0.5 h 21.12004 c 0.20911,0 0.348516,0.2 0.348516,0.5 0,0.3 -0.139406,0.5 -0.348516,0.5 z"
     id="path895"
     style="fill:#e6e7e8;fill-opacity:1;stroke-width:0.83488393" />
  <path
     d="M 77.59211,62 H 52.874016 c -0.244734,0 -0.40789,-0.2 -0.40789,-0.5 0,-0.3 0.163156,-0.5 0.40789,-0.5 H 77.59211 C 77.836844,61 78,61.2 78,61.5 78,61.8 77.836844,62 77.59211,62 Z"
     id="path897"
     style="fill:#e6e7e8;fill-opacity:1;stroke-width:0.90320474" />
  <path
     d="M 77.59211,65 H 52.874016 c -0.244734,0 -0.40789,-0.2 -0.40789,-0.5 0,-0.3 0.163156,-0.5 0.40789,-0.5 H 77.59211 C 77.836844,64 78,64.2 78,64.5 78,64.8 77.836844,65 77.59211,65 Z"
     id="path899"
     style="fill:#e6e7e8;fill-opacity:1;stroke-width:0.90320474" />
  <path
     d="M 77.59211,68 H 52.874016 c -0.244734,0 -0.40789,-0.2 -0.40789,-0.5 0,-0.3 0.163156,-0.5 0.40789,-0.5 H 77.59211 C 77.836844,67 78,67.2 78,67.5 78,67.8 77.836844,68 77.59211,68 Z"
     id="path901"
     style="fill:#e6e7e8;fill-opacity:1;stroke-width:0.90320474" />
  <path
     style="fill:#e6e7e8;fill-opacity:1;stroke-width:0.83488393"
     id="path911"
     d="m 73.934682,70.967555 h -21.12004 c -0.20911,0 -0.348516,-0.2 -0.348516,-0.5 0,-0.3 0.139406,-0.5 0.348516,-0.5 h 21.12004 c 0.20911,0 0.348516,0.2 0.348516,0.5 0,0.3 -0.139406,0.5 -0.348516,0.5 z" />
  <path
     d="m 73.934682,68 h -21.12004 c -0.20911,0 -0.348516,-0.2 -0.348516,-0.5 0,-0.3 0.139406,-0.5 0.348516,-0.5 h 21.12004 c 0.20911,0 0.348516,0.2 0.348516,0.5 0,0.3 -0.139406,0.5 -0.348516,0.5 z"
     id="path921"
     style="fill:#e6e7e8;fill-opacity:1;stroke-width:0.83488393" />
  <path
     d="M 47.538962,59 H 22.820868 c -0.244734,0 -0.40789,-0.2 -0.40789,-0.5 0,-0.3 0.163156,-0.5 0.40789,-0.5 h 24.718094 c 0.244734,0 0.40789,0.2 0.40789,0.5 0,0.3 -0.163156,0.5 -0.40789,0.5 z"
     id="path941"
     style="fill:#e6e7e8;fill-opacity:1;stroke-width:0.90320474" />
  <path
     d="M 47.538962,65 H 22.820868 c -0.244734,0 -0.40789,-0.2 -0.40789,-0.5 0,-0.3 0.163156,-0.5 0.40789,-0.5 h 24.718094 c 0.244734,0 0.40789,0.2 0.40789,0.5 0,0.3 -0.163156,0.5 -0.40789,0.5 z"
     id="path945"
     style="fill:#e6e7e8;fill-opacity:1;stroke-width:0.90320474" />
  <path
     d="M 47.538962,68 H 22.820868 c -0.244734,0 -0.40789,-0.2 -0.40789,-0.5 0,-0.3 0.163156,-0.5 0.40789,-0.5 h 24.718094 c 0.244734,0 0.40789,0.2 0.40789,0.5 0,0.3 -0.163156,0.5 -0.40789,0.5 z"
     id="path947"
     style="fill:#e6e7e8;fill-opacity:1;stroke-width:0.90320474" />
  <path
     style="fill:#e6e7e8;fill-opacity:1;stroke-width:0.90320474"
     id="path951"
     d="M 47.538962,59 H 22.820868 c -0.244734,0 -0.40789,-0.2 -0.40789,-0.5 0,-0.3 0.163156,-0.5 0.40789,-0.5 h 24.718094 c 0.244734,0 0.40789,0.2 0.40789,0.5 0,0.3 -0.163156,0.5 -0.40789,0.5 z" />
  <path
     style="fill:#e6e7e8;fill-opacity:1;stroke-width:0.90320474"
     id="path955"
     d="M 47.538962,65 H 22.820868 c -0.244734,0 -0.40789,-0.2 -0.40789,-0.5 0,-0.3 0.163156,-0.5 0.40789,-0.5 h 24.718094 c 0.244734,0 0.40789,0.2 0.40789,0.5 0,0.3 -0.163156,0.5 -0.40789,0.5 z" />
  <path
     style="fill:#e6e7e8;fill-opacity:1;stroke-width:0.90320474"
     id="path961"
     d="M 47.538962,70.967555 H 22.820868 c -0.244734,0 -0.40789,-0.2 -0.40789,-0.5 0,-0.3 0.163156,-0.5 0.40789,-0.5 h 24.718094 c 0.244734,0 0.40789,0.2 0.40789,0.5 0,0.3 -0.163156,0.5 -0.40789,0.5 z" />
  <path
     d="M 47.538962,70.967555 H 22.820868 c -0.244734,0 -0.40789,-0.2 -0.40789,-0.5 0,-0.3 0.163156,-0.5 0.40789,-0.5 h 24.718094 c 0.244734,0 0.40789,0.2 0.40789,0.5 0,0.3 -0.163156,0.5 -0.40789,0.5 z"
     id="path963"
     style="fill:#e6e7e8;fill-opacity:1;stroke-width:0.90320474" />
  <path
     style="fill:#e6e7e8;fill-opacity:1;stroke-width:0.82494754"
     id="path965"
     d="m 43.373558,56 h -20.62031 c -0.204162,0 -0.34027,-0.2 -0.34027,-0.5 0,-0.3 0.136108,-0.5 0.34027,-0.5 h 20.62031 c 0.204162,0 0.34027,0.2 0.34027,0.5 0,0.3 -0.136108,0.5 -0.34027,0.5 z" />
  <path
     style="fill:#e6e7e8;fill-opacity:1;stroke-width:0.82494754"
     id="path969"
     d="m 43.373558,62 h -20.62031 c -0.204162,0 -0.34027,-0.2 -0.34027,-0.5 0,-0.3 0.136108,-0.5 0.34027,-0.5 h 20.62031 c 0.204162,0 0.34027,0.2 0.34027,0.5 0,0.3 -0.136108,0.5 -0.34027,0.5 z" />
  <path
     d="m 43.373558,68 h -20.62031 c -0.204162,0 -0.34027,-0.2 -0.34027,-0.5 0,-0.3 0.136108,-0.5 0.34027,-0.5 h 20.62031 c 0.204162,0 0.34027,0.2 0.34027,0.5 0,0.3 -0.136108,0.5 -0.34027,0.5 z"
     id="path983"
     style="fill:#e6e7e8;fill-opacity:1;stroke-width:0.82494754" />
  <path
     d="M 47.538962,70.967555 H 22.820868 c -0.244734,0 -0.40789,-0.2 -0.40789,-0.5 0,-0.3 0.163156,-0.5 0.40789,-0.5 h 24.718094 c 0.244734,0 0.40789,0.2 0.40789,0.5 0,0.3 -0.163156,0.5 -0.40789,0.5 z"
     id="path987"
     style="fill:#e6e7e8;fill-opacity:1;stroke-width:0.90320474" />
</svg>
